<svg width="28" height="491" viewBox="0 0 28 491" fill="none" xmlns="http://www.w3.org/2000/svg">
<path d="M18.7001 465.745C17.8544 466.405 17.0016 466.892 16.1416 467.207C15.2959 467.523 14.3356 467.68 13.2606 467.68C11.8559 467.68 10.5444 467.451 9.3261 466.992C8.10777 466.519 7.0471 465.853 6.1441 464.993C5.2411 464.133 4.5316 463.101 4.0156 461.897C3.4996 460.679 3.2416 459.324 3.2416 457.833C3.2416 456.285 3.48527 454.874 3.9726 453.598C4.47427 452.322 5.1766 451.226 6.0796 450.308C6.99694 449.377 8.1006 448.66 9.3906 448.158C10.6949 447.642 12.1498 447.384 13.7551 447.384C15.1884 447.384 16.4498 447.607 17.5391 448.051C18.6428 448.495 19.5959 449.083 20.3986 449.814C21.2013 450.545 21.8678 451.383 22.3981 452.329C22.9428 453.275 23.3728 454.257 23.6881 455.275C24.0178 456.293 24.2471 457.303 24.3761 458.306C24.5194 459.31 24.5911 460.234 24.5911 461.08C24.5911 462.743 24.4191 464.369 24.0751 465.96C23.7454 467.537 23.2509 469.028 22.5916 470.432C21.9466 471.837 21.1511 473.134 20.2051 474.324C19.2591 475.499 18.1769 476.524 16.9586 477.398C15.7546 478.273 14.4216 478.968 12.9596 479.484C11.4976 480 9.92094 480.294 8.2296 480.366L7.5631 476.775C9.2831 476.689 10.8956 476.28 12.4006 475.549C13.9199 474.818 15.2529 473.851 16.3996 472.647C17.5606 471.429 18.4923 470.017 19.1946 468.411C19.9113 466.792 20.3198 465.065 20.4201 463.23L18.7001 465.745ZM20.1621 459.51C20.1191 458.435 19.9614 457.396 19.6891 456.393C19.4311 455.375 19.0441 454.472 18.5281 453.684C18.0121 452.881 17.3743 452.243 16.6146 451.77C15.8549 451.283 14.9591 451.039 13.9271 451.039C12.9524 451.039 12.0781 451.197 11.3041 451.512C10.5301 451.828 9.87077 452.265 9.3261 452.824C8.78144 453.383 8.3586 454.057 8.0576 454.845C7.77094 455.633 7.6276 456.5 7.6276 457.446C7.6276 458.378 7.74227 459.245 7.9716 460.048C8.21527 460.851 8.5736 461.546 9.0466 462.133C9.53394 462.721 10.1431 463.187 10.8741 463.531C11.6194 463.861 12.4866 464.025 13.4756 464.025C14.2353 464.025 14.9591 463.904 15.6471 463.66C16.3494 463.416 16.9873 463.094 17.5606 462.692C18.1483 462.277 18.6643 461.797 19.1086 461.252C19.5529 460.707 19.9041 460.127 20.1621 459.51Z" fill="white"/>
<path d="M14.0131 445.366C12.7948 445.366 11.6768 445.136 10.6591 444.677C9.64144 444.204 8.7241 443.567 7.9071 442.764C7.10444 441.961 6.39494 441.022 5.7786 439.947C5.1766 438.872 4.66777 437.726 4.2521 436.507C3.85077 435.275 3.54977 434.006 3.3491 432.702C3.14843 431.398 3.0481 430.122 3.0481 428.875C3.0481 427.585 3.1341 426.281 3.3061 424.962C3.4781 423.643 3.75044 422.375 4.1231 421.156C4.49577 419.938 4.96877 418.799 5.5421 417.738C6.12977 416.663 6.82494 415.731 7.6276 414.943C8.4446 414.155 9.37627 413.531 10.4226 413.072C11.4833 412.614 12.6801 412.384 14.0131 412.384C15.2314 412.384 16.3494 412.621 17.3671 413.094C18.3848 413.553 19.2949 414.183 20.0976 414.986C20.9146 415.789 21.6241 416.727 22.2261 417.802C22.8424 418.877 23.3513 420.031 23.7526 421.264C24.1683 422.482 24.4764 423.744 24.6771 425.048C24.8778 426.352 24.9781 427.628 24.9781 428.875C24.9781 430.165 24.8921 431.469 24.7201 432.788C24.5481 434.107 24.2758 435.375 23.9031 436.593C23.5304 437.812 23.0503 438.958 22.4626 440.033C21.8893 441.094 21.1941 442.019 20.3771 442.807C19.5744 443.595 18.6428 444.219 17.5821 444.677C16.5214 445.136 15.3318 445.366 14.0131 445.366ZM7.4986 427.95C7.4986 428.782 7.52727 429.699 7.5846 430.702C7.64194 431.691 7.7566 432.695 7.9286 433.712C8.1006 434.716 8.3371 435.69 8.6381 436.636C8.95344 437.582 9.35477 438.428 9.8421 439.173C10.3438 439.904 10.9458 440.492 11.6481 440.936C12.3648 441.381 13.2104 441.603 14.1851 441.603C15.0594 441.603 15.8191 441.438 16.4641 441.108C17.1234 440.764 17.6896 440.306 18.1626 439.732C18.6356 439.145 19.0226 438.471 19.3236 437.711C19.6246 436.937 19.8611 436.113 20.0331 435.239C20.2194 434.365 20.3484 433.462 20.4201 432.53C20.4918 431.598 20.5276 430.688 20.5276 429.799C20.5276 428.968 20.4989 428.058 20.4416 427.069C20.3843 426.066 20.2696 425.062 20.0976 424.059C19.9256 423.056 19.6819 422.081 19.3666 421.135C19.0656 420.175 18.6643 419.329 18.1626 418.598C17.6753 417.867 17.0733 417.279 16.3566 416.835C15.6543 416.391 14.8158 416.168 13.8411 416.168C12.9668 416.168 12.1999 416.34 11.5406 416.684C10.8956 417.014 10.3366 417.466 9.8636 418.039C9.3906 418.612 9.0036 419.286 8.7026 420.06C8.4016 420.834 8.15794 421.658 7.9716 422.532C7.7996 423.407 7.67777 424.31 7.6061 425.241C7.53444 426.159 7.4986 427.062 7.4986 427.95Z" fill="white"/>
<path d="M5.1336 410V406.56H12.5511V385.791L13.7981 380.91L10.8741 384.909L6.3161 388.951L3.9941 386.35L13.8411 377.32L17.0661 377.75V406.56H24.4836V410H5.1336Z" fill="white"/>
<path d="M3.9511 375V371.388C4.61044 370.342 5.3271 369.31 6.1011 368.292C6.8751 367.274 7.65627 366.292 8.4446 365.346C9.24727 364.386 10.0284 363.476 10.7881 362.616C11.5478 361.742 12.2501 360.939 12.8951 360.208C13.6404 359.348 14.3571 358.56 15.0451 357.843C15.7474 357.112 16.3638 356.395 16.8941 355.693C17.4244 354.991 17.8473 354.267 18.1626 353.521C18.4779 352.762 18.6356 351.93 18.6356 351.027C18.6356 350.339 18.5066 349.694 18.2486 349.092C17.9906 348.476 17.6251 347.946 17.1521 347.501C16.6934 347.043 16.1416 346.684 15.4966 346.426C14.8516 346.154 14.1421 346.018 13.3681 346.018C12.4938 346.018 11.7341 346.14 11.0891 346.383C10.4584 346.613 9.89944 346.921 9.4121 347.308C8.9391 347.695 8.52344 348.132 8.1651 348.619C7.8211 349.092 7.4986 349.573 7.1976 350.06L4.1661 348.77C4.53877 347.838 5.01177 346.985 5.5851 346.211C6.17277 345.423 6.86077 344.749 7.6491 344.19C8.43744 343.617 9.33327 343.173 10.3366 342.857C11.3399 342.542 12.4579 342.384 13.6906 342.384C15.1383 342.384 16.4283 342.642 17.5606 343.158C18.6929 343.674 19.6461 344.355 20.4201 345.201C21.2084 346.032 21.8033 346.978 22.2046 348.039C22.6203 349.1 22.8281 350.175 22.8281 351.264C22.8281 352.368 22.6203 353.421 22.2046 354.424C21.8033 355.413 21.2944 356.359 20.6781 357.262C20.0761 358.151 19.4239 358.99 18.7216 359.778C18.0193 360.566 17.3743 361.304 16.7866 361.992C16.0413 362.867 15.2959 363.727 14.5506 364.572C13.8053 365.418 13.0886 366.249 12.4006 367.066C11.7269 367.869 11.0963 368.65 10.5086 369.41C9.92094 370.155 9.4121 370.872 8.9821 371.56H24.0321V375H3.9511Z" fill="white"/>
<path d="M4.8971 311.19L5.2196 307.75H21.9896V310.76C21.8176 311.333 21.5238 311.935 21.1081 312.566C20.7068 313.182 20.2266 313.813 19.6676 314.458C19.1229 315.089 18.5209 315.712 17.8616 316.328C17.2166 316.945 16.5644 317.532 15.9051 318.091L13.0671 319.682C13.2104 319.654 13.3896 319.639 13.6046 319.639C13.8339 319.625 14.0489 319.618 14.2496 319.618C15.6399 319.618 16.9299 319.79 18.1196 320.134C19.3236 320.478 20.3628 321.001 21.2371 321.703C22.1258 322.391 22.8209 323.273 23.3226 324.348C23.8386 325.409 24.0966 326.663 24.0966 328.11C24.0966 329.501 23.8386 330.762 23.3226 331.894C22.8066 333.027 22.0971 334.037 21.1941 334.926C20.3054 335.8 19.2591 336.56 18.0551 337.205C16.8511 337.836 15.5611 338.359 14.1851 338.774C12.8234 339.19 11.4116 339.498 9.9496 339.699C8.4876 339.9 7.05427 340 5.6496 340V336.56C6.83927 336.517 8.00744 336.409 9.1541 336.237C10.3008 336.065 11.3901 335.829 12.4221 335.528C13.4541 335.213 14.4073 334.833 15.2816 334.388C16.1559 333.944 16.9084 333.428 17.5391 332.84C18.1841 332.238 18.6858 331.565 19.0441 330.819C19.4024 330.06 19.5816 329.228 19.5816 328.325C19.5816 327.293 19.3594 326.433 18.9151 325.745C18.4851 325.057 17.8903 324.513 17.1306 324.111C16.3709 323.71 15.4751 323.431 14.4431 323.273C13.4254 323.101 12.3289 323.015 11.1536 323.015C10.6949 323.015 10.1933 323.029 9.6486 323.058C9.11827 323.072 8.6381 323.094 8.2081 323.122V319.79C8.79577 319.36 9.4336 318.873 10.1216 318.328C10.8096 317.783 11.5048 317.217 12.2071 316.629C12.9094 316.027 13.5903 315.425 14.2496 314.823C14.9233 314.207 15.5324 313.627 16.0771 313.082C16.6218 312.523 17.0804 312.007 17.4531 311.534C17.8258 311.047 18.0694 310.645 18.1841 310.33L14.9161 311.19H4.8971Z" fill="white"/>
<path d="M24.4406 298.55H20.5706V305H16.0556V298.55H3.2631V294.873L13.6691 272.32L17.7326 272.75L8.8101 292.1L6.8106 295.11H16.0556V286.359L20.5706 286.725V295.11H24.7631L24.4406 298.55Z" fill="white"/>
<path d="M9.8206 248.887C9.92094 248.83 10.0929 248.736 10.3366 248.607C10.5946 248.478 10.9099 248.349 11.2826 248.22C11.6553 248.091 12.0781 247.984 12.5511 247.898C13.0384 247.798 13.5759 247.747 14.1636 247.747C15.6543 247.747 16.9801 247.984 18.1411 248.457C19.3164 248.916 20.3054 249.553 21.1081 250.37C21.9251 251.173 22.5414 252.119 22.9571 253.208C23.3871 254.298 23.6021 255.459 23.6021 256.691C23.6021 258.139 23.3441 259.479 22.8281 260.712C22.3121 261.93 21.6026 263.034 20.6996 264.023C19.8109 264.998 18.7646 265.858 17.5606 266.603C16.3709 267.348 15.0953 267.979 13.7336 268.495C12.3863 268.997 10.9959 269.376 9.5626 269.634C8.12927 269.878 6.7246 270 5.3486 270V266.56C6.4236 266.531 7.51294 266.402 8.6166 266.173C9.72027 265.944 10.7809 265.628 11.7986 265.227C12.8306 264.826 13.7909 264.345 14.6796 263.786C15.5826 263.227 16.3638 262.604 17.0231 261.916C17.6968 261.228 18.2271 260.483 18.6141 259.68C19.0011 258.877 19.1946 258.032 19.1946 257.143C19.1946 256.412 19.0728 255.702 18.8291 255.014C18.5998 254.326 18.2486 253.717 17.7756 253.187C17.3169 252.642 16.7364 252.205 16.0341 251.875C15.3318 251.546 14.5148 251.381 13.5831 251.381C12.8521 251.381 12.1928 251.431 11.6051 251.531C11.0174 251.617 10.4943 251.732 10.0356 251.875C9.57694 252.019 9.1756 252.176 8.8316 252.348C8.50194 252.506 8.2296 252.657 8.0146 252.8H5.3486V237.75H21.5381V241.19H9.8206V248.887Z" fill="white"/>
<path d="M20.6351 206.104C20.5348 206.075 20.3843 206.061 20.1836 206.061C19.9973 206.047 19.8253 206.039 19.6676 206.039C18.6356 206.039 17.6323 206.204 16.6576 206.534C15.6829 206.849 14.7656 207.301 13.9056 207.888C13.0456 208.476 12.2501 209.178 11.5191 209.995C10.8024 210.812 10.1646 211.715 9.6056 212.704C9.06094 213.679 8.60944 214.725 8.2511 215.843C7.89277 216.961 7.65627 218.115 7.5416 219.305L9.3261 216.789C9.68444 216.56 10.1001 216.345 10.5731 216.144C11.0604 215.929 11.5693 215.743 12.0996 215.585C12.6299 215.428 13.1674 215.306 13.7121 215.22C14.2568 215.12 14.7728 215.069 15.2601 215.069C16.5071 215.069 17.7039 215.241 18.8506 215.585C20.0116 215.929 21.0364 216.46 21.9251 217.176C22.8281 217.893 23.5448 218.818 24.0751 219.95C24.6198 221.068 24.8921 222.408 24.8921 223.97C24.8921 225.518 24.6269 226.988 24.0966 228.378C23.5806 229.754 22.8496 230.965 21.9036 232.011C20.9576 233.043 19.8253 233.86 18.5066 234.462C17.1879 235.065 15.7259 235.366 14.1206 235.366C12.7159 235.366 11.4689 235.143 10.3796 234.699C9.3046 234.24 8.36577 233.638 7.5631 232.893C6.76044 232.148 6.08677 231.295 5.5421 230.334C5.01177 229.374 4.5746 228.392 4.2306 227.389C3.90094 226.371 3.66444 225.368 3.5211 224.379C3.37777 223.39 3.3061 222.487 3.3061 221.67C3.3061 219.964 3.4781 218.302 3.8221 216.682C4.18044 215.062 4.68927 213.543 5.3486 212.124C6.02227 210.691 6.83927 209.379 7.7996 208.189C8.75994 206.985 9.84927 205.961 11.0676 205.115C12.3003 204.255 13.6476 203.588 15.1096 203.115C16.5859 202.628 18.1698 202.384 19.8611 202.384C20.0761 202.384 20.3126 202.392 20.5706 202.406C20.8286 202.406 21.0293 202.42 21.1726 202.449L20.6351 206.104ZM7.7351 222.164C7.7351 222.566 7.7351 222.931 7.7351 223.261C7.74944 223.591 7.77094 223.913 7.7996 224.228C7.82827 224.544 7.87127 224.866 7.9286 225.196C7.98594 225.511 8.06477 225.862 8.1651 226.249C8.36577 227.066 8.6381 227.812 8.9821 228.485C9.34044 229.145 9.76327 229.718 10.2506 230.205C10.7523 230.678 11.3256 231.051 11.9706 231.323C12.6299 231.581 13.3681 231.71 14.1851 231.71C15.3174 231.71 16.2778 231.495 17.0661 231.065C17.8688 230.635 18.5209 230.069 19.0226 229.367C19.5243 228.65 19.8898 227.84 20.1191 226.937C20.3628 226.034 20.4846 225.117 20.4846 224.185C20.4846 223.282 20.3484 222.487 20.0761 221.799C19.8181 221.111 19.4454 220.545 18.9581 220.1C18.4708 219.642 17.8831 219.298 17.1951 219.068C16.5214 218.839 15.7689 218.724 14.9376 218.724C14.1636 218.724 13.4111 218.818 12.6801 219.004C11.9491 219.19 11.2611 219.441 10.6161 219.756C9.98544 220.072 9.41927 220.437 8.9176 220.853C8.43027 221.269 8.0361 221.706 7.7351 222.164Z" fill="white"/>
<path d="M3.8221 167.75H24.0966V170.545C24.0966 171.161 23.8601 171.957 23.3871 172.931C22.9284 173.892 22.3408 174.974 21.6241 176.178C20.9074 177.382 20.1191 178.679 19.2591 180.069C18.4134 181.445 17.6036 182.864 16.8296 184.326C16.0699 185.774 15.4034 187.229 14.8301 188.691C14.2568 190.153 13.8913 191.565 13.7336 192.926C13.6619 193.514 13.6046 194.123 13.5616 194.754C13.5329 195.37 13.5043 195.987 13.4756 196.603C13.4613 197.219 13.4541 197.821 13.4541 198.409V200H9.0466C9.0466 199.57 9.0466 198.997 9.0466 198.28C9.06094 197.549 9.08244 196.782 9.1111 195.979C9.13977 195.177 9.18994 194.381 9.2616 193.593C9.33327 192.805 9.42644 192.131 9.5411 191.572C9.87077 190.038 10.3366 188.533 10.9386 187.057C11.5549 185.566 12.2214 184.14 12.9381 182.778C13.6691 181.402 14.4144 180.105 15.1741 178.887C15.9338 177.669 16.6218 176.565 17.2381 175.576C17.8544 174.573 18.3561 173.698 18.7431 172.953C19.1444 172.208 19.3451 171.62 19.3451 171.19H3.8221V167.75Z" fill="white"/>
<path d="M13.5831 132.384C14.8874 132.384 16.0986 132.564 17.2166 132.922C18.3346 133.28 19.2949 133.796 20.0976 134.47C20.9146 135.144 21.5524 135.961 22.0111 136.921C22.4698 137.881 22.6991 138.963 22.6991 140.167C22.6991 141.013 22.5701 141.766 22.3121 142.425C22.0684 143.084 21.7316 143.679 21.3016 144.209C20.8716 144.725 20.3699 145.198 19.7966 145.628C19.2376 146.044 18.6428 146.438 18.0121 146.811C19.0728 147.284 20.0188 147.829 20.8501 148.445C21.6958 149.047 22.4053 149.735 22.9786 150.509C23.5663 151.269 24.0106 152.121 24.3116 153.067C24.6269 154.013 24.7846 155.053 24.7846 156.185C24.7846 157.776 24.4693 159.152 23.8386 160.313C23.2079 161.46 22.3694 162.413 21.3231 163.172C20.2911 163.918 19.1086 164.47 17.7756 164.828C16.4569 165.186 15.1024 165.366 13.7121 165.366C12.3504 165.366 11.0389 165.165 9.7776 164.763C8.51627 164.348 7.39827 163.746 6.4236 162.957C5.46327 162.155 4.68927 161.166 4.1016 159.99C3.51394 158.801 3.2201 157.432 3.2201 155.884C3.2201 154.737 3.38493 153.698 3.7146 152.766C4.04427 151.835 4.49577 150.996 5.0691 150.251C5.64244 149.506 6.32327 148.846 7.1116 148.273C7.89994 147.685 8.75277 147.169 9.6701 146.725C8.99644 146.309 8.36577 145.879 7.7781 145.435C7.20477 144.991 6.69594 144.518 6.2516 144.016C5.8216 143.5 5.4776 142.948 5.2196 142.36C4.97594 141.773 4.8541 141.121 4.8541 140.404C4.8541 139.014 5.12644 137.817 5.6711 136.813C6.2301 135.796 6.9396 134.964 7.7996 134.319C8.6596 133.66 9.59844 133.173 10.6161 132.857C11.6481 132.542 12.6371 132.384 13.5831 132.384ZM13.3466 148.66C12.4436 149.047 11.6266 149.477 10.8956 149.95C10.1789 150.409 9.5626 150.939 9.0466 151.541C8.54494 152.129 8.15077 152.802 7.8641 153.562C7.59177 154.307 7.4556 155.153 7.4556 156.099C7.4556 156.959 7.6276 157.74 7.9716 158.442C8.32994 159.145 8.79577 159.754 9.3691 160.27C9.95677 160.772 10.6304 161.159 11.3901 161.431C12.1498 161.703 12.9309 161.84 13.7336 161.84C14.6509 161.84 15.5181 161.718 16.3351 161.474C17.1664 161.216 17.8903 160.843 18.5066 160.356C19.1373 159.869 19.6318 159.267 19.9901 158.55C20.3484 157.833 20.5276 157.009 20.5276 156.077C20.5276 155.117 20.3126 154.264 19.8826 153.519C19.4669 152.759 18.9151 152.086 18.2271 151.498C17.5534 150.896 16.7866 150.366 15.9266 149.907C15.0809 149.448 14.2209 149.033 13.3466 148.66ZM14.2281 145.155C15.5468 144.568 16.5931 143.858 17.3671 143.027C18.1554 142.196 18.5496 141.185 18.5496 139.995C18.5496 139.279 18.3991 138.662 18.0981 138.146C17.8114 137.63 17.4459 137.208 17.0016 136.878C16.5573 136.548 16.0628 136.312 15.5181 136.168C14.9878 136.011 14.4789 135.932 13.9916 135.932C13.3466 135.932 12.7231 136.032 12.1211 136.233C11.5191 136.419 10.9888 136.692 10.5301 137.05C10.0714 137.408 9.69877 137.831 9.4121 138.318C9.13977 138.806 9.0036 139.336 9.0036 139.909C9.0036 140.569 9.13977 141.156 9.4121 141.672C9.69877 142.174 10.0786 142.633 10.5516 143.048C11.0389 143.45 11.5979 143.822 12.2286 144.166C12.8593 144.51 13.5258 144.84 14.2281 145.155Z" fill="white"/>
<path d="M18.7001 115.745C17.8544 116.405 17.0016 116.892 16.1416 117.207C15.2959 117.523 14.3356 117.68 13.2606 117.68C11.8559 117.68 10.5444 117.451 9.3261 116.992C8.10777 116.519 7.0471 115.853 6.1441 114.993C5.2411 114.133 4.5316 113.101 4.0156 111.897C3.4996 110.679 3.2416 109.324 3.2416 107.833C3.2416 106.285 3.48527 104.874 3.9726 103.598C4.47427 102.322 5.1766 101.226 6.0796 100.308C6.99694 99.3768 8.1006 98.6602 9.3906 98.1585C10.6949 97.6425 12.1498 97.3845 13.7551 97.3845C15.1884 97.3845 16.4498 97.6067 17.5391 98.051C18.6428 98.4953 19.5959 99.083 20.3986 99.814C21.2013 100.545 21.8678 101.383 22.3981 102.329C22.9428 103.275 23.3728 104.257 23.6881 105.275C24.0178 106.293 24.2471 107.303 24.3761 108.306C24.5194 109.31 24.5911 110.234 24.5911 111.08C24.5911 112.743 24.4191 114.369 24.0751 115.96C23.7454 117.537 23.2509 119.028 22.5916 120.432C21.9466 121.837 21.1511 123.134 20.2051 124.324C19.2591 125.499 18.1769 126.524 16.9586 127.398C15.7546 128.273 14.4216 128.968 12.9596 129.484C11.4976 130 9.92094 130.294 8.2296 130.366L7.5631 126.775C9.2831 126.689 10.8956 126.28 12.4006 125.549C13.9199 124.818 15.2529 123.851 16.3996 122.647C17.5606 121.429 18.4923 120.017 19.1946 118.411C19.9113 116.792 20.3198 115.065 20.4201 113.23L18.7001 115.745ZM20.1621 109.51C20.1191 108.435 19.9614 107.396 19.6891 106.393C19.4311 105.375 19.0441 104.472 18.5281 103.684C18.0121 102.881 17.3743 102.243 16.6146 101.77C15.8549 101.283 14.9591 101.039 13.9271 101.039C12.9524 101.039 12.0781 101.197 11.3041 101.512C10.5301 101.828 9.87077 102.265 9.3261 102.824C8.78144 103.383 8.3586 104.057 8.0576 104.845C7.77094 105.633 7.6276 106.5 7.6276 107.446C7.6276 108.378 7.74227 109.245 7.9716 110.048C8.21527 110.851 8.5736 111.546 9.0466 112.133C9.53394 112.721 10.1431 113.187 10.8741 113.531C11.6194 113.861 12.4866 114.025 13.4756 114.025C14.2353 114.025 14.9591 113.904 15.6471 113.66C16.3494 113.416 16.9873 113.094 17.5606 112.692C18.1483 112.277 18.6643 111.797 19.1086 111.252C19.5529 110.707 19.9041 110.127 20.1621 109.51Z" fill="white"/>
<path d="M14.0131 95.3655C12.7948 95.3655 11.6768 95.1362 10.6591 94.6775C9.64144 94.2045 8.7241 93.5667 7.9071 92.764C7.10444 91.9613 6.39494 91.0225 5.7786 89.9475C5.1766 88.8725 4.66777 87.7258 4.2521 86.5075C3.85077 85.2748 3.54977 84.0063 3.3491 82.702C3.14843 81.3977 3.0481 80.122 3.0481 78.875C3.0481 77.585 3.1341 76.2807 3.3061 74.962C3.4781 73.6433 3.75044 72.3748 4.1231 71.1565C4.49577 69.9382 4.96877 68.7987 5.5421 67.738C6.12977 66.663 6.82494 65.7313 7.6276 64.943C8.4446 64.1547 9.37627 63.5312 10.4226 63.0725C11.4833 62.6138 12.6801 62.3845 14.0131 62.3845C15.2314 62.3845 16.3494 62.621 17.3671 63.094C18.3848 63.5527 19.2949 64.1833 20.0976 64.986C20.9146 65.7887 21.6241 66.7275 22.2261 67.8025C22.8424 68.8775 23.3513 70.0313 23.7526 71.264C24.1683 72.4823 24.4764 73.7437 24.6771 75.048C24.8778 76.3523 24.9781 77.628 24.9781 78.875C24.9781 80.165 24.8921 81.4693 24.7201 82.788C24.5481 84.1067 24.2758 85.3752 23.9031 86.5935C23.5304 87.8118 23.0503 88.9585 22.4626 90.0335C21.8893 91.0942 21.1941 92.0187 20.3771 92.807C19.5744 93.5953 18.6428 94.2188 17.5821 94.6775C16.5214 95.1362 15.3318 95.3655 14.0131 95.3655ZM7.4986 77.9505C7.4986 78.7818 7.52727 79.6992 7.5846 80.7025C7.64194 81.6915 7.7566 82.6948 7.9286 83.7125C8.1006 84.7158 8.3371 85.6905 8.6381 86.6365C8.95344 87.5825 9.35477 88.4282 9.8421 89.1735C10.3438 89.9045 10.9458 90.4922 11.6481 90.9365C12.3648 91.3808 13.2104 91.603 14.1851 91.603C15.0594 91.603 15.8191 91.4382 16.4641 91.1085C17.1234 90.7645 17.6896 90.3058 18.1626 89.7325C18.6356 89.1448 19.0226 88.4712 19.3236 87.7115C19.6246 86.9375 19.8611 86.1133 20.0331 85.239C20.2194 84.3647 20.3484 83.4617 20.4201 82.53C20.4918 81.5983 20.5276 80.6882 20.5276 79.7995C20.5276 78.9682 20.4989 78.058 20.4416 77.069C20.3843 76.0657 20.2696 75.0623 20.0976 74.059C19.9256 73.0557 19.6819 72.081 19.3666 71.135C19.0656 70.1747 18.6643 69.329 18.1626 68.598C17.6753 67.867 17.0733 67.2793 16.3566 66.835C15.6543 66.3907 14.8158 66.1685 13.8411 66.1685C12.9668 66.1685 12.1999 66.3405 11.5406 66.6845C10.8956 67.0142 10.3366 67.4657 9.8636 68.039C9.3906 68.6123 9.0036 69.286 8.7026 70.06C8.4016 70.834 8.15794 71.6582 7.9716 72.5325C7.7996 73.4068 7.67777 74.3098 7.6061 75.2415C7.53444 76.1588 7.4986 77.0618 7.4986 77.9505Z" fill="white"/>
<path d="M5.1336 60V56.56H12.5511V35.791L13.7981 30.9105L10.8741 34.9095L6.3161 38.9515L3.9941 36.35L13.8411 27.32L17.0661 27.75V56.56H24.4836V60H5.1336Z" fill="white"/>
</svg>
