<svg width="28" height="791" viewBox="0 0 28 791" fill="none" xmlns="http://www.w3.org/2000/svg">
<path d="M18.7001 765.745C17.8544 766.405 17.0016 766.892 16.1416 767.207C15.2959 767.523 14.3356 767.68 13.2606 767.68C11.8559 767.68 10.5444 767.451 9.3261 766.992C8.10777 766.519 7.0471 765.853 6.1441 764.993C5.2411 764.133 4.5316 763.101 4.0156 761.897C3.4996 760.679 3.2416 759.324 3.2416 757.833C3.2416 756.285 3.48527 754.874 3.9726 753.598C4.47427 752.322 5.1766 751.226 6.0796 750.308C6.99694 749.377 8.1006 748.66 9.3906 748.158C10.6949 747.642 12.1498 747.384 13.7551 747.384C15.1884 747.384 16.4498 747.607 17.5391 748.051C18.6428 748.495 19.5959 749.083 20.3986 749.814C21.2013 750.545 21.8678 751.383 22.3981 752.329C22.9428 753.275 23.3728 754.257 23.6881 755.275C24.0178 756.293 24.2471 757.303 24.3761 758.306C24.5194 759.31 24.5911 760.234 24.5911 761.08C24.5911 762.743 24.4191 764.369 24.0751 765.96C23.7454 767.537 23.2509 769.028 22.5916 770.432C21.9466 771.837 21.1511 773.134 20.2051 774.324C19.2591 775.499 18.1769 776.524 16.9586 777.398C15.7546 778.273 14.4216 778.968 12.9596 779.484C11.4976 780 9.92094 780.294 8.2296 780.366L7.5631 776.775C9.2831 776.689 10.8956 776.28 12.4006 775.549C13.9199 774.818 15.2529 773.851 16.3996 772.647C17.5606 771.429 18.4923 770.017 19.1946 768.411C19.9113 766.792 20.3198 765.065 20.4201 763.23L18.7001 765.745ZM20.1621 759.51C20.1191 758.435 19.9614 757.396 19.6891 756.393C19.4311 755.375 19.0441 754.472 18.5281 753.684C18.0121 752.881 17.3743 752.243 16.6146 751.77C15.8549 751.283 14.9591 751.039 13.9271 751.039C12.9524 751.039 12.0781 751.197 11.3041 751.512C10.5301 751.828 9.87077 752.265 9.3261 752.824C8.78144 753.383 8.3586 754.057 8.0576 754.845C7.77094 755.633 7.6276 756.5 7.6276 757.446C7.6276 758.378 7.74227 759.245 7.9716 760.048C8.21527 760.851 8.5736 761.546 9.0466 762.133C9.53394 762.721 10.1431 763.187 10.8741 763.531C11.6194 763.861 12.4866 764.025 13.4756 764.025C14.2353 764.025 14.9591 763.904 15.6471 763.66C16.3494 763.416 16.9873 763.094 17.5606 762.692C18.1483 762.277 18.6643 761.797 19.1086 761.252C19.5529 760.707 19.9041 760.127 20.1621 759.51Z" fill="white"/>
<path d="M14.0131 720.366C12.7948 720.366 11.6768 720.136 10.6591 719.677C9.64144 719.204 8.7241 718.567 7.9071 717.764C7.10444 716.961 6.39494 716.022 5.7786 714.947C5.1766 713.872 4.66777 712.726 4.2521 711.507C3.85077 710.275 3.54977 709.006 3.3491 707.702C3.14843 706.398 3.0481 705.122 3.0481 703.875C3.0481 702.585 3.1341 701.281 3.3061 699.962C3.4781 698.643 3.75044 697.375 4.1231 696.156C4.49577 694.938 4.96877 693.799 5.5421 692.738C6.12977 691.663 6.82494 690.731 7.6276 689.943C8.4446 689.155 9.37627 688.531 10.4226 688.072C11.4833 687.614 12.6801 687.384 14.0131 687.384C15.2314 687.384 16.3494 687.621 17.3671 688.094C18.3848 688.553 19.2949 689.183 20.0976 689.986C20.9146 690.789 21.6241 691.727 22.2261 692.802C22.8424 693.877 23.3513 695.031 23.7526 696.264C24.1683 697.482 24.4764 698.744 24.6771 700.048C24.8778 701.352 24.9781 702.628 24.9781 703.875C24.9781 705.165 24.8921 706.469 24.7201 707.788C24.5481 709.107 24.2758 710.375 23.9031 711.593C23.5304 712.812 23.0503 713.958 22.4626 715.033C21.8893 716.094 21.1941 717.019 20.3771 717.807C19.5744 718.595 18.6428 719.219 17.5821 719.677C16.5214 720.136 15.3318 720.366 14.0131 720.366ZM7.4986 702.95C7.4986 703.782 7.52727 704.699 7.5846 705.702C7.64194 706.691 7.7566 707.695 7.9286 708.712C8.1006 709.716 8.3371 710.69 8.6381 711.636C8.95344 712.582 9.35477 713.428 9.8421 714.173C10.3438 714.904 10.9458 715.492 11.6481 715.936C12.3648 716.381 13.2104 716.603 14.1851 716.603C15.0594 716.603 15.8191 716.438 16.4641 716.108C17.1234 715.764 17.6896 715.306 18.1626 714.732C18.6356 714.145 19.0226 713.471 19.3236 712.711C19.6246 711.937 19.8611 711.113 20.0331 710.239C20.2194 709.365 20.3484 708.462 20.4201 707.53C20.4918 706.598 20.5276 705.688 20.5276 704.799C20.5276 703.968 20.4989 703.058 20.4416 702.069C20.3843 701.066 20.2696 700.062 20.0976 699.059C19.9256 698.056 19.6819 697.081 19.3666 696.135C19.0656 695.175 18.6643 694.329 18.1626 693.598C17.6753 692.867 17.0733 692.279 16.3566 691.835C15.6543 691.391 14.8158 691.168 13.8411 691.168C12.9668 691.168 12.1999 691.34 11.5406 691.684C10.8956 692.014 10.3366 692.466 9.8636 693.039C9.3906 693.612 9.0036 694.286 8.7026 695.06C8.4016 695.834 8.15794 696.658 7.9716 697.532C7.7996 698.407 7.67777 699.31 7.6061 700.241C7.53444 701.159 7.4986 702.062 7.4986 702.95Z" fill="white"/>
<path d="M5.1336 660V656.56H12.5511V635.791L13.7981 630.91L10.8741 634.909L6.3161 638.951L3.9941 636.35L13.8411 627.32L17.0661 627.75V656.56H24.4836V660H5.1336Z" fill="white"/>
<path d="M3.9511 600V596.388C4.61044 595.342 5.3271 594.31 6.1011 593.292C6.8751 592.274 7.65627 591.292 8.4446 590.346C9.24727 589.386 10.0284 588.476 10.7881 587.616C11.5478 586.742 12.2501 585.939 12.8951 585.208C13.6404 584.348 14.3571 583.56 15.0451 582.843C15.7474 582.112 16.3638 581.395 16.8941 580.693C17.4244 579.991 17.8473 579.267 18.1626 578.521C18.4779 577.762 18.6356 576.93 18.6356 576.027C18.6356 575.339 18.5066 574.694 18.2486 574.092C17.9906 573.476 17.6251 572.946 17.1521 572.501C16.6934 572.043 16.1416 571.684 15.4966 571.426C14.8516 571.154 14.1421 571.018 13.3681 571.018C12.4938 571.018 11.7341 571.14 11.0891 571.383C10.4584 571.613 9.89944 571.921 9.4121 572.308C8.9391 572.695 8.52344 573.132 8.1651 573.619C7.8211 574.092 7.4986 574.573 7.1976 575.06L4.1661 573.77C4.53877 572.838 5.01177 571.985 5.5851 571.211C6.17277 570.423 6.86077 569.749 7.6491 569.19C8.43744 568.617 9.33327 568.173 10.3366 567.857C11.3399 567.542 12.4579 567.384 13.6906 567.384C15.1383 567.384 16.4283 567.642 17.5606 568.158C18.6929 568.674 19.6461 569.355 20.4201 570.201C21.2084 571.032 21.8033 571.978 22.2046 573.039C22.6203 574.1 22.8281 575.175 22.8281 576.264C22.8281 577.368 22.6203 578.421 22.2046 579.424C21.8033 580.413 21.2944 581.359 20.6781 582.262C20.0761 583.151 19.4239 583.99 18.7216 584.778C18.0193 585.566 17.3743 586.304 16.7866 586.992C16.0413 587.867 15.2959 588.727 14.5506 589.572C13.8053 590.418 13.0886 591.249 12.4006 592.066C11.7269 592.869 11.0963 593.65 10.5086 594.41C9.92094 595.155 9.4121 595.872 8.9821 596.56H24.0321V600H3.9511Z" fill="white"/>
<path d="M4.8971 511.19L5.2196 507.75H21.9896V510.76C21.8176 511.333 21.5238 511.935 21.1081 512.566C20.7068 513.182 20.2266 513.813 19.6676 514.458C19.1229 515.089 18.5209 515.712 17.8616 516.328C17.2166 516.945 16.5644 517.532 15.9051 518.091L13.0671 519.682C13.2104 519.654 13.3896 519.639 13.6046 519.639C13.8339 519.625 14.0489 519.618 14.2496 519.618C15.6399 519.618 16.9299 519.79 18.1196 520.134C19.3236 520.478 20.3628 521.001 21.2371 521.703C22.1258 522.391 22.8209 523.273 23.3226 524.348C23.8386 525.409 24.0966 526.663 24.0966 528.11C24.0966 529.501 23.8386 530.762 23.3226 531.894C22.8066 533.027 22.0971 534.037 21.1941 534.926C20.3054 535.8 19.2591 536.56 18.0551 537.205C16.8511 537.836 15.5611 538.359 14.1851 538.774C12.8234 539.19 11.4116 539.498 9.9496 539.699C8.4876 539.9 7.05427 540 5.6496 540V536.56C6.83927 536.517 8.00744 536.409 9.1541 536.237C10.3008 536.065 11.3901 535.829 12.4221 535.528C13.4541 535.213 14.4073 534.833 15.2816 534.388C16.1559 533.944 16.9084 533.428 17.5391 532.84C18.1841 532.238 18.6858 531.565 19.0441 530.819C19.4024 530.06 19.5816 529.228 19.5816 528.325C19.5816 527.293 19.3594 526.433 18.9151 525.745C18.4851 525.057 17.8903 524.513 17.1306 524.111C16.3709 523.71 15.4751 523.431 14.4431 523.273C13.4254 523.101 12.3289 523.015 11.1536 523.015C10.6949 523.015 10.1933 523.029 9.6486 523.058C9.11827 523.072 8.6381 523.094 8.2081 523.122V519.79C8.79577 519.36 9.4336 518.873 10.1216 518.328C10.8096 517.783 11.5048 517.217 12.2071 516.629C12.9094 516.027 13.5903 515.425 14.2496 514.823C14.9233 514.207 15.5324 513.627 16.0771 513.082C16.6218 512.523 17.0804 512.007 17.4531 511.534C17.8258 511.047 18.0694 510.645 18.1841 510.33L14.9161 511.19H4.8971Z" fill="white"/>
<path d="M24.4406 473.55H20.5706V480H16.0556V473.55H3.2631V469.873L13.6691 447.32L17.7326 447.75L8.8101 467.1L6.8106 470.11H16.0556V461.359L20.5706 461.725V470.11H24.7631L24.4406 473.55Z" fill="white"/>
<path d="M9.8206 398.887C9.92094 398.83 10.0929 398.736 10.3366 398.607C10.5946 398.478 10.9099 398.349 11.2826 398.22C11.6553 398.091 12.0781 397.984 12.5511 397.898C13.0384 397.798 13.5759 397.747 14.1636 397.747C15.6543 397.747 16.9801 397.984 18.1411 398.457C19.3164 398.916 20.3054 399.553 21.1081 400.37C21.9251 401.173 22.5414 402.119 22.9571 403.208C23.3871 404.298 23.6021 405.459 23.6021 406.691C23.6021 408.139 23.3441 409.479 22.8281 410.712C22.3121 411.93 21.6026 413.034 20.6996 414.023C19.8109 414.998 18.7646 415.858 17.5606 416.603C16.3709 417.348 15.0953 417.979 13.7336 418.495C12.3863 418.997 10.9959 419.376 9.5626 419.634C8.12927 419.878 6.7246 420 5.3486 420V416.56C6.4236 416.531 7.51294 416.402 8.6166 416.173C9.72027 415.944 10.7809 415.628 11.7986 415.227C12.8306 414.826 13.7909 414.345 14.6796 413.786C15.5826 413.227 16.3638 412.604 17.0231 411.916C17.6968 411.228 18.2271 410.483 18.6141 409.68C19.0011 408.877 19.1946 408.032 19.1946 407.143C19.1946 406.412 19.0728 405.702 18.8291 405.014C18.5998 404.326 18.2486 403.717 17.7756 403.187C17.3169 402.642 16.7364 402.205 16.0341 401.875C15.3318 401.546 14.5148 401.381 13.5831 401.381C12.8521 401.381 12.1928 401.431 11.6051 401.531C11.0174 401.617 10.4943 401.732 10.0356 401.875C9.57694 402.019 9.1756 402.176 8.8316 402.348C8.50194 402.506 8.2296 402.657 8.0146 402.8H5.3486V387.75H21.5381V391.19H9.8206V398.887Z" fill="white"/>
<path d="M20.6351 331.104C20.5348 331.075 20.3843 331.061 20.1836 331.061C19.9973 331.047 19.8253 331.039 19.6676 331.039C18.6356 331.039 17.6323 331.204 16.6576 331.534C15.6829 331.849 14.7656 332.301 13.9056 332.888C13.0456 333.476 12.2501 334.178 11.5191 334.995C10.8024 335.812 10.1646 336.715 9.6056 337.704C9.06094 338.679 8.60944 339.725 8.2511 340.843C7.89277 341.961 7.65627 343.115 7.5416 344.305L9.3261 341.789C9.68444 341.56 10.1001 341.345 10.5731 341.144C11.0604 340.929 11.5693 340.743 12.0996 340.585C12.6299 340.428 13.1674 340.306 13.7121 340.22C14.2568 340.12 14.7728 340.069 15.2601 340.069C16.5071 340.069 17.7039 340.241 18.8506 340.585C20.0116 340.929 21.0364 341.46 21.9251 342.176C22.8281 342.893 23.5448 343.818 24.0751 344.95C24.6198 346.068 24.8921 347.408 24.8921 348.97C24.8921 350.518 24.6269 351.988 24.0966 353.378C23.5806 354.754 22.8496 355.965 21.9036 357.011C20.9576 358.043 19.8253 358.86 18.5066 359.462C17.1879 360.065 15.7259 360.366 14.1206 360.366C12.7159 360.366 11.4689 360.143 10.3796 359.699C9.3046 359.24 8.36577 358.638 7.5631 357.893C6.76044 357.148 6.08677 356.295 5.5421 355.334C5.01177 354.374 4.5746 353.392 4.2306 352.389C3.90094 351.371 3.66444 350.368 3.5211 349.379C3.37777 348.39 3.3061 347.487 3.3061 346.67C3.3061 344.964 3.4781 343.302 3.8221 341.682C4.18044 340.062 4.68927 338.543 5.3486 337.124C6.02227 335.691 6.83927 334.379 7.7996 333.189C8.75994 331.985 9.84927 330.961 11.0676 330.115C12.3003 329.255 13.6476 328.588 15.1096 328.115C16.5859 327.628 18.1698 327.384 19.8611 327.384C20.0761 327.384 20.3126 327.392 20.5706 327.406C20.8286 327.406 21.0293 327.42 21.1726 327.449L20.6351 331.104ZM7.7351 347.164C7.7351 347.566 7.7351 347.931 7.7351 348.261C7.74944 348.591 7.77094 348.913 7.7996 349.228C7.82827 349.544 7.87127 349.866 7.9286 350.196C7.98594 350.511 8.06477 350.862 8.1651 351.249C8.36577 352.066 8.6381 352.812 8.9821 353.485C9.34044 354.145 9.76327 354.718 10.2506 355.205C10.7523 355.678 11.3256 356.051 11.9706 356.323C12.6299 356.581 13.3681 356.71 14.1851 356.71C15.3174 356.71 16.2778 356.495 17.0661 356.065C17.8688 355.635 18.5209 355.069 19.0226 354.367C19.5243 353.65 19.8898 352.84 20.1191 351.937C20.3628 351.034 20.4846 350.117 20.4846 349.185C20.4846 348.282 20.3484 347.487 20.0761 346.799C19.8181 346.111 19.4454 345.545 18.9581 345.1C18.4708 344.642 17.8831 344.298 17.1951 344.068C16.5214 343.839 15.7689 343.724 14.9376 343.724C14.1636 343.724 13.4111 343.818 12.6801 344.004C11.9491 344.19 11.2611 344.441 10.6161 344.756C9.98544 345.072 9.41927 345.437 8.9176 345.853C8.43027 346.269 8.0361 346.706 7.7351 347.164Z" fill="white"/>
<path d="M3.8221 267.75H24.0966V270.545C24.0966 271.161 23.8601 271.957 23.3871 272.931C22.9284 273.892 22.3408 274.974 21.6241 276.178C20.9074 277.382 20.1191 278.679 19.2591 280.069C18.4134 281.445 17.6036 282.864 16.8296 284.326C16.0699 285.774 15.4034 287.229 14.8301 288.691C14.2568 290.153 13.8913 291.565 13.7336 292.926C13.6619 293.514 13.6046 294.123 13.5616 294.754C13.5329 295.37 13.5043 295.987 13.4756 296.603C13.4613 297.219 13.4541 297.821 13.4541 298.409V300H9.0466C9.0466 299.57 9.0466 298.997 9.0466 298.28C9.06094 297.549 9.08244 296.782 9.1111 295.979C9.13977 295.177 9.18994 294.381 9.2616 293.593C9.33327 292.805 9.42644 292.131 9.5411 291.572C9.87077 290.038 10.3366 288.533 10.9386 287.057C11.5549 285.566 12.2214 284.14 12.9381 282.778C13.6691 281.402 14.4144 280.105 15.1741 278.887C15.9338 277.669 16.6218 276.565 17.2381 275.576C17.8544 274.573 18.3561 273.698 18.7431 272.953C19.1444 272.208 19.3451 271.62 19.3451 271.19H3.8221V267.75Z" fill="white"/>
<path d="M13.5831 207.384C14.8874 207.384 16.0986 207.564 17.2166 207.922C18.3346 208.28 19.2949 208.796 20.0976 209.47C20.9146 210.144 21.5524 210.961 22.0111 211.921C22.4698 212.881 22.6991 213.963 22.6991 215.167C22.6991 216.013 22.5701 216.766 22.3121 217.425C22.0684 218.084 21.7316 218.679 21.3016 219.209C20.8716 219.725 20.3699 220.198 19.7966 220.628C19.2376 221.044 18.6428 221.438 18.0121 221.811C19.0728 222.284 20.0188 222.829 20.8501 223.445C21.6958 224.047 22.4053 224.735 22.9786 225.509C23.5663 226.269 24.0106 227.121 24.3116 228.067C24.6269 229.013 24.7846 230.053 24.7846 231.185C24.7846 232.776 24.4693 234.152 23.8386 235.313C23.2079 236.46 22.3694 237.413 21.3231 238.172C20.2911 238.918 19.1086 239.47 17.7756 239.828C16.4569 240.186 15.1024 240.366 13.7121 240.366C12.3504 240.366 11.0389 240.165 9.7776 239.763C8.51627 239.348 7.39827 238.746 6.4236 237.957C5.46327 237.155 4.68927 236.166 4.1016 234.99C3.51394 233.801 3.2201 232.432 3.2201 230.884C3.2201 229.737 3.38493 228.698 3.7146 227.766C4.04427 226.835 4.49577 225.996 5.0691 225.251C5.64244 224.506 6.32327 223.846 7.1116 223.273C7.89994 222.685 8.75277 222.169 9.6701 221.725C8.99644 221.309 8.36577 220.879 7.7781 220.435C7.20477 219.991 6.69594 219.518 6.2516 219.016C5.8216 218.5 5.4776 217.948 5.2196 217.36C4.97594 216.773 4.8541 216.121 4.8541 215.404C4.8541 214.014 5.12644 212.817 5.6711 211.813C6.2301 210.796 6.9396 209.964 7.7996 209.319C8.6596 208.66 9.59844 208.173 10.6161 207.857C11.6481 207.542 12.6371 207.384 13.5831 207.384ZM13.3466 223.66C12.4436 224.047 11.6266 224.477 10.8956 224.95C10.1789 225.409 9.5626 225.939 9.0466 226.541C8.54494 227.129 8.15077 227.802 7.8641 228.562C7.59177 229.307 7.4556 230.153 7.4556 231.099C7.4556 231.959 7.6276 232.74 7.9716 233.442C8.32994 234.145 8.79577 234.754 9.3691 235.27C9.95677 235.772 10.6304 236.159 11.3901 236.431C12.1498 236.703 12.9309 236.84 13.7336 236.84C14.6509 236.84 15.5181 236.718 16.3351 236.474C17.1664 236.216 17.8903 235.843 18.5066 235.356C19.1373 234.869 19.6318 234.267 19.9901 233.55C20.3484 232.833 20.5276 232.009 20.5276 231.077C20.5276 230.117 20.3126 229.264 19.8826 228.519C19.4669 227.759 18.9151 227.086 18.2271 226.498C17.5534 225.896 16.7866 225.366 15.9266 224.907C15.0809 224.448 14.2209 224.033 13.3466 223.66ZM14.2281 220.155C15.5468 219.568 16.5931 218.858 17.3671 218.027C18.1554 217.196 18.5496 216.185 18.5496 214.995C18.5496 214.279 18.3991 213.662 18.0981 213.146C17.8114 212.63 17.4459 212.208 17.0016 211.878C16.5573 211.548 16.0628 211.312 15.5181 211.168C14.9878 211.011 14.4789 210.932 13.9916 210.932C13.3466 210.932 12.7231 211.032 12.1211 211.233C11.5191 211.419 10.9888 211.692 10.5301 212.05C10.0714 212.408 9.69877 212.831 9.4121 213.318C9.13977 213.806 9.0036 214.336 9.0036 214.909C9.0036 215.569 9.13977 216.156 9.4121 216.672C9.69877 217.174 10.0786 217.633 10.5516 218.048C11.0389 218.45 11.5979 218.822 12.2286 219.166C12.8593 219.51 13.5258 219.84 14.2281 220.155Z" fill="white"/>
<path d="M18.7001 165.745C17.8544 166.405 17.0016 166.892 16.1416 167.207C15.2959 167.523 14.3356 167.68 13.2606 167.68C11.8559 167.68 10.5444 167.451 9.3261 166.992C8.10777 166.519 7.0471 165.853 6.1441 164.993C5.2411 164.133 4.5316 163.101 4.0156 161.897C3.4996 160.679 3.2416 159.324 3.2416 157.833C3.2416 156.285 3.48527 154.874 3.9726 153.598C4.47427 152.322 5.1766 151.226 6.0796 150.308C6.99694 149.377 8.1006 148.66 9.3906 148.158C10.6949 147.642 12.1498 147.384 13.7551 147.384C15.1884 147.384 16.4498 147.607 17.5391 148.051C18.6428 148.495 19.5959 149.083 20.3986 149.814C21.2013 150.545 21.8678 151.383 22.3981 152.329C22.9428 153.275 23.3728 154.257 23.6881 155.275C24.0178 156.293 24.2471 157.303 24.3761 158.306C24.5194 159.31 24.5911 160.234 24.5911 161.08C24.5911 162.743 24.4191 164.369 24.0751 165.96C23.7454 167.537 23.2509 169.028 22.5916 170.432C21.9466 171.837 21.1511 173.134 20.2051 174.324C19.2591 175.499 18.1769 176.524 16.9586 177.398C15.7546 178.273 14.4216 178.968 12.9596 179.484C11.4976 180 9.92094 180.294 8.2296 180.366L7.5631 176.775C9.2831 176.689 10.8956 176.28 12.4006 175.549C13.9199 174.818 15.2529 173.851 16.3996 172.647C17.5606 171.429 18.4923 170.017 19.1946 168.411C19.9113 166.792 20.3198 165.065 20.4201 163.23L18.7001 165.745ZM20.1621 159.51C20.1191 158.435 19.9614 157.396 19.6891 156.393C19.4311 155.375 19.0441 154.472 18.5281 153.684C18.0121 152.881 17.3743 152.243 16.6146 151.77C15.8549 151.283 14.9591 151.039 13.9271 151.039C12.9524 151.039 12.0781 151.197 11.3041 151.512C10.5301 151.828 9.87077 152.265 9.3261 152.824C8.78144 153.383 8.3586 154.057 8.0576 154.845C7.77094 155.633 7.6276 156.5 7.6276 157.446C7.6276 158.378 7.74227 159.245 7.9716 160.048C8.21527 160.851 8.5736 161.546 9.0466 162.133C9.53394 162.721 10.1431 163.187 10.8741 163.531C11.6194 163.861 12.4866 164.025 13.4756 164.025C14.2353 164.025 14.9591 163.904 15.6471 163.66C16.3494 163.416 16.9873 163.094 17.5606 162.692C18.1483 162.277 18.6643 161.797 19.1086 161.252C19.5529 160.707 19.9041 160.127 20.1621 159.51Z" fill="white"/>
<path d="M14.0131 120.366C12.7948 120.366 11.6768 120.136 10.6591 119.677C9.64144 119.204 8.7241 118.567 7.9071 117.764C7.10444 116.961 6.39494 116.022 5.7786 114.947C5.1766 113.872 4.66777 112.726 4.2521 111.507C3.85077 110.275 3.54977 109.006 3.3491 107.702C3.14843 106.398 3.0481 105.122 3.0481 103.875C3.0481 102.585 3.1341 101.281 3.3061 99.962C3.4781 98.6433 3.75044 97.3748 4.1231 96.1565C4.49577 94.9382 4.96877 93.7987 5.5421 92.738C6.12977 91.663 6.82494 90.7313 7.6276 89.943C8.4446 89.1547 9.37627 88.5312 10.4226 88.0725C11.4833 87.6138 12.6801 87.3845 14.0131 87.3845C15.2314 87.3845 16.3494 87.621 17.3671 88.094C18.3848 88.5527 19.2949 89.1833 20.0976 89.986C20.9146 90.7887 21.6241 91.7275 22.2261 92.8025C22.8424 93.8775 23.3513 95.0313 23.7526 96.264C24.1683 97.4823 24.4764 98.7437 24.6771 100.048C24.8778 101.352 24.9781 102.628 24.9781 103.875C24.9781 105.165 24.8921 106.469 24.7201 107.788C24.5481 109.107 24.2758 110.375 23.9031 111.593C23.5304 112.812 23.0503 113.958 22.4626 115.033C21.8893 116.094 21.1941 117.019 20.3771 117.807C19.5744 118.595 18.6428 119.219 17.5821 119.677C16.5214 120.136 15.3318 120.366 14.0131 120.366ZM7.4986 102.95C7.4986 103.782 7.52727 104.699 7.5846 105.702C7.64194 106.691 7.7566 107.695 7.9286 108.712C8.1006 109.716 8.3371 110.69 8.6381 111.636C8.95344 112.582 9.35477 113.428 9.8421 114.173C10.3438 114.904 10.9458 115.492 11.6481 115.936C12.3648 116.381 13.2104 116.603 14.1851 116.603C15.0594 116.603 15.8191 116.438 16.4641 116.108C17.1234 115.764 17.6896 115.306 18.1626 114.732C18.6356 114.145 19.0226 113.471 19.3236 112.711C19.6246 111.937 19.8611 111.113 20.0331 110.239C20.2194 109.365 20.3484 108.462 20.4201 107.53C20.4918 106.598 20.5276 105.688 20.5276 104.799C20.5276 103.968 20.4989 103.058 20.4416 102.069C20.3843 101.066 20.2696 100.062 20.0976 99.059C19.9256 98.0557 19.6819 97.081 19.3666 96.135C19.0656 95.1747 18.6643 94.329 18.1626 93.598C17.6753 92.867 17.0733 92.2793 16.3566 91.835C15.6543 91.3907 14.8158 91.1685 13.8411 91.1685C12.9668 91.1685 12.1999 91.3405 11.5406 91.6845C10.8956 92.0142 10.3366 92.4657 9.8636 93.039C9.3906 93.6123 9.0036 94.286 8.7026 95.06C8.4016 95.834 8.15794 96.6582 7.9716 97.5325C7.7996 98.4068 7.67777 99.3098 7.6061 100.241C7.53444 101.159 7.4986 102.062 7.4986 102.95Z" fill="white"/>
<path d="M5.1336 60V56.56H12.5511V35.791L13.7981 30.9105L10.8741 34.9095L6.3161 38.9515L3.9941 36.35L13.8411 27.32L17.0661 27.75V56.56H24.4836V60H5.1336Z" fill="white"/>
</svg>
