<svg width="140" height="104" viewBox="0 0 140 104" fill="none" xmlns="http://www.w3.org/2000/svg">
<g clip-path="url(#clip0_91_76)">
<mask id="path-1-inside-1_91_76" fill="white">
<path fill-rule="evenodd" clip-rule="evenodd" d="M140 104L14 104L14 75.3644L0 68L14 60.6356L14 32L140 32L140 104Z"/>
</mask>
<path fill-rule="evenodd" clip-rule="evenodd" d="M140 104L14 104L14 75.3644L0 68L14 60.6356L14 32L140 32L140 104Z" fill="black"/>
<path d="M14 104V107H11V104H14ZM140 104H143V107H140V104ZM14 75.3644L15.3966 72.7093L17 73.5528V75.3644H14ZM0 68L-1.39665 70.655L-6.44401 68L-1.39665 65.3449L0 68ZM14 60.6356L17 60.6356L17 62.4472L15.3966 63.2906L14 60.6356ZM14 32L11 32L11 29H14V32ZM140 32V29H143V32H140ZM14 101L140 101V107L14 107V101ZM17 75.3644L17 104H11L11 75.3644H17ZM1.39665 65.3449L15.3966 72.7093L12.6034 78.0195L-1.39665 70.655L1.39665 65.3449ZM15.3966 63.2906L1.39665 70.655L-1.39665 65.3449L12.6034 57.9805L15.3966 63.2906ZM17 32L17 60.6356L11 60.6356L11 32L17 32ZM140 35L14 35V29L140 29V35ZM137 104L137 32H143L143 104L137 104Z" fill="white" mask="url(#path-1-inside-1_91_76)"/>
<rect x="138.5" y="33.5" width="123" height="32" transform="rotate(-180 138.5 33.5)" fill="black" stroke="white" stroke-width="3"/>
<path d="M119.522 27H117.208V12.7L119.522 12.44V14.819C119.704 14.4723 119.843 14.2037 119.938 14.013C120.042 13.8137 120.116 13.6707 120.159 13.584C120.211 13.4887 120.241 13.4323 120.25 13.415L120.276 13.376C120.354 13.298 120.462 13.207 120.601 13.103C120.748 12.999 120.926 12.9037 121.134 12.817C121.342 12.7217 121.58 12.6437 121.849 12.583C122.118 12.5137 122.421 12.479 122.759 12.479C123.244 12.479 123.643 12.544 123.955 12.674C124.267 12.7953 124.523 12.9687 124.722 13.194C124.921 13.4107 125.077 13.675 125.19 13.987C125.303 14.299 125.407 14.637 125.502 15.001L126.321 13.441C126.408 13.363 126.546 13.2677 126.737 13.155C126.936 13.0423 127.162 12.9383 127.413 12.843C127.673 12.739 127.946 12.6523 128.232 12.583C128.518 12.5137 128.8 12.479 129.077 12.479C129.736 12.479 130.256 12.5917 130.637 12.817C131.027 13.0337 131.317 13.35 131.508 13.766C131.707 14.182 131.833 14.6847 131.885 15.274C131.946 15.8633 131.976 16.522 131.976 17.25V27H129.662V17.38C129.662 16.912 129.653 16.5047 129.636 16.158C129.627 15.8027 129.575 15.508 129.48 15.274C129.393 15.0313 129.25 14.8537 129.051 14.741C128.86 14.6197 128.587 14.559 128.232 14.559C128.059 14.559 127.846 14.6153 127.595 14.728C127.344 14.832 127.092 14.9707 126.841 15.144C126.598 15.3087 126.369 15.4993 126.152 15.716C125.944 15.924 125.797 16.1363 125.71 16.353C125.71 16.405 125.71 16.4917 125.71 16.613C125.719 16.7257 125.723 16.847 125.723 16.977C125.732 17.0983 125.736 17.2153 125.736 17.328V27H123.409V17.64C123.409 17.172 123.4 16.7473 123.383 16.366C123.366 15.9847 123.309 15.664 123.214 15.404C123.127 15.1353 122.98 14.9273 122.772 14.78C122.573 14.6327 122.287 14.559 121.914 14.559C121.775 14.559 121.598 14.598 121.381 14.676C121.164 14.754 120.939 14.871 120.705 15.027C120.48 15.1743 120.259 15.3563 120.042 15.573C119.834 15.781 119.661 16.0193 119.522 16.288V27Z" fill="#00FFFF"/>
</g>
<defs>
<clipPath id="clip0_91_76">
<rect width="140" height="104" fill="white" transform="matrix(1 0 0 -1 0 104)"/>
</clipPath>
</defs>
</svg>
