<svg width="19" height="594" viewBox="0 0 19 594" fill="none" xmlns="http://www.w3.org/2000/svg">
<g clip-path="url(#clip0_94_142)">
<path d="M9.50884 92.2465C8.68717 92.2465 7.93317 92.0918 7.24684 91.7825C6.5605 91.4635 5.94184 91.0333 5.39084 90.492C4.8495 89.9507 4.371 89.3175 3.95534 88.5925C3.54934 87.8675 3.20617 87.0942 2.92584 86.2725C2.65517 85.4412 2.45217 84.5857 2.31684 83.706C2.1815 82.8263 2.11384 81.966 2.11384 81.125C2.11384 80.255 2.17184 79.3753 2.28784 78.486C2.40384 77.5967 2.5875 76.7412 2.83884 75.9195C3.09017 75.0978 3.40917 74.3293 3.79584 73.614C4.19217 72.889 4.661 72.2607 5.20234 71.729C5.75334 71.1973 6.38167 70.7768 7.08734 70.4675C7.80267 70.1582 8.60984 70.0035 9.50884 70.0035C10.3305 70.0035 11.0845 70.163 11.7708 70.482C12.4572 70.7913 13.071 71.2167 13.6123 71.758C14.1633 72.2993 14.6418 72.9325 15.0478 73.6575C15.4635 74.3825 15.8067 75.1607 16.0773 75.992C16.3577 76.8137 16.5655 77.6643 16.7008 78.544C16.8362 79.4237 16.9038 80.284 16.9038 81.125C16.9038 81.995 16.8458 82.8747 16.7298 83.764C16.6138 84.6533 16.4302 85.5088 16.1788 86.3305C15.9275 87.1522 15.6037 87.9255 15.2073 88.6505C14.8207 89.3658 14.3518 89.9893 13.8008 90.521C13.2595 91.0527 12.6312 91.4732 11.9158 91.7825C11.2005 92.0918 10.3982 92.2465 9.50884 92.2465ZM5.11534 80.5015C5.11534 81.0622 5.13467 81.6808 5.17334 82.3575C5.212 83.0245 5.28934 83.7012 5.40534 84.3875C5.52134 85.0642 5.68084 85.7215 5.88384 86.3595C6.0965 86.9975 6.36717 87.5678 6.69584 88.0705C7.03417 88.5635 7.44017 88.9598 7.91384 89.2595C8.39717 89.5592 8.9675 89.709 9.62484 89.709C10.2145 89.709 10.7268 89.5978 11.1618 89.3755C11.6065 89.1435 11.9883 88.8342 12.3073 88.4475C12.6263 88.0512 12.8873 87.5968 13.0903 87.0845C13.2933 86.5625 13.4528 86.0067 13.5688 85.417C13.6945 84.8273 13.7815 84.2183 13.8298 83.59C13.8782 82.9617 13.9023 82.3478 13.9023 81.7485C13.9023 81.1878 13.883 80.574 13.8443 79.907C13.8057 79.2303 13.7283 78.5537 13.6123 77.877C13.4963 77.2003 13.332 76.543 13.1193 75.905C12.9163 75.2573 12.6457 74.687 12.3073 74.194C11.9787 73.701 11.5727 73.3047 11.0893 73.005C10.6157 72.7053 10.0502 72.5555 9.39284 72.5555C8.80317 72.5555 8.286 72.6715 7.84134 72.9035C7.40634 73.1258 7.02934 73.4303 6.71034 73.817C6.39134 74.2037 6.13034 74.658 5.92734 75.18C5.72434 75.702 5.56 76.2578 5.43434 76.8475C5.31834 77.4372 5.23617 78.0462 5.18784 78.6745C5.1395 79.2932 5.11534 79.9022 5.11534 80.5015Z" fill="white"/>
<path d="M12.6698 127.386C12.0995 127.831 11.5243 128.16 10.9443 128.372C10.374 128.585 9.72634 128.691 9.00134 128.691C8.054 128.691 7.1695 128.537 6.34784 128.227C5.52617 127.908 4.81084 127.459 4.20184 126.879C3.59284 126.299 3.11434 125.603 2.76634 124.791C2.41834 123.969 2.24434 123.056 2.24434 122.05C2.24434 121.006 2.40867 120.054 2.73734 119.194C3.07567 118.334 3.54934 117.594 4.15834 116.975C4.777 116.347 5.52134 115.864 6.39134 115.525C7.271 115.177 8.25217 115.003 9.33484 115.003C10.3015 115.003 11.1522 115.153 11.8868 115.453C12.6312 115.753 13.274 116.149 13.8153 116.642C14.3567 117.135 14.8062 117.7 15.1638 118.338C15.5312 118.976 15.8212 119.639 16.0338 120.325C16.2562 121.011 16.4108 121.693 16.4978 122.369C16.5945 123.046 16.6428 123.67 16.6428 124.24C16.6428 125.361 16.5268 126.458 16.2948 127.531C16.0725 128.595 15.739 129.6 15.2943 130.547C14.8593 131.495 14.3228 132.37 13.6848 133.172C13.0468 133.965 12.317 134.656 11.4953 135.245C10.6833 135.835 9.78434 136.304 8.79834 136.652C7.81234 137 6.749 137.198 5.60834 137.247L5.15884 134.825C6.31884 134.767 7.40634 134.491 8.42134 133.998C9.446 133.505 10.345 132.853 11.1183 132.041C11.9013 131.219 12.5297 130.267 13.0033 129.184C13.4867 128.092 13.7622 126.927 13.8298 125.69L12.6698 127.386ZM13.6558 123.181C13.6268 122.456 13.5205 121.756 13.3368 121.079C13.1628 120.393 12.9018 119.784 12.5538 119.252C12.2058 118.711 11.7757 118.28 11.2633 117.961C10.751 117.633 10.1468 117.468 9.45084 117.468C8.7935 117.468 8.20384 117.575 7.68184 117.787C7.15984 118 6.71517 118.295 6.34784 118.672C5.9805 119.049 5.69534 119.503 5.49234 120.035C5.299 120.567 5.20234 121.151 5.20234 121.789C5.20234 122.418 5.27967 123.003 5.43434 123.544C5.59867 124.085 5.84034 124.554 6.15934 124.95C6.488 125.347 6.89884 125.661 7.39184 125.893C7.8945 126.115 8.47934 126.226 9.14634 126.226C9.65867 126.226 10.1468 126.144 10.6108 125.98C11.0845 125.816 11.5147 125.598 11.9013 125.327C12.2977 125.047 12.6457 124.723 12.9453 124.356C13.245 123.989 13.4818 123.597 13.6558 123.181Z" fill="white"/>
<path d="M9.21884 160.003C10.0985 160.003 10.9153 160.124 11.6693 160.366C12.4233 160.608 13.071 160.956 13.6123 161.41C14.1633 161.864 14.5935 162.415 14.9028 163.063C15.2122 163.711 15.3668 164.44 15.3668 165.252C15.3668 165.823 15.2798 166.33 15.1058 166.775C14.9415 167.22 14.7143 167.621 14.4243 167.978C14.1343 168.326 13.796 168.645 13.4093 168.935C13.0323 169.216 12.6312 169.482 12.2058 169.733C12.9212 170.052 13.5592 170.419 14.1198 170.835C14.6902 171.241 15.1687 171.705 15.5553 172.227C15.9517 172.739 16.2513 173.314 16.4543 173.952C16.667 174.59 16.7733 175.291 16.7733 176.055C16.7733 177.128 16.5607 178.056 16.1353 178.839C15.71 179.612 15.1445 180.255 14.4388 180.767C13.7428 181.27 12.9453 181.642 12.0463 181.884C11.157 182.126 10.2435 182.247 9.30584 182.247C8.3875 182.247 7.503 182.111 6.65234 181.84C5.80167 181.56 5.04767 181.154 4.39034 180.622C3.74267 180.081 3.22067 179.414 2.82434 178.621C2.428 177.819 2.22984 176.896 2.22984 175.852C2.22984 175.079 2.341 174.378 2.56334 173.749C2.78567 173.121 3.09017 172.556 3.47684 172.053C3.8635 171.55 4.32267 171.106 4.85434 170.719C5.386 170.323 5.96117 169.975 6.57984 169.675C6.1255 169.395 5.70017 169.105 5.30384 168.805C4.91717 168.505 4.574 168.186 4.27434 167.848C3.98434 167.5 3.75234 167.128 3.57834 166.731C3.414 166.335 3.33184 165.895 3.33184 165.412C3.33184 164.474 3.5155 163.667 3.88284 162.99C4.25984 162.304 4.73834 161.743 5.31834 161.308C5.89834 160.864 6.5315 160.535 7.21784 160.322C7.91384 160.11 8.58084 160.003 9.21884 160.003ZM9.05934 170.98C8.45034 171.241 7.89934 171.531 7.40634 171.85C6.923 172.159 6.50734 172.517 6.15934 172.923C5.821 173.319 5.55517 173.774 5.36184 174.286C5.17817 174.789 5.08634 175.359 5.08634 175.997C5.08634 176.577 5.20234 177.104 5.43434 177.577C5.676 178.051 5.99017 178.462 6.37684 178.81C6.77317 179.148 7.2275 179.409 7.73984 179.593C8.25217 179.777 8.779 179.869 9.32034 179.869C9.939 179.869 10.5238 179.786 11.0748 179.622C11.6355 179.448 12.1237 179.197 12.5393 178.868C12.9647 178.539 13.2982 178.133 13.5398 177.65C13.7815 177.167 13.9023 176.611 13.9023 175.982C13.9023 175.335 13.7573 174.76 13.4673 174.257C13.187 173.745 12.8148 173.29 12.3508 172.894C11.8965 172.488 11.3793 172.13 10.7993 171.821C10.229 171.512 9.649 171.231 9.05934 170.98ZM9.65384 168.616C10.5432 168.22 11.2488 167.742 11.7708 167.181C12.3025 166.62 12.5683 165.939 12.5683 165.136C12.5683 164.653 12.4668 164.237 12.2638 163.889C12.0705 163.541 11.824 163.256 11.5243 163.034C11.2247 162.812 10.8912 162.652 10.5238 162.555C10.1662 162.449 9.823 162.396 9.49434 162.396C9.05934 162.396 8.63884 162.464 8.23284 162.599C7.82684 162.725 7.46917 162.908 7.15984 163.15C6.8505 163.392 6.59917 163.677 6.40584 164.005C6.22217 164.334 6.13034 164.692 6.13034 165.078C6.13034 165.523 6.22217 165.919 6.40584 166.267C6.59917 166.606 6.85534 166.915 7.17434 167.195C7.503 167.466 7.88 167.717 8.30534 167.949C8.73067 168.181 9.18017 168.404 9.65384 168.616Z" fill="white"/>
<path d="M2.63584 205.25H16.3093V207.135C16.3093 207.551 16.1498 208.087 15.8308 208.744C15.5215 209.392 15.1252 210.122 14.6418 210.934C14.1585 211.746 13.6268 212.621 13.0468 213.558C12.4765 214.486 11.9303 215.443 11.4083 216.429C10.896 217.406 10.4465 218.387 10.0598 219.373C9.67317 220.359 9.42667 221.311 9.32034 222.229C9.272 222.626 9.23334 223.037 9.20434 223.462C9.185 223.878 9.16567 224.293 9.14634 224.709C9.13667 225.125 9.13184 225.531 9.13184 225.927V227H6.15934C6.15934 226.71 6.15934 226.323 6.15934 225.84C6.169 225.347 6.1835 224.83 6.20284 224.288C6.22217 223.747 6.256 223.211 6.30434 222.679C6.35267 222.147 6.4155 221.693 6.49284 221.316C6.71517 220.282 7.02934 219.267 7.43534 218.271C7.851 217.266 8.3005 216.304 8.78384 215.385C9.27684 214.457 9.7795 213.583 10.2918 212.761C10.8042 211.939 11.2682 211.195 11.6838 210.528C12.0995 209.851 12.4378 209.262 12.6988 208.759C12.9695 208.256 13.1048 207.86 13.1048 207.57H2.63584V205.25Z" fill="white"/>
<path d="M13.9748 252.512C13.9072 252.493 13.8057 252.483 13.6703 252.483C13.5447 252.473 13.4287 252.468 13.3223 252.468C12.6263 252.468 11.9497 252.58 11.2923 252.802C10.635 253.015 10.0163 253.319 9.43634 253.715C8.85634 254.112 8.31984 254.585 7.82684 255.136C7.3435 255.687 6.91334 256.296 6.53634 256.963C6.169 257.621 5.8645 258.326 5.62284 259.08C5.38117 259.834 5.22167 260.613 5.14434 261.415L6.34784 259.718C6.5895 259.564 6.86984 259.419 7.18884 259.283C7.5175 259.138 7.86067 259.013 8.21834 258.906C8.576 258.8 8.9385 258.718 9.30584 258.66C9.67317 258.592 10.0212 258.558 10.3498 258.558C11.1908 258.558 11.998 258.674 12.7713 258.906C13.5543 259.138 14.2455 259.496 14.8448 259.979C15.4538 260.463 15.9372 261.086 16.2948 261.85C16.6622 262.604 16.8458 263.508 16.8458 264.561C16.8458 265.605 16.667 266.596 16.3093 267.534C15.9613 268.462 15.4683 269.279 14.8303 269.984C14.1923 270.68 13.4287 271.231 12.5393 271.637C11.65 272.044 10.664 272.247 9.58134 272.247C8.634 272.247 7.793 272.097 7.05834 271.797C6.33334 271.488 5.70017 271.082 5.15884 270.579C4.6175 270.076 4.16317 269.501 3.79584 268.853C3.43817 268.206 3.14334 267.544 2.91134 266.867C2.689 266.181 2.5295 265.504 2.43284 264.837C2.33617 264.17 2.28784 263.561 2.28784 263.01C2.28784 261.86 2.40384 260.738 2.63584 259.646C2.8775 258.554 3.22067 257.529 3.66534 256.572C4.11967 255.605 4.67067 254.721 5.31834 253.918C5.966 253.106 6.70067 252.415 7.52234 251.845C8.35367 251.265 9.26234 250.815 10.2483 250.496C11.244 250.168 12.3122 250.003 13.4528 250.003C13.5978 250.003 13.7573 250.008 13.9313 250.018C14.1053 250.018 14.2407 250.028 14.3373 250.047L13.9748 252.512ZM5.27484 263.343C5.27484 263.614 5.27484 263.861 5.27484 264.083C5.2845 264.305 5.299 264.523 5.31834 264.735C5.33767 264.948 5.36667 265.166 5.40534 265.388C5.444 265.601 5.49717 265.837 5.56484 266.098C5.70017 266.649 5.88384 267.152 6.11584 267.606C6.3575 268.051 6.64267 268.438 6.97134 268.766C7.30967 269.085 7.69634 269.337 8.13134 269.52C8.576 269.694 9.07384 269.781 9.62484 269.781C10.3885 269.781 11.0362 269.636 11.5678 269.346C12.1092 269.056 12.549 268.675 12.8873 268.201C13.2257 267.718 13.4722 267.171 13.6268 266.562C13.7912 265.953 13.8733 265.335 13.8733 264.706C13.8733 264.097 13.7815 263.561 13.5978 263.097C13.4238 262.633 13.1725 262.251 12.8438 261.951C12.5152 261.642 12.1188 261.41 11.6548 261.255C11.2005 261.101 10.693 261.023 10.1323 261.023C9.61034 261.023 9.10284 261.086 8.60984 261.212C8.11684 261.338 7.65284 261.507 7.21784 261.719C6.7925 261.932 6.41067 262.179 6.07234 262.459C5.74367 262.739 5.47784 263.034 5.27484 263.343Z" fill="white"/>
<path d="M6.68134 302.761C6.749 302.722 6.865 302.659 7.02934 302.572C7.20334 302.485 7.416 302.398 7.66734 302.311C7.91867 302.224 8.20384 302.152 8.52284 302.094C8.8515 302.026 9.214 301.992 9.61034 301.992C10.6157 301.992 11.5098 302.152 12.2928 302.471C13.0855 302.78 13.7525 303.21 14.2938 303.761C14.8448 304.303 15.2605 304.941 15.5408 305.675C15.8308 306.41 15.9758 307.193 15.9758 308.024C15.9758 309.001 15.8018 309.905 15.4538 310.736C15.1058 311.558 14.6273 312.302 14.0183 312.969C13.419 313.626 12.7133 314.206 11.9013 314.709C11.099 315.212 10.2387 315.637 9.32034 315.985C8.41167 316.323 7.474 316.579 6.50734 316.753C5.54067 316.918 4.59334 317 3.66534 317V314.68C4.39034 314.661 5.125 314.574 5.86934 314.419C6.61367 314.264 7.329 314.052 8.01534 313.781C8.71134 313.51 9.359 313.186 9.95834 312.809C10.5673 312.432 11.0942 312.012 11.5388 311.548C11.9932 311.084 12.3508 310.581 12.6118 310.04C12.8728 309.499 13.0033 308.928 13.0033 308.329C13.0033 307.836 12.9212 307.357 12.7568 306.893C12.6022 306.429 12.3653 306.019 12.0463 305.661C11.737 305.294 11.3455 304.999 10.8718 304.776C10.3982 304.554 9.84717 304.443 9.21884 304.443C8.72584 304.443 8.28117 304.477 7.88484 304.544C7.4885 304.602 7.13567 304.68 6.82634 304.776C6.517 304.873 6.24634 304.979 6.01434 305.095C5.792 305.202 5.60834 305.303 5.46334 305.4H3.66534V295.25H14.5838V297.57H6.68134V302.761Z" fill="white"/>
<path d="M16.5413 357.65H13.9313V362H10.8863V357.65H2.25884V355.17L9.27684 339.96L12.0173 340.25L5.99984 353.3L4.65134 355.33H10.8863V349.428L13.9313 349.675V355.33H16.7588L16.5413 357.65Z" fill="white"/>
<path d="M3.36084 387.57L3.57834 385.25H14.8883V387.28C14.7723 387.667 14.5742 388.073 14.2938 388.498C14.0232 388.914 13.6993 389.339 13.3223 389.774C12.955 390.199 12.549 390.62 12.1043 391.035C11.6693 391.451 11.2295 391.847 10.7848 392.224L8.87084 393.297C8.9675 393.278 9.08834 393.268 9.23334 393.268C9.388 393.259 9.533 393.254 9.66834 393.254C10.606 393.254 11.476 393.37 12.2783 393.602C13.0903 393.834 13.7912 394.187 14.3808 394.66C14.9802 395.124 15.449 395.719 15.7873 396.444C16.1353 397.159 16.3093 398.005 16.3093 398.981C16.3093 399.919 16.1353 400.77 15.7873 401.533C15.4393 402.297 14.9608 402.979 14.3518 403.578C13.7525 404.168 13.0468 404.68 12.2348 405.115C11.4228 405.54 10.5528 405.893 9.62484 406.173C8.7065 406.454 7.75434 406.662 6.76834 406.797C5.78234 406.932 4.81567 407 3.86834 407V404.68C4.67067 404.651 5.4585 404.578 6.23184 404.462C7.00517 404.346 7.73984 404.187 8.43584 403.984C9.13184 403.771 9.77467 403.515 10.3643 403.215C10.954 402.916 11.4615 402.568 11.8868 402.171C12.3218 401.765 12.6602 401.311 12.9018 400.808C13.1435 400.296 13.2643 399.735 13.2643 399.126C13.2643 398.43 13.1145 397.85 12.8148 397.386C12.5248 396.922 12.1237 396.555 11.6113 396.284C11.099 396.014 10.4948 395.825 9.79884 395.719C9.1125 395.603 8.373 395.545 7.58034 395.545C7.271 395.545 6.93267 395.555 6.56534 395.574C6.20767 395.584 5.88384 395.598 5.59384 395.617V393.37C5.99017 393.08 6.42034 392.751 6.88434 392.384C7.34834 392.017 7.81717 391.635 8.29084 391.238C8.7645 390.832 9.22367 390.426 9.66834 390.02C10.1227 389.605 10.5335 389.213 10.9008 388.846C11.2682 388.469 11.5775 388.121 11.8288 387.802C12.0802 387.473 12.2445 387.203 12.3218 386.99L10.1178 387.57H3.36084Z" fill="white"/>
<path d="M2.72284 452V449.564C3.1675 448.858 3.65084 448.162 4.17284 447.476C4.69484 446.79 5.22167 446.127 5.75334 445.489C6.29467 444.842 6.8215 444.228 7.33384 443.648C7.84617 443.058 8.31984 442.517 8.75484 442.024C9.2575 441.444 9.74084 440.912 10.2048 440.429C10.6785 439.936 11.0942 439.453 11.4518 438.979C11.8095 438.505 12.0947 438.017 12.3073 437.514C12.52 437.002 12.6263 436.441 12.6263 435.832C12.6263 435.368 12.5393 434.933 12.3653 434.527C12.1913 434.112 11.9448 433.754 11.6258 433.454C11.3165 433.145 10.9443 432.903 10.5093 432.729C10.0743 432.546 9.59584 432.454 9.07384 432.454C8.48417 432.454 7.97184 432.536 7.53684 432.7C7.1115 432.855 6.7345 433.063 6.40584 433.324C6.08684 433.585 5.8065 433.88 5.56484 434.208C5.33284 434.527 5.11534 434.851 4.91234 435.18L2.86784 434.31C3.11917 433.682 3.43817 433.106 3.82484 432.584C4.22117 432.053 4.68517 431.598 5.21684 431.221C5.7485 430.835 6.35267 430.535 7.02934 430.322C7.706 430.11 8.46 430.003 9.29134 430.003C10.2677 430.003 11.1377 430.177 11.9013 430.525C12.665 430.873 13.3078 431.333 13.8298 431.903C14.3615 432.464 14.7627 433.102 15.0333 433.817C15.3137 434.532 15.4538 435.257 15.4538 435.992C15.4538 436.736 15.3137 437.447 15.0333 438.123C14.7627 438.79 14.4195 439.428 14.0038 440.037C13.5978 440.637 13.158 441.202 12.6843 441.734C12.2107 442.266 11.7757 442.763 11.3793 443.227C10.8767 443.817 10.374 444.397 9.87134 444.967C9.36867 445.538 8.88534 446.098 8.42134 446.649C7.967 447.191 7.54167 447.718 7.14534 448.23C6.749 448.733 6.40584 449.216 6.11584 449.68H16.2658V452H2.72284Z" fill="white"/>
<path d="M3.52034 497V494.68H8.52284V480.673L9.36384 477.381L7.39184 480.078L4.31784 482.804L2.75184 481.05L9.39284 474.96L11.5678 475.25V494.68H16.5703V497H3.52034Z" fill="white"/>
<path d="M9.50884 542.247C8.68717 542.247 7.93317 542.092 7.24684 541.782C6.5605 541.463 5.94184 541.033 5.39084 540.492C4.8495 539.951 4.371 539.317 3.95534 538.592C3.54934 537.867 3.20617 537.094 2.92584 536.272C2.65517 535.441 2.45217 534.586 2.31684 533.706C2.1815 532.826 2.11384 531.966 2.11384 531.125C2.11384 530.255 2.17184 529.375 2.28784 528.486C2.40384 527.597 2.5875 526.741 2.83884 525.919C3.09017 525.098 3.40917 524.329 3.79584 523.614C4.19217 522.889 4.661 522.261 5.20234 521.729C5.75334 521.197 6.38167 520.777 7.08734 520.467C7.80267 520.158 8.60984 520.003 9.50884 520.003C10.3305 520.003 11.0845 520.163 11.7708 520.482C12.4572 520.791 13.071 521.217 13.6123 521.758C14.1633 522.299 14.6418 522.932 15.0478 523.657C15.4635 524.382 15.8067 525.161 16.0773 525.992C16.3577 526.814 16.5655 527.664 16.7008 528.544C16.8362 529.424 16.9038 530.284 16.9038 531.125C16.9038 531.995 16.8458 532.875 16.7298 533.764C16.6138 534.653 16.4302 535.509 16.1788 536.33C15.9275 537.152 15.6037 537.925 15.2073 538.65C14.8207 539.366 14.3518 539.989 13.8008 540.521C13.2595 541.053 12.6312 541.473 11.9158 541.782C11.2005 542.092 10.3982 542.247 9.50884 542.247ZM5.11534 530.501C5.11534 531.062 5.13467 531.681 5.17334 532.357C5.212 533.024 5.28934 533.701 5.40534 534.387C5.52134 535.064 5.68084 535.721 5.88384 536.359C6.0965 536.997 6.36717 537.568 6.69584 538.07C7.03417 538.563 7.44017 538.96 7.91384 539.259C8.39717 539.559 8.9675 539.709 9.62484 539.709C10.2145 539.709 10.7268 539.598 11.1618 539.375C11.6065 539.143 11.9883 538.834 12.3073 538.447C12.6263 538.051 12.8873 537.597 13.0903 537.084C13.2933 536.562 13.4528 536.007 13.5688 535.417C13.6945 534.827 13.7815 534.218 13.8298 533.59C13.8782 532.962 13.9023 532.348 13.9023 531.748C13.9023 531.188 13.883 530.574 13.8443 529.907C13.8057 529.23 13.7283 528.554 13.6123 527.877C13.4963 527.2 13.332 526.543 13.1193 525.905C12.9163 525.257 12.6457 524.687 12.3073 524.194C11.9787 523.701 11.5727 523.305 11.0893 523.005C10.6157 522.705 10.0502 522.555 9.39284 522.555C8.80317 522.555 8.286 522.671 7.84134 522.903C7.40634 523.126 7.02934 523.43 6.71034 523.817C6.39134 524.204 6.13034 524.658 5.92734 525.18C5.72434 525.702 5.56 526.258 5.43434 526.847C5.31834 527.437 5.23617 528.046 5.18784 528.674C5.1395 529.293 5.11534 529.902 5.11534 530.501Z" fill="white"/>
<path d="M12.6698 577.386C12.0995 577.831 11.5243 578.16 10.9443 578.372C10.374 578.585 9.72634 578.691 9.00134 578.691C8.054 578.691 7.1695 578.537 6.34784 578.227C5.52617 577.908 4.81084 577.459 4.20184 576.879C3.59284 576.299 3.11434 575.603 2.76634 574.791C2.41834 573.969 2.24434 573.056 2.24434 572.05C2.24434 571.006 2.40867 570.054 2.73734 569.194C3.07567 568.334 3.54934 567.594 4.15834 566.975C4.777 566.347 5.52134 565.864 6.39134 565.525C7.271 565.177 8.25217 565.003 9.33484 565.003C10.3015 565.003 11.1522 565.153 11.8868 565.453C12.6312 565.753 13.274 566.149 13.8153 566.642C14.3567 567.135 14.8062 567.7 15.1638 568.338C15.5312 568.976 15.8212 569.639 16.0338 570.325C16.2562 571.011 16.4108 571.693 16.4978 572.369C16.5945 573.046 16.6428 573.67 16.6428 574.24C16.6428 575.361 16.5268 576.458 16.2948 577.531C16.0725 578.595 15.739 579.6 15.2943 580.547C14.8593 581.495 14.3228 582.37 13.6848 583.172C13.0468 583.965 12.317 584.656 11.4953 585.245C10.6833 585.835 9.78434 586.304 8.79834 586.652C7.81234 587 6.749 587.198 5.60834 587.247L5.15884 584.825C6.31884 584.767 7.40634 584.491 8.42134 583.998C9.446 583.505 10.345 582.853 11.1183 582.041C11.9013 581.219 12.5297 580.267 13.0033 579.184C13.4867 578.092 13.7622 576.927 13.8298 575.69L12.6698 577.386ZM13.6558 573.181C13.6268 572.456 13.5205 571.756 13.3368 571.079C13.1628 570.393 12.9018 569.784 12.5538 569.252C12.2058 568.711 11.7757 568.28 11.2633 567.961C10.751 567.633 10.1468 567.468 9.45084 567.468C8.7935 567.468 8.20384 567.575 7.68184 567.787C7.15984 568 6.71517 568.295 6.34784 568.672C5.9805 569.049 5.69534 569.503 5.49234 570.035C5.299 570.567 5.20234 571.151 5.20234 571.789C5.20234 572.418 5.27967 573.003 5.43434 573.544C5.59867 574.085 5.84034 574.554 6.15934 574.95C6.488 575.347 6.89884 575.661 7.39184 575.893C7.8945 576.115 8.47934 576.226 9.14634 576.226C9.65867 576.226 10.1468 576.144 10.6108 575.98C11.0845 575.816 11.5147 575.598 11.9013 575.327C12.2977 575.047 12.6457 574.723 12.9453 574.356C13.245 573.989 13.4818 573.597 13.6558 573.181Z" fill="white"/>
<path d="M3.52034 47V44.68H8.52284V30.673L9.36384 27.3815L7.39184 30.0785L4.31784 32.8045L2.75184 31.05L9.39284 24.96L11.5678 25.25V44.68H16.5703V47H3.52034Z" fill="white"/>
</g>
<defs>
<clipPath id="clip0_94_142">
<rect width="19" height="594" fill="white"/>
</clipPath>
</defs>
</svg>
