<svg width="19" height="594" viewBox="0 0 19 594" fill="none" xmlns="http://www.w3.org/2000/svg">
<g clip-path="url(#clip0_103_258)">
<path d="M9.50884 92.2465C8.68717 92.2465 7.93317 92.0918 7.24684 91.7825C6.5605 91.4635 5.94184 91.0333 5.39084 90.492C4.8495 89.9507 4.371 89.3175 3.95534 88.5925C3.54934 87.8675 3.20617 87.0942 2.92584 86.2725C2.65517 85.4412 2.45217 84.5857 2.31684 83.706C2.1815 82.8263 2.11384 81.966 2.11384 81.125C2.11384 80.255 2.17184 79.3753 2.28784 78.486C2.40384 77.5967 2.5875 76.7412 2.83884 75.9195C3.09017 75.0978 3.40917 74.3293 3.79584 73.614C4.19217 72.889 4.661 72.2607 5.20234 71.729C5.75334 71.1973 6.38167 70.7768 7.08734 70.4675C7.80267 70.1582 8.60984 70.0035 9.50884 70.0035C10.3305 70.0035 11.0845 70.163 11.7708 70.482C12.4572 70.7913 13.071 71.2167 13.6123 71.758C14.1633 72.2993 14.6418 72.9325 15.0478 73.6575C15.4635 74.3825 15.8067 75.1607 16.0773 75.992C16.3577 76.8137 16.5655 77.6643 16.7008 78.544C16.8362 79.4237 16.9038 80.284 16.9038 81.125C16.9038 81.995 16.8458 82.8747 16.7298 83.764C16.6138 84.6533 16.4302 85.5088 16.1788 86.3305C15.9275 87.1522 15.6037 87.9255 15.2073 88.6505C14.8207 89.3658 14.3518 89.9893 13.8008 90.521C13.2595 91.0527 12.6312 91.4732 11.9158 91.7825C11.2005 92.0918 10.3982 92.2465 9.50884 92.2465ZM5.11534 80.5015C5.11534 81.0622 5.13467 81.6808 5.17334 82.3575C5.212 83.0245 5.28934 83.7012 5.40534 84.3875C5.52134 85.0642 5.68084 85.7215 5.88384 86.3595C6.0965 86.9975 6.36717 87.5678 6.69584 88.0705C7.03417 88.5635 7.44017 88.9598 7.91384 89.2595C8.39717 89.5592 8.9675 89.709 9.62484 89.709C10.2145 89.709 10.7268 89.5978 11.1618 89.3755C11.6065 89.1435 11.9883 88.8342 12.3073 88.4475C12.6263 88.0512 12.8873 87.5968 13.0903 87.0845C13.2933 86.5625 13.4528 86.0067 13.5688 85.417C13.6945 84.8273 13.7815 84.2183 13.8298 83.59C13.8782 82.9617 13.9023 82.3478 13.9023 81.7485C13.9023 81.1878 13.883 80.574 13.8443 79.907C13.8057 79.2303 13.7283 78.5537 13.6123 77.877C13.4963 77.2003 13.332 76.543 13.1193 75.905C12.9163 75.2573 12.6457 74.687 12.3073 74.194C11.9787 73.701 11.5727 73.3047 11.0893 73.005C10.6157 72.7053 10.0502 72.5555 9.39284 72.5555C8.80317 72.5555 8.286 72.6715 7.84134 72.9035C7.40634 73.1258 7.02934 73.4303 6.71034 73.817C6.39134 74.2037 6.13034 74.658 5.92734 75.18C5.72434 75.702 5.56 76.2578 5.43434 76.8475C5.31834 77.4372 5.23617 78.0462 5.18784 78.6745C5.1395 79.2932 5.11534 79.9022 5.11534 80.5015Z" fill="white"/>
<path d="M3.52034 137V134.68H8.52284V120.673L9.36384 117.381L7.39184 120.078L4.31784 122.804L2.75184 121.05L9.39284 114.96L11.5678 115.25V134.68H16.5703V137H3.52034Z" fill="white"/>
<path d="M2.72284 182V179.564C3.1675 178.858 3.65084 178.162 4.17284 177.476C4.69484 176.79 5.22167 176.127 5.75334 175.489C6.29467 174.842 6.8215 174.228 7.33384 173.648C7.84617 173.058 8.31984 172.517 8.75484 172.024C9.2575 171.444 9.74084 170.912 10.2048 170.429C10.6785 169.936 11.0942 169.453 11.4518 168.979C11.8095 168.505 12.0947 168.017 12.3073 167.514C12.52 167.002 12.6263 166.441 12.6263 165.832C12.6263 165.368 12.5393 164.933 12.3653 164.527C12.1913 164.112 11.9448 163.754 11.6258 163.454C11.3165 163.145 10.9443 162.903 10.5093 162.729C10.0743 162.546 9.59584 162.454 9.07384 162.454C8.48417 162.454 7.97184 162.536 7.53684 162.7C7.1115 162.855 6.7345 163.063 6.40584 163.324C6.08684 163.585 5.8065 163.88 5.56484 164.208C5.33284 164.527 5.11534 164.851 4.91234 165.18L2.86784 164.31C3.11917 163.682 3.43817 163.106 3.82484 162.584C4.22117 162.053 4.68517 161.598 5.21684 161.221C5.7485 160.835 6.35267 160.535 7.02934 160.322C7.706 160.11 8.46 160.003 9.29134 160.003C10.2677 160.003 11.1377 160.177 11.9013 160.525C12.665 160.873 13.3078 161.333 13.8298 161.903C14.3615 162.464 14.7627 163.102 15.0333 163.817C15.3137 164.532 15.4538 165.257 15.4538 165.992C15.4538 166.736 15.3137 167.447 15.0333 168.123C14.7627 168.79 14.4195 169.428 14.0038 170.037C13.5978 170.637 13.158 171.202 12.6843 171.734C12.2107 172.266 11.7757 172.763 11.3793 173.227C10.8767 173.817 10.374 174.397 9.87134 174.967C9.36867 175.538 8.88534 176.098 8.42134 176.649C7.967 177.191 7.54167 177.718 7.14534 178.23C6.749 178.733 6.40584 179.216 6.11584 179.68H16.2658V182H2.72284Z" fill="white"/>
<path d="M3.36084 207.57L3.57834 205.25H14.8883V207.28C14.7723 207.667 14.5742 208.073 14.2938 208.498C14.0232 208.914 13.6993 209.339 13.3223 209.774C12.955 210.199 12.549 210.62 12.1043 211.035C11.6693 211.451 11.2295 211.847 10.7848 212.224L8.87084 213.297C8.9675 213.278 9.08834 213.268 9.23334 213.268C9.388 213.259 9.533 213.254 9.66834 213.254C10.606 213.254 11.476 213.37 12.2783 213.602C13.0903 213.834 13.7912 214.187 14.3808 214.66C14.9802 215.124 15.449 215.719 15.7873 216.444C16.1353 217.159 16.3093 218.005 16.3093 218.981C16.3093 219.919 16.1353 220.77 15.7873 221.533C15.4393 222.297 14.9608 222.979 14.3518 223.578C13.7525 224.168 13.0468 224.68 12.2348 225.115C11.4228 225.54 10.5528 225.893 9.62484 226.173C8.7065 226.454 7.75434 226.662 6.76834 226.797C5.78234 226.932 4.81567 227 3.86834 227V224.68C4.67067 224.651 5.4585 224.578 6.23184 224.462C7.00517 224.346 7.73984 224.187 8.43584 223.984C9.13184 223.771 9.77467 223.515 10.3643 223.215C10.954 222.916 11.4615 222.568 11.8868 222.171C12.3218 221.765 12.6602 221.311 12.9018 220.808C13.1435 220.296 13.2643 219.735 13.2643 219.126C13.2643 218.43 13.1145 217.85 12.8148 217.386C12.5248 216.922 12.1237 216.555 11.6113 216.284C11.099 216.014 10.4948 215.825 9.79884 215.719C9.1125 215.603 8.373 215.545 7.58034 215.545C7.271 215.545 6.93267 215.555 6.56534 215.574C6.20767 215.584 5.88384 215.598 5.59384 215.617V213.37C5.99017 213.08 6.42034 212.751 6.88434 212.384C7.34834 212.017 7.81717 211.635 8.29084 211.238C8.7645 210.832 9.22367 210.426 9.66834 210.02C10.1227 209.605 10.5335 209.213 10.9008 208.846C11.2682 208.469 11.5775 208.121 11.8288 207.802C12.0802 207.473 12.2445 207.203 12.3218 206.99L10.1178 207.57H3.36084Z" fill="white"/>
<path d="M16.5413 267.65H13.9313V272H10.8863V267.65H2.25884V265.17L9.27684 249.96L12.0173 250.25L5.99984 263.3L4.65134 265.33H10.8863V259.428L13.9313 259.675V265.33H16.7588L16.5413 267.65Z" fill="white"/>
<path d="M6.68134 302.761C6.749 302.722 6.865 302.659 7.02934 302.572C7.20334 302.485 7.416 302.398 7.66734 302.311C7.91867 302.224 8.20384 302.152 8.52284 302.094C8.8515 302.026 9.214 301.992 9.61034 301.992C10.6157 301.992 11.5098 302.152 12.2928 302.471C13.0855 302.78 13.7525 303.21 14.2938 303.761C14.8448 304.303 15.2605 304.941 15.5408 305.675C15.8308 306.41 15.9758 307.193 15.9758 308.024C15.9758 309.001 15.8018 309.905 15.4538 310.736C15.1058 311.558 14.6273 312.302 14.0183 312.969C13.419 313.626 12.7133 314.206 11.9013 314.709C11.099 315.212 10.2387 315.637 9.32034 315.985C8.41167 316.323 7.474 316.579 6.50734 316.753C5.54067 316.918 4.59334 317 3.66534 317V314.68C4.39034 314.661 5.125 314.574 5.86934 314.419C6.61367 314.264 7.329 314.052 8.01534 313.781C8.71134 313.51 9.359 313.186 9.95834 312.809C10.5673 312.432 11.0942 312.012 11.5388 311.548C11.9932 311.084 12.3508 310.581 12.6118 310.04C12.8728 309.499 13.0033 308.928 13.0033 308.329C13.0033 307.836 12.9212 307.357 12.7568 306.893C12.6022 306.429 12.3653 306.019 12.0463 305.661C11.737 305.294 11.3455 304.999 10.8718 304.776C10.3982 304.554 9.84717 304.443 9.21884 304.443C8.72584 304.443 8.28117 304.477 7.88484 304.544C7.4885 304.602 7.13567 304.68 6.82634 304.776C6.517 304.873 6.24634 304.979 6.01434 305.095C5.792 305.202 5.60834 305.303 5.46334 305.4H3.66534V295.25H14.5838V297.57H6.68134V302.761Z" fill="white"/>
<path d="M13.9748 342.512C13.9072 342.493 13.8057 342.483 13.6703 342.483C13.5447 342.473 13.4287 342.468 13.3223 342.468C12.6263 342.468 11.9497 342.58 11.2923 342.802C10.635 343.015 10.0163 343.319 9.43634 343.715C8.85634 344.112 8.31984 344.585 7.82684 345.136C7.3435 345.687 6.91334 346.296 6.53634 346.963C6.169 347.621 5.8645 348.326 5.62284 349.08C5.38117 349.834 5.22167 350.613 5.14434 351.415L6.34784 349.718C6.5895 349.564 6.86984 349.419 7.18884 349.283C7.5175 349.138 7.86067 349.013 8.21834 348.906C8.576 348.8 8.9385 348.718 9.30584 348.66C9.67317 348.592 10.0212 348.558 10.3498 348.558C11.1908 348.558 11.998 348.674 12.7713 348.906C13.5543 349.138 14.2455 349.496 14.8448 349.979C15.4538 350.463 15.9372 351.086 16.2948 351.85C16.6622 352.604 16.8458 353.508 16.8458 354.561C16.8458 355.605 16.667 356.596 16.3093 357.534C15.9613 358.462 15.4683 359.279 14.8303 359.984C14.1923 360.68 13.4287 361.231 12.5393 361.637C11.65 362.044 10.664 362.247 9.58134 362.247C8.634 362.247 7.793 362.097 7.05834 361.797C6.33334 361.488 5.70017 361.082 5.15884 360.579C4.6175 360.076 4.16317 359.501 3.79584 358.853C3.43817 358.206 3.14334 357.544 2.91134 356.867C2.689 356.181 2.5295 355.504 2.43284 354.837C2.33617 354.17 2.28784 353.561 2.28784 353.01C2.28784 351.86 2.40384 350.738 2.63584 349.646C2.8775 348.554 3.22067 347.529 3.66534 346.572C4.11967 345.605 4.67067 344.721 5.31834 343.918C5.966 343.106 6.70067 342.415 7.52234 341.845C8.35367 341.265 9.26234 340.815 10.2483 340.496C11.244 340.168 12.3122 340.003 13.4528 340.003C13.5978 340.003 13.7573 340.008 13.9313 340.018C14.1053 340.018 14.2407 340.028 14.3373 340.047L13.9748 342.512ZM5.27484 353.343C5.27484 353.614 5.27484 353.861 5.27484 354.083C5.2845 354.305 5.299 354.523 5.31834 354.735C5.33767 354.948 5.36667 355.166 5.40534 355.388C5.444 355.601 5.49717 355.837 5.56484 356.098C5.70017 356.649 5.88384 357.152 6.11584 357.606C6.3575 358.051 6.64267 358.438 6.97134 358.766C7.30967 359.085 7.69634 359.337 8.13134 359.52C8.576 359.694 9.07384 359.781 9.62484 359.781C10.3885 359.781 11.0362 359.636 11.5678 359.346C12.1092 359.056 12.549 358.675 12.8873 358.201C13.2257 357.718 13.4722 357.171 13.6268 356.562C13.7912 355.953 13.8733 355.335 13.8733 354.706C13.8733 354.097 13.7815 353.561 13.5978 353.097C13.4238 352.633 13.1725 352.251 12.8438 351.951C12.5152 351.642 12.1188 351.41 11.6548 351.255C11.2005 351.101 10.693 351.023 10.1323 351.023C9.61034 351.023 9.10284 351.086 8.60984 351.212C8.11684 351.338 7.65284 351.507 7.21784 351.719C6.7925 351.932 6.41067 352.179 6.07234 352.459C5.74367 352.739 5.47784 353.034 5.27484 353.343Z" fill="white"/>
<path d="M2.63584 385.25H16.3093V387.135C16.3093 387.551 16.1498 388.087 15.8308 388.744C15.5215 389.392 15.1252 390.122 14.6418 390.934C14.1585 391.746 13.6268 392.621 13.0468 393.558C12.4765 394.486 11.9303 395.443 11.4083 396.429C10.896 397.406 10.4465 398.387 10.0598 399.373C9.67317 400.359 9.42667 401.311 9.32034 402.229C9.272 402.626 9.23334 403.037 9.20434 403.462C9.185 403.878 9.16567 404.293 9.14634 404.709C9.13667 405.125 9.13184 405.531 9.13184 405.927V407H6.15934C6.15934 406.71 6.15934 406.323 6.15934 405.84C6.169 405.347 6.1835 404.83 6.20284 404.288C6.22217 403.747 6.256 403.211 6.30434 402.679C6.35267 402.147 6.4155 401.693 6.49284 401.316C6.71517 400.282 7.02934 399.267 7.43534 398.271C7.851 397.266 8.3005 396.304 8.78384 395.385C9.27684 394.457 9.7795 393.583 10.2918 392.761C10.8042 391.939 11.2682 391.195 11.6838 390.528C12.0995 389.851 12.4378 389.262 12.6988 388.759C12.9695 388.256 13.1048 387.86 13.1048 387.57H2.63584V385.25Z" fill="white"/>
<path d="M9.21884 430.003C10.0985 430.003 10.9153 430.124 11.6693 430.366C12.4233 430.608 13.071 430.956 13.6123 431.41C14.1633 431.864 14.5935 432.415 14.9028 433.063C15.2122 433.711 15.3668 434.44 15.3668 435.252C15.3668 435.823 15.2798 436.33 15.1058 436.775C14.9415 437.22 14.7143 437.621 14.4243 437.978C14.1343 438.326 13.796 438.645 13.4093 438.935C13.0323 439.216 12.6312 439.482 12.2058 439.733C12.9212 440.052 13.5592 440.419 14.1198 440.835C14.6902 441.241 15.1687 441.705 15.5553 442.227C15.9517 442.739 16.2513 443.314 16.4543 443.952C16.667 444.59 16.7733 445.291 16.7733 446.055C16.7733 447.128 16.5607 448.056 16.1353 448.839C15.71 449.612 15.1445 450.255 14.4388 450.767C13.7428 451.27 12.9453 451.642 12.0463 451.884C11.157 452.126 10.2435 452.247 9.30584 452.247C8.3875 452.247 7.503 452.111 6.65234 451.84C5.80167 451.56 5.04767 451.154 4.39034 450.622C3.74267 450.081 3.22067 449.414 2.82434 448.621C2.428 447.819 2.22984 446.896 2.22984 445.852C2.22984 445.079 2.341 444.378 2.56334 443.749C2.78567 443.121 3.09017 442.556 3.47684 442.053C3.8635 441.55 4.32267 441.106 4.85434 440.719C5.386 440.323 5.96117 439.975 6.57984 439.675C6.1255 439.395 5.70017 439.105 5.30384 438.805C4.91717 438.505 4.574 438.186 4.27434 437.848C3.98434 437.5 3.75234 437.128 3.57834 436.731C3.414 436.335 3.33184 435.895 3.33184 435.412C3.33184 434.474 3.5155 433.667 3.88284 432.99C4.25984 432.304 4.73834 431.743 5.31834 431.308C5.89834 430.864 6.5315 430.535 7.21784 430.322C7.91384 430.11 8.58084 430.003 9.21884 430.003ZM9.05934 440.98C8.45034 441.241 7.89934 441.531 7.40634 441.85C6.923 442.159 6.50734 442.517 6.15934 442.923C5.821 443.319 5.55517 443.774 5.36184 444.286C5.17817 444.789 5.08634 445.359 5.08634 445.997C5.08634 446.577 5.20234 447.104 5.43434 447.577C5.676 448.051 5.99017 448.462 6.37684 448.81C6.77317 449.148 7.2275 449.409 7.73984 449.593C8.25217 449.777 8.779 449.869 9.32034 449.869C9.939 449.869 10.5238 449.786 11.0748 449.622C11.6355 449.448 12.1237 449.197 12.5393 448.868C12.9647 448.539 13.2982 448.133 13.5398 447.65C13.7815 447.167 13.9023 446.611 13.9023 445.982C13.9023 445.335 13.7573 444.76 13.4673 444.257C13.187 443.745 12.8148 443.29 12.3508 442.894C11.8965 442.488 11.3793 442.13 10.7993 441.821C10.229 441.512 9.649 441.231 9.05934 440.98ZM9.65384 438.616C10.5432 438.22 11.2488 437.742 11.7708 437.181C12.3025 436.62 12.5683 435.939 12.5683 435.136C12.5683 434.653 12.4668 434.237 12.2638 433.889C12.0705 433.541 11.824 433.256 11.5243 433.034C11.2247 432.812 10.8912 432.652 10.5238 432.555C10.1662 432.449 9.823 432.396 9.49434 432.396C9.05934 432.396 8.63884 432.464 8.23284 432.599C7.82684 432.725 7.46917 432.908 7.15984 433.15C6.8505 433.392 6.59917 433.677 6.40584 434.005C6.22217 434.334 6.13034 434.692 6.13034 435.078C6.13034 435.523 6.22217 435.919 6.40584 436.267C6.59917 436.606 6.85534 436.915 7.17434 437.195C7.503 437.466 7.88 437.717 8.30534 437.949C8.73067 438.181 9.18017 438.404 9.65384 438.616Z" fill="white"/>
<path d="M12.6698 487.386C12.0995 487.831 11.5243 488.16 10.9443 488.372C10.374 488.585 9.72634 488.691 9.00134 488.691C8.054 488.691 7.1695 488.537 6.34784 488.227C5.52617 487.908 4.81084 487.459 4.20184 486.879C3.59284 486.299 3.11434 485.603 2.76634 484.791C2.41834 483.969 2.24434 483.056 2.24434 482.05C2.24434 481.006 2.40867 480.054 2.73734 479.194C3.07567 478.334 3.54934 477.594 4.15834 476.975C4.777 476.347 5.52134 475.864 6.39134 475.525C7.271 475.177 8.25217 475.003 9.33484 475.003C10.3015 475.003 11.1522 475.153 11.8868 475.453C12.6312 475.753 13.274 476.149 13.8153 476.642C14.3567 477.135 14.8062 477.7 15.1638 478.338C15.5312 478.976 15.8212 479.639 16.0338 480.325C16.2562 481.011 16.4108 481.693 16.4978 482.369C16.5945 483.046 16.6428 483.67 16.6428 484.24C16.6428 485.361 16.5268 486.458 16.2948 487.531C16.0725 488.595 15.739 489.6 15.2943 490.547C14.8593 491.495 14.3228 492.37 13.6848 493.172C13.0468 493.965 12.317 494.656 11.4953 495.245C10.6833 495.835 9.78434 496.304 8.79834 496.652C7.81234 497 6.749 497.198 5.60834 497.247L5.15884 494.825C6.31884 494.767 7.40634 494.491 8.42134 493.998C9.446 493.505 10.345 492.853 11.1183 492.041C11.9013 491.219 12.5297 490.267 13.0033 489.184C13.4867 488.092 13.7622 486.927 13.8298 485.69L12.6698 487.386ZM13.6558 483.181C13.6268 482.456 13.5205 481.756 13.3368 481.079C13.1628 480.393 12.9018 479.784 12.5538 479.252C12.2058 478.711 11.7757 478.28 11.2633 477.961C10.751 477.633 10.1468 477.468 9.45084 477.468C8.7935 477.468 8.20384 477.575 7.68184 477.787C7.15984 478 6.71517 478.295 6.34784 478.672C5.9805 479.049 5.69534 479.503 5.49234 480.035C5.299 480.567 5.20234 481.151 5.20234 481.789C5.20234 482.418 5.27967 483.003 5.43434 483.544C5.59867 484.085 5.84034 484.554 6.15934 484.95C6.488 485.347 6.89884 485.661 7.39184 485.893C7.8945 486.115 8.47934 486.226 9.14634 486.226C9.65867 486.226 10.1468 486.144 10.6108 485.98C11.0845 485.816 11.5147 485.598 11.9013 485.327C12.2977 485.047 12.6457 484.723 12.9453 484.356C13.245 483.989 13.4818 483.597 13.6558 483.181Z" fill="white"/>
<path d="M9.50884 542.247C8.68717 542.247 7.93317 542.092 7.24684 541.782C6.5605 541.463 5.94184 541.033 5.39084 540.492C4.8495 539.951 4.371 539.317 3.95534 538.592C3.54934 537.867 3.20617 537.094 2.92584 536.272C2.65517 535.441 2.45217 534.586 2.31684 533.706C2.1815 532.826 2.11384 531.966 2.11384 531.125C2.11384 530.255 2.17184 529.375 2.28784 528.486C2.40384 527.597 2.5875 526.741 2.83884 525.919C3.09017 525.098 3.40917 524.329 3.79584 523.614C4.19217 522.889 4.661 522.261 5.20234 521.729C5.75334 521.197 6.38167 520.777 7.08734 520.467C7.80267 520.158 8.60984 520.003 9.50884 520.003C10.3305 520.003 11.0845 520.163 11.7708 520.482C12.4572 520.791 13.071 521.217 13.6123 521.758C14.1633 522.299 14.6418 522.932 15.0478 523.657C15.4635 524.382 15.8067 525.161 16.0773 525.992C16.3577 526.814 16.5655 527.664 16.7008 528.544C16.8362 529.424 16.9038 530.284 16.9038 531.125C16.9038 531.995 16.8458 532.875 16.7298 533.764C16.6138 534.653 16.4302 535.509 16.1788 536.33C15.9275 537.152 15.6037 537.925 15.2073 538.65C14.8207 539.366 14.3518 539.989 13.8008 540.521C13.2595 541.053 12.6312 541.473 11.9158 541.782C11.2005 542.092 10.3982 542.247 9.50884 542.247ZM5.11534 530.501C5.11534 531.062 5.13467 531.681 5.17334 532.357C5.212 533.024 5.28934 533.701 5.40534 534.387C5.52134 535.064 5.68084 535.721 5.88384 536.359C6.0965 536.997 6.36717 537.568 6.69584 538.07C7.03417 538.563 7.44017 538.96 7.91384 539.259C8.39717 539.559 8.9675 539.709 9.62484 539.709C10.2145 539.709 10.7268 539.598 11.1618 539.375C11.6065 539.143 11.9883 538.834 12.3073 538.447C12.6263 538.051 12.8873 537.597 13.0903 537.084C13.2933 536.562 13.4528 536.007 13.5688 535.417C13.6945 534.827 13.7815 534.218 13.8298 533.59C13.8782 532.962 13.9023 532.348 13.9023 531.748C13.9023 531.188 13.883 530.574 13.8443 529.907C13.8057 529.23 13.7283 528.554 13.6123 527.877C13.4963 527.2 13.332 526.543 13.1193 525.905C12.9163 525.257 12.6457 524.687 12.3073 524.194C11.9787 523.701 11.5727 523.305 11.0893 523.005C10.6157 522.705 10.0502 522.555 9.39284 522.555C8.80317 522.555 8.286 522.671 7.84134 522.903C7.40634 523.126 7.02934 523.43 6.71034 523.817C6.39134 524.204 6.13034 524.658 5.92734 525.18C5.72434 525.702 5.56 526.258 5.43434 526.847C5.31834 527.437 5.23617 528.046 5.18784 528.674C5.1395 529.293 5.11534 529.902 5.11534 530.501Z" fill="white"/>
<path d="M3.52034 587V584.68H8.52284V570.673L9.36384 567.381L7.39184 570.078L4.31784 572.804L2.75184 571.05L9.39284 564.96L11.5678 565.25V584.68H16.5703V587H3.52034Z" fill="white"/>
<path d="M12.6698 37.3865C12.0995 37.8312 11.5243 38.1598 10.9443 38.3725C10.374 38.5852 9.72634 38.6915 9.00134 38.6915C8.054 38.6915 7.1695 38.5368 6.34784 38.2275C5.52617 37.9085 4.81084 37.459 4.20184 36.879C3.59284 36.299 3.11434 35.603 2.76634 34.791C2.41834 33.9693 2.24434 33.0558 2.24434 32.0505C2.24434 31.0065 2.40867 30.0543 2.73734 29.194C3.07567 28.3337 3.54934 27.5942 4.15834 26.9755C4.777 26.3472 5.52134 25.8638 6.39134 25.5255C7.271 25.1775 8.25217 25.0035 9.33484 25.0035C10.3015 25.0035 11.1522 25.1533 11.8868 25.453C12.6312 25.7527 13.274 26.149 13.8153 26.642C14.3567 27.135 14.8062 27.7005 15.1638 28.3385C15.5312 28.9765 15.8212 29.6387 16.0338 30.325C16.2562 31.0113 16.4108 31.6928 16.4978 32.3695C16.5945 33.0462 16.6428 33.6697 16.6428 34.24C16.6428 35.3613 16.5268 36.4585 16.2948 37.5315C16.0725 38.5948 15.739 39.6002 15.2943 40.5475C14.8593 41.4948 14.3228 42.3697 13.6848 43.172C13.0468 43.9647 12.317 44.6558 11.4953 45.2455C10.6833 45.8352 9.78434 46.304 8.79834 46.652C7.81234 47 6.749 47.1982 5.60834 47.2465L5.15884 44.825C6.31884 44.767 7.40634 44.4915 8.42134 43.9985C9.446 43.5055 10.345 42.853 11.1183 42.041C11.9013 41.2193 12.5297 40.2672 13.0033 39.1845C13.4867 38.0922 13.7622 36.9273 13.8298 35.69L12.6698 37.3865ZM13.6558 33.1815C13.6268 32.4565 13.5205 31.7557 13.3368 31.079C13.1628 30.3927 12.9018 29.7837 12.5538 29.252C12.2058 28.7107 11.7757 28.2805 11.2633 27.9615C10.751 27.6328 10.1468 27.4685 9.45084 27.4685C8.7935 27.4685 8.20384 27.5748 7.68184 27.7875C7.15984 28.0002 6.71517 28.295 6.34784 28.672C5.9805 29.049 5.69534 29.5033 5.49234 30.035C5.299 30.5667 5.20234 31.1515 5.20234 31.7895C5.20234 32.4178 5.27967 33.0027 5.43434 33.544C5.59867 34.0853 5.84034 34.5542 6.15934 34.9505C6.488 35.3468 6.89884 35.661 7.39184 35.893C7.8945 36.1153 8.47934 36.2265 9.14634 36.2265C9.65867 36.2265 10.1468 36.1443 10.6108 35.98C11.0845 35.8157 11.5147 35.5982 11.9013 35.3275C12.2977 35.0472 12.6457 34.7233 12.9453 34.356C13.245 33.9887 13.4818 33.5972 13.6558 33.1815Z" fill="white"/>
</g>
<defs>
<clipPath id="clip0_103_258">
<rect width="19" height="594" fill="white"/>
</clipPath>
</defs>
</svg>
