<svg width="38" height="354" viewBox="0 0 38 354" fill="none" xmlns="http://www.w3.org/2000/svg">
<path d="M3.58967 72V69.68H8.59217V55.673L9.43317 52.3815L7.46117 55.0785L4.38717 57.8045L2.82117 56.05L9.46217 49.96L11.6372 50.25V69.68H16.6397V72H3.58967ZM28.4395 72.2465C27.6178 72.2465 26.8638 72.0918 26.1775 71.7825C25.4912 71.4635 24.8725 71.0333 24.3215 70.492C23.7802 69.9507 23.3017 69.3175 22.886 68.5925C22.48 67.8675 22.1368 67.0942 21.8565 66.2725C21.5858 65.4412 21.3828 64.5857 21.2475 63.706C21.1122 62.8263 21.0445 61.966 21.0445 61.125C21.0445 60.255 21.1025 59.3753 21.2185 58.486C21.3345 57.5967 21.5182 56.7412 21.7695 55.9195C22.0208 55.0978 22.3398 54.3293 22.7265 53.614C23.1228 52.889 23.5917 52.2607 24.133 51.729C24.684 51.1973 25.3123 50.7768 26.018 50.4675C26.7333 50.1582 27.5405 50.0035 28.4395 50.0035C29.2612 50.0035 30.0152 50.163 30.7015 50.482C31.3878 50.7913 32.0017 51.2167 32.543 51.758C33.094 52.2993 33.5725 52.9325 33.9785 53.6575C34.3942 54.3825 34.7373 55.1607 35.008 55.992C35.2883 56.8137 35.4962 57.6643 35.6315 58.544C35.7668 59.4237 35.8345 60.284 35.8345 61.125C35.8345 61.995 35.7765 62.8747 35.6605 63.764C35.5445 64.6533 35.3608 65.5088 35.1095 66.3305C34.8582 67.1522 34.5343 67.9255 34.138 68.6505C33.7513 69.3658 33.2825 69.9893 32.7315 70.521C32.1902 71.0527 31.5618 71.4732 30.8465 71.7825C30.1312 72.0918 29.3288 72.2465 28.4395 72.2465ZM24.046 60.5015C24.046 61.0622 24.0653 61.6808 24.104 62.3575C24.1427 63.0245 24.22 63.7012 24.336 64.3875C24.452 65.0642 24.6115 65.7215 24.8145 66.3595C25.0272 66.9975 25.2978 67.5678 25.6265 68.0705C25.9648 68.5635 26.3708 68.9598 26.8445 69.2595C27.3278 69.5592 27.8982 69.709 28.5555 69.709C29.1452 69.709 29.6575 69.5978 30.0925 69.3755C30.5372 69.1435 30.919 68.8342 31.238 68.4475C31.557 68.0512 31.818 67.5968 32.021 67.0845C32.224 66.5625 32.3835 66.0067 32.4995 65.417C32.6252 64.8273 32.7122 64.2183 32.7605 63.59C32.8088 62.9617 32.833 62.3478 32.833 61.7485C32.833 61.1878 32.8137 60.574 32.775 59.907C32.7363 59.2303 32.659 58.5537 32.543 57.877C32.427 57.2003 32.2627 56.543 32.05 55.905C31.847 55.2573 31.5763 54.687 31.238 54.194C30.9093 53.701 30.5033 53.3047 30.02 53.005C29.5463 52.7053 28.9808 52.5555 28.3235 52.5555C27.7338 52.5555 27.2167 52.6715 26.772 52.9035C26.337 53.1258 25.96 53.4303 25.641 53.817C25.322 54.2037 25.061 54.658 24.858 55.18C24.655 55.702 24.4907 56.2578 24.365 56.8475C24.249 57.4372 24.1668 58.0462 24.1185 58.6745C24.0702 59.2932 24.046 59.9022 24.046 60.5015Z" fill="white"/>
<path d="M9.57817 97.2465C8.75651 97.2465 8.00251 97.0918 7.31617 96.7825C6.62984 96.4635 6.01117 96.0333 5.46017 95.492C4.91884 94.9507 4.44034 94.3175 4.02467 93.5925C3.61867 92.8675 3.27551 92.0942 2.99517 91.2725C2.72451 90.4412 2.52151 89.5857 2.38617 88.706C2.25084 87.8263 2.18317 86.966 2.18317 86.125C2.18317 85.255 2.24117 84.3753 2.35717 83.486C2.47317 82.5967 2.65684 81.7412 2.90817 80.9195C3.15951 80.0978 3.47851 79.3293 3.86517 78.614C4.26151 77.889 4.73034 77.2607 5.27167 76.729C5.82267 76.1973 6.45101 75.7768 7.15667 75.4675C7.87201 75.1582 8.67917 75.0035 9.57817 75.0035C10.3998 75.0035 11.1538 75.163 11.8402 75.482C12.5265 75.7913 13.1403 76.2167 13.6817 76.758C14.2327 77.2993 14.7112 77.9325 15.1172 78.6575C15.5328 79.3825 15.876 80.1607 16.1467 80.992C16.427 81.8137 16.6348 82.6643 16.7702 83.544C16.9055 84.4237 16.9732 85.284 16.9732 86.125C16.9732 86.995 16.9152 87.8747 16.7992 88.764C16.6832 89.6533 16.4995 90.5088 16.2482 91.3305C15.9968 92.1522 15.673 92.9255 15.2767 93.6505C14.89 94.3658 14.4212 94.9893 13.8702 95.521C13.3288 96.0527 12.7005 96.4732 11.9852 96.7825C11.2698 97.0918 10.4675 97.2465 9.57817 97.2465ZM5.18467 85.5015C5.18467 86.0622 5.20401 86.6808 5.24267 87.3575C5.28134 88.0245 5.35867 88.7012 5.47467 89.3875C5.59067 90.0642 5.75017 90.7215 5.95317 91.3595C6.16584 91.9975 6.43651 92.5678 6.76517 93.0705C7.10351 93.5635 7.50951 93.9598 7.98317 94.2595C8.46651 94.5592 9.03684 94.709 9.69417 94.709C10.2838 94.709 10.7962 94.5978 11.2312 94.3755C11.6758 94.1435 12.0577 93.8342 12.3767 93.4475C12.6957 93.0512 12.9567 92.5968 13.1597 92.0845C13.3627 91.5625 13.5222 91.0067 13.6382 90.417C13.7638 89.8273 13.8508 89.2183 13.8992 88.59C13.9475 87.9617 13.9717 87.3478 13.9717 86.7485C13.9717 86.1878 13.9523 85.574 13.9137 84.907C13.875 84.2303 13.7977 83.5537 13.6817 82.877C13.5657 82.2003 13.4013 81.543 13.1887 80.905C12.9857 80.2573 12.715 79.687 12.3767 79.194C12.048 78.701 11.642 78.3047 11.1587 78.005C10.685 77.7053 10.1195 77.5555 9.46217 77.5555C8.87251 77.5555 8.35534 77.6715 7.91067 77.9035C7.47567 78.1258 7.09867 78.4303 6.77967 78.817C6.46067 79.2037 6.19967 79.658 5.99667 80.18C5.79367 80.702 5.62934 81.2578 5.50367 81.8475C5.38767 82.4372 5.30551 83.0462 5.25717 83.6745C5.20884 84.2932 5.18467 84.9022 5.18467 85.5015ZM28.4395 97.2465C27.6178 97.2465 26.8638 97.0918 26.1775 96.7825C25.4912 96.4635 24.8725 96.0333 24.3215 95.492C23.7802 94.9507 23.3017 94.3175 22.886 93.5925C22.48 92.8675 22.1368 92.0942 21.8565 91.2725C21.5858 90.4412 21.3828 89.5857 21.2475 88.706C21.1122 87.8263 21.0445 86.966 21.0445 86.125C21.0445 85.255 21.1025 84.3753 21.2185 83.486C21.3345 82.5967 21.5182 81.7412 21.7695 80.9195C22.0208 80.0978 22.3398 79.3293 22.7265 78.614C23.1228 77.889 23.5917 77.2607 24.133 76.729C24.684 76.1973 25.3123 75.7768 26.018 75.4675C26.7333 75.1582 27.5405 75.0035 28.4395 75.0035C29.2612 75.0035 30.0152 75.163 30.7015 75.482C31.3878 75.7913 32.0017 76.2167 32.543 76.758C33.094 77.2993 33.5725 77.9325 33.9785 78.6575C34.3942 79.3825 34.7373 80.1607 35.008 80.992C35.2883 81.8137 35.4962 82.6643 35.6315 83.544C35.7668 84.4237 35.8345 85.284 35.8345 86.125C35.8345 86.995 35.7765 87.8747 35.6605 88.764C35.5445 89.6533 35.3608 90.5088 35.1095 91.3305C34.8582 92.1522 34.5343 92.9255 34.138 93.6505C33.7513 94.3658 33.2825 94.9893 32.7315 95.521C32.1902 96.0527 31.5618 96.4732 30.8465 96.7825C30.1312 97.0918 29.3288 97.2465 28.4395 97.2465ZM24.046 85.5015C24.046 86.0622 24.0653 86.6808 24.104 87.3575C24.1427 88.0245 24.22 88.7012 24.336 89.3875C24.452 90.0642 24.6115 90.7215 24.8145 91.3595C25.0272 91.9975 25.2978 92.5678 25.6265 93.0705C25.9648 93.5635 26.3708 93.9598 26.8445 94.2595C27.3278 94.5592 27.8982 94.709 28.5555 94.709C29.1452 94.709 29.6575 94.5978 30.0925 94.3755C30.5372 94.1435 30.919 93.8342 31.238 93.4475C31.557 93.0512 31.818 92.5968 32.021 92.0845C32.224 91.5625 32.3835 91.0067 32.4995 90.417C32.6252 89.8273 32.7122 89.2183 32.7605 88.59C32.8088 87.9617 32.833 87.3478 32.833 86.7485C32.833 86.1878 32.8137 85.574 32.775 84.907C32.7363 84.2303 32.659 83.5537 32.543 82.877C32.427 82.2003 32.2627 81.543 32.05 80.905C31.847 80.2573 31.5763 79.687 31.238 79.194C30.9093 78.701 30.5033 78.3047 30.02 78.005C29.5463 77.7053 28.9808 77.5555 28.3235 77.5555C27.7338 77.5555 27.2167 77.6715 26.772 77.9035C26.337 78.1258 25.96 78.4303 25.641 78.817C25.322 79.2037 25.061 79.658 24.858 80.18C24.655 80.702 24.4907 81.2578 24.365 81.8475C24.249 82.4372 24.1668 83.0462 24.1185 83.6745C24.0702 84.2932 24.046 84.9022 24.046 85.5015Z" fill="white"/>
<path d="M3.58967 122V119.68H8.59217V105.673L9.43317 102.381L7.46117 105.078L4.38717 107.804L2.82117 106.05L9.46217 99.96L11.6372 100.25V119.68H16.6397V122H3.58967ZM28.4395 122.247C27.6178 122.247 26.8638 122.092 26.1775 121.782C25.4912 121.463 24.8725 121.033 24.3215 120.492C23.7802 119.951 23.3017 119.317 22.886 118.592C22.48 117.867 22.1368 117.094 21.8565 116.272C21.5858 115.441 21.3828 114.586 21.2475 113.706C21.1122 112.826 21.0445 111.966 21.0445 111.125C21.0445 110.255 21.1025 109.375 21.2185 108.486C21.3345 107.597 21.5182 106.741 21.7695 105.919C22.0208 105.098 22.3398 104.329 22.7265 103.614C23.1228 102.889 23.5917 102.261 24.133 101.729C24.684 101.197 25.3123 100.777 26.018 100.467C26.7333 100.158 27.5405 100.003 28.4395 100.003C29.2612 100.003 30.0152 100.163 30.7015 100.482C31.3878 100.791 32.0017 101.217 32.543 101.758C33.094 102.299 33.5725 102.932 33.9785 103.657C34.3942 104.382 34.7373 105.161 35.008 105.992C35.2883 106.814 35.4962 107.664 35.6315 108.544C35.7668 109.424 35.8345 110.284 35.8345 111.125C35.8345 111.995 35.7765 112.875 35.6605 113.764C35.5445 114.653 35.3608 115.509 35.1095 116.33C34.8582 117.152 34.5343 117.925 34.138 118.65C33.7513 119.366 33.2825 119.989 32.7315 120.521C32.1902 121.053 31.5618 121.473 30.8465 121.782C30.1312 122.092 29.3288 122.247 28.4395 122.247ZM24.046 110.501C24.046 111.062 24.0653 111.681 24.104 112.357C24.1427 113.024 24.22 113.701 24.336 114.387C24.452 115.064 24.6115 115.721 24.8145 116.359C25.0272 116.997 25.2978 117.568 25.6265 118.07C25.9648 118.563 26.3708 118.96 26.8445 119.259C27.3278 119.559 27.8982 119.709 28.5555 119.709C29.1452 119.709 29.6575 119.598 30.0925 119.375C30.5372 119.143 30.919 118.834 31.238 118.447C31.557 118.051 31.818 117.597 32.021 117.084C32.224 116.562 32.3835 116.007 32.4995 115.417C32.6252 114.827 32.7122 114.218 32.7605 113.59C32.8088 112.962 32.833 112.348 32.833 111.748C32.833 111.188 32.8137 110.574 32.775 109.907C32.7363 109.23 32.659 108.554 32.543 107.877C32.427 107.2 32.2627 106.543 32.05 105.905C31.847 105.257 31.5763 104.687 31.238 104.194C30.9093 103.701 30.5033 103.305 30.02 103.005C29.5463 102.705 28.9808 102.555 28.3235 102.555C27.7338 102.555 27.2167 102.671 26.772 102.903C26.337 103.126 25.96 103.43 25.641 103.817C25.322 104.204 25.061 104.658 24.858 105.18C24.655 105.702 24.4907 106.258 24.365 106.847C24.249 107.437 24.1668 108.046 24.1185 108.674C24.0702 109.293 24.046 109.902 24.046 110.501Z" fill="white"/>
<path d="M2.79217 147V144.564C3.23684 143.858 3.72017 143.162 4.24217 142.476C4.76417 141.79 5.29101 141.127 5.82267 140.489C6.36401 139.842 6.89084 139.228 7.40317 138.648C7.91551 138.058 8.38917 137.517 8.82417 137.024C9.32684 136.444 9.81017 135.912 10.2742 135.429C10.7478 134.936 11.1635 134.453 11.5212 133.979C11.8788 133.505 12.164 133.017 12.3767 132.514C12.5893 132.002 12.6957 131.441 12.6957 130.832C12.6957 130.368 12.6087 129.933 12.4347 129.527C12.2607 129.112 12.0142 128.754 11.6952 128.454C11.3858 128.145 11.0137 127.903 10.5787 127.729C10.1437 127.546 9.66517 127.454 9.14317 127.454C8.55351 127.454 8.04117 127.536 7.60617 127.7C7.18084 127.855 6.80384 128.063 6.47517 128.324C6.15617 128.585 5.87584 128.88 5.63417 129.208C5.40217 129.527 5.18467 129.851 4.98167 130.18L2.93717 129.31C3.18851 128.682 3.50751 128.106 3.89417 127.584C4.29051 127.053 4.75451 126.598 5.28617 126.221C5.81784 125.835 6.42201 125.535 7.09867 125.322C7.77534 125.11 8.52934 125.003 9.36067 125.003C10.337 125.003 11.207 125.177 11.9707 125.525C12.7343 125.873 13.3772 126.333 13.8992 126.903C14.4308 127.464 14.832 128.102 15.1027 128.817C15.383 129.532 15.5232 130.257 15.5232 130.992C15.5232 131.736 15.383 132.447 15.1027 133.123C14.832 133.79 14.4888 134.428 14.0732 135.037C13.6672 135.637 13.2273 136.202 12.7537 136.734C12.28 137.266 11.845 137.763 11.4487 138.227C10.946 138.817 10.4433 139.397 9.94067 139.967C9.43801 140.538 8.95467 141.098 8.49067 141.649C8.03634 142.191 7.61101 142.718 7.21467 143.23C6.81834 143.733 6.47517 144.216 6.18517 144.68H16.3352V147H2.79217ZM28.4395 147.247C27.6178 147.247 26.8638 147.092 26.1775 146.782C25.4912 146.463 24.8725 146.033 24.3215 145.492C23.7802 144.951 23.3017 144.317 22.886 143.592C22.48 142.867 22.1368 142.094 21.8565 141.272C21.5858 140.441 21.3828 139.586 21.2475 138.706C21.1122 137.826 21.0445 136.966 21.0445 136.125C21.0445 135.255 21.1025 134.375 21.2185 133.486C21.3345 132.597 21.5182 131.741 21.7695 130.919C22.0208 130.098 22.3398 129.329 22.7265 128.614C23.1228 127.889 23.5917 127.261 24.133 126.729C24.684 126.197 25.3123 125.777 26.018 125.467C26.7333 125.158 27.5405 125.003 28.4395 125.003C29.2612 125.003 30.0152 125.163 30.7015 125.482C31.3878 125.791 32.0017 126.217 32.543 126.758C33.094 127.299 33.5725 127.932 33.9785 128.657C34.3942 129.382 34.7373 130.161 35.008 130.992C35.2883 131.814 35.4962 132.664 35.6315 133.544C35.7668 134.424 35.8345 135.284 35.8345 136.125C35.8345 136.995 35.7765 137.875 35.6605 138.764C35.5445 139.653 35.3608 140.509 35.1095 141.33C34.8582 142.152 34.5343 142.925 34.138 143.65C33.7513 144.366 33.2825 144.989 32.7315 145.521C32.1902 146.053 31.5618 146.473 30.8465 146.782C30.1312 147.092 29.3288 147.247 28.4395 147.247ZM24.046 135.501C24.046 136.062 24.0653 136.681 24.104 137.357C24.1427 138.024 24.22 138.701 24.336 139.387C24.452 140.064 24.6115 140.721 24.8145 141.359C25.0272 141.997 25.2978 142.568 25.6265 143.07C25.9648 143.563 26.3708 143.96 26.8445 144.259C27.3278 144.559 27.8982 144.709 28.5555 144.709C29.1452 144.709 29.6575 144.598 30.0925 144.375C30.5372 144.143 30.919 143.834 31.238 143.447C31.557 143.051 31.818 142.597 32.021 142.084C32.224 141.562 32.3835 141.007 32.4995 140.417C32.6252 139.827 32.7122 139.218 32.7605 138.59C32.8088 137.962 32.833 137.348 32.833 136.748C32.833 136.188 32.8137 135.574 32.775 134.907C32.7363 134.23 32.659 133.554 32.543 132.877C32.427 132.2 32.2627 131.543 32.05 130.905C31.847 130.257 31.5763 129.687 31.238 129.194C30.9093 128.701 30.5033 128.305 30.02 128.005C29.5463 127.705 28.9808 127.555 28.3235 127.555C27.7338 127.555 27.2167 127.671 26.772 127.903C26.337 128.126 25.96 128.43 25.641 128.817C25.322 129.204 25.061 129.658 24.858 130.18C24.655 130.702 24.4907 131.258 24.365 131.847C24.249 132.437 24.1668 133.046 24.1185 133.674C24.0702 134.293 24.046 134.902 24.046 135.501Z" fill="white"/>
<path d="M3.43017 152.57L3.64767 150.25H14.9577V152.28C14.8417 152.667 14.6435 153.073 14.3632 153.498C14.0925 153.914 13.7687 154.339 13.3917 154.774C13.0243 155.199 12.6183 155.62 12.1737 156.035C11.7387 156.451 11.2988 156.847 10.8542 157.224L8.94017 158.297C9.03684 158.278 9.15767 158.268 9.30267 158.268C9.45734 158.259 9.60234 158.254 9.73767 158.254C10.6753 158.254 11.5453 158.37 12.3477 158.602C13.1597 158.834 13.8605 159.187 14.4502 159.66C15.0495 160.124 15.5183 160.719 15.8567 161.444C16.2047 162.159 16.3787 163.005 16.3787 163.981C16.3787 164.919 16.2047 165.77 15.8567 166.533C15.5087 167.297 15.0302 167.979 14.4212 168.578C13.8218 169.168 13.1162 169.68 12.3042 170.115C11.4922 170.54 10.6222 170.893 9.69417 171.173C8.77584 171.454 7.82367 171.662 6.83767 171.797C5.85167 171.932 4.88501 172 3.93767 172V169.68C4.74001 169.651 5.52784 169.578 6.30117 169.462C7.07451 169.346 7.80917 169.187 8.50517 168.984C9.20117 168.771 9.84401 168.515 10.4337 168.215C11.0233 167.916 11.5308 167.568 11.9562 167.171C12.3912 166.765 12.7295 166.311 12.9712 165.808C13.2128 165.296 13.3337 164.735 13.3337 164.126C13.3337 163.43 13.1838 162.85 12.8842 162.386C12.5942 161.922 12.193 161.555 11.6807 161.284C11.1683 161.014 10.5642 160.825 9.86817 160.719C9.18184 160.603 8.44234 160.545 7.64967 160.545C7.34034 160.545 7.00201 160.555 6.63467 160.574C6.27701 160.584 5.95317 160.598 5.66317 160.617V158.37C6.05951 158.08 6.48967 157.751 6.95367 157.384C7.41767 157.017 7.88651 156.635 8.36017 156.238C8.83384 155.832 9.29301 155.426 9.73767 155.02C10.192 154.605 10.6028 154.213 10.9702 153.846C11.3375 153.469 11.6468 153.121 11.8982 152.802C12.1495 152.473 12.3138 152.203 12.3912 151.99L10.1872 152.57H3.43017ZM28.4395 172.247C27.6178 172.247 26.8638 172.092 26.1775 171.782C25.4912 171.463 24.8725 171.033 24.3215 170.492C23.7802 169.951 23.3017 169.317 22.886 168.592C22.48 167.867 22.1368 167.094 21.8565 166.272C21.5858 165.441 21.3828 164.586 21.2475 163.706C21.1122 162.826 21.0445 161.966 21.0445 161.125C21.0445 160.255 21.1025 159.375 21.2185 158.486C21.3345 157.597 21.5182 156.741 21.7695 155.919C22.0208 155.098 22.3398 154.329 22.7265 153.614C23.1228 152.889 23.5917 152.261 24.133 151.729C24.684 151.197 25.3123 150.777 26.018 150.467C26.7333 150.158 27.5405 150.003 28.4395 150.003C29.2612 150.003 30.0152 150.163 30.7015 150.482C31.3878 150.791 32.0017 151.217 32.543 151.758C33.094 152.299 33.5725 152.932 33.9785 153.657C34.3942 154.382 34.7373 155.161 35.008 155.992C35.2883 156.814 35.4962 157.664 35.6315 158.544C35.7668 159.424 35.8345 160.284 35.8345 161.125C35.8345 161.995 35.7765 162.875 35.6605 163.764C35.5445 164.653 35.3608 165.509 35.1095 166.33C34.8582 167.152 34.5343 167.925 34.138 168.65C33.7513 169.366 33.2825 169.989 32.7315 170.521C32.1902 171.053 31.5618 171.473 30.8465 171.782C30.1312 172.092 29.3288 172.247 28.4395 172.247ZM24.046 160.501C24.046 161.062 24.0653 161.681 24.104 162.357C24.1427 163.024 24.22 163.701 24.336 164.387C24.452 165.064 24.6115 165.721 24.8145 166.359C25.0272 166.997 25.2978 167.568 25.6265 168.07C25.9648 168.563 26.3708 168.96 26.8445 169.259C27.3278 169.559 27.8982 169.709 28.5555 169.709C29.1452 169.709 29.6575 169.598 30.0925 169.375C30.5372 169.143 30.919 168.834 31.238 168.447C31.557 168.051 31.818 167.597 32.021 167.084C32.224 166.562 32.3835 166.007 32.4995 165.417C32.6252 164.827 32.7122 164.218 32.7605 163.59C32.8088 162.962 32.833 162.348 32.833 161.748C32.833 161.188 32.8137 160.574 32.775 159.907C32.7363 159.23 32.659 158.554 32.543 157.877C32.427 157.2 32.2627 156.543 32.05 155.905C31.847 155.257 31.5763 154.687 31.238 154.194C30.9093 153.701 30.5033 153.305 30.02 153.005C29.5463 152.705 28.9808 152.555 28.3235 152.555C27.7338 152.555 27.2167 152.671 26.772 152.903C26.337 153.126 25.96 153.43 25.641 153.817C25.322 154.204 25.061 154.658 24.858 155.18C24.655 155.702 24.4907 156.258 24.365 156.847C24.249 157.437 24.1668 158.046 24.1185 158.674C24.0702 159.293 24.046 159.902 24.046 160.501Z" fill="white"/>
<path d="M16.6107 192.65H14.0007V197H10.9557V192.65H2.32817V190.17L9.34617 174.96L12.0867 175.25L6.06917 188.3L4.72067 190.33H10.9557V184.428L14.0007 184.675V190.33H16.8282L16.6107 192.65ZM28.4395 197.247C27.6178 197.247 26.8638 197.092 26.1775 196.782C25.4912 196.463 24.8725 196.033 24.3215 195.492C23.7802 194.951 23.3017 194.317 22.886 193.592C22.48 192.867 22.1368 192.094 21.8565 191.272C21.5858 190.441 21.3828 189.586 21.2475 188.706C21.1122 187.826 21.0445 186.966 21.0445 186.125C21.0445 185.255 21.1025 184.375 21.2185 183.486C21.3345 182.597 21.5182 181.741 21.7695 180.919C22.0208 180.098 22.3398 179.329 22.7265 178.614C23.1228 177.889 23.5917 177.261 24.133 176.729C24.684 176.197 25.3123 175.777 26.018 175.467C26.7333 175.158 27.5405 175.003 28.4395 175.003C29.2612 175.003 30.0152 175.163 30.7015 175.482C31.3878 175.791 32.0017 176.217 32.543 176.758C33.094 177.299 33.5725 177.932 33.9785 178.657C34.3942 179.382 34.7373 180.161 35.008 180.992C35.2883 181.814 35.4962 182.664 35.6315 183.544C35.7668 184.424 35.8345 185.284 35.8345 186.125C35.8345 186.995 35.7765 187.875 35.6605 188.764C35.5445 189.653 35.3608 190.509 35.1095 191.33C34.8582 192.152 34.5343 192.925 34.138 193.65C33.7513 194.366 33.2825 194.989 32.7315 195.521C32.1902 196.053 31.5618 196.473 30.8465 196.782C30.1312 197.092 29.3288 197.247 28.4395 197.247ZM24.046 185.501C24.046 186.062 24.0653 186.681 24.104 187.357C24.1427 188.024 24.22 188.701 24.336 189.387C24.452 190.064 24.6115 190.721 24.8145 191.359C25.0272 191.997 25.2978 192.568 25.6265 193.07C25.9648 193.563 26.3708 193.96 26.8445 194.259C27.3278 194.559 27.8982 194.709 28.5555 194.709C29.1452 194.709 29.6575 194.598 30.0925 194.375C30.5372 194.143 30.919 193.834 31.238 193.447C31.557 193.051 31.818 192.597 32.021 192.084C32.224 191.562 32.3835 191.007 32.4995 190.417C32.6252 189.827 32.7122 189.218 32.7605 188.59C32.8088 187.962 32.833 187.348 32.833 186.748C32.833 186.188 32.8137 185.574 32.775 184.907C32.7363 184.23 32.659 183.554 32.543 182.877C32.427 182.2 32.2627 181.543 32.05 180.905C31.847 180.257 31.5763 179.687 31.238 179.194C30.9093 178.701 30.5033 178.305 30.02 178.005C29.5463 177.705 28.9808 177.555 28.3235 177.555C27.7338 177.555 27.2167 177.671 26.772 177.903C26.337 178.126 25.96 178.43 25.641 178.817C25.322 179.204 25.061 179.658 24.858 180.18C24.655 180.702 24.4907 181.258 24.365 181.847C24.249 182.437 24.1668 183.046 24.1185 183.674C24.0702 184.293 24.046 184.902 24.046 185.501Z" fill="white"/>
<path d="M6.75067 207.761C6.81834 207.722 6.93434 207.659 7.09867 207.572C7.27267 207.485 7.48534 207.398 7.73667 207.311C7.98801 207.224 8.27317 207.152 8.59217 207.094C8.92084 207.026 9.28334 206.992 9.67967 206.992C10.685 206.992 11.5792 207.152 12.3622 207.471C13.1548 207.78 13.8218 208.21 14.3632 208.761C14.9142 209.303 15.3298 209.941 15.6102 210.675C15.9002 211.41 16.0452 212.193 16.0452 213.024C16.0452 214.001 15.8712 214.905 15.5232 215.736C15.1752 216.558 14.6967 217.302 14.0877 217.969C13.4883 218.626 12.7827 219.206 11.9707 219.709C11.1683 220.212 10.308 220.637 9.38967 220.985C8.48101 221.323 7.54334 221.579 6.57667 221.753C5.61001 221.918 4.66267 222 3.73467 222V219.68C4.45967 219.661 5.19434 219.574 5.93867 219.419C6.68301 219.264 7.39834 219.052 8.08467 218.781C8.78067 218.51 9.42834 218.186 10.0277 217.809C10.6367 217.432 11.1635 217.012 11.6082 216.548C12.0625 216.084 12.4202 215.581 12.6812 215.04C12.9422 214.499 13.0727 213.928 13.0727 213.329C13.0727 212.836 12.9905 212.357 12.8262 211.893C12.6715 211.429 12.4347 211.019 12.1157 210.661C11.8063 210.294 11.4148 209.999 10.9412 209.776C10.4675 209.554 9.91651 209.443 9.28817 209.443C8.79517 209.443 8.35051 209.477 7.95417 209.544C7.55784 209.602 7.20501 209.68 6.89567 209.776C6.58634 209.873 6.31567 209.979 6.08367 210.095C5.86134 210.202 5.67767 210.303 5.53267 210.4H3.73467V200.25H14.6532V202.57H6.75067V207.761ZM28.4395 222.247C27.6178 222.247 26.8638 222.092 26.1775 221.782C25.4912 221.463 24.8725 221.033 24.3215 220.492C23.7802 219.951 23.3017 219.317 22.886 218.592C22.48 217.867 22.1368 217.094 21.8565 216.272C21.5858 215.441 21.3828 214.586 21.2475 213.706C21.1122 212.826 21.0445 211.966 21.0445 211.125C21.0445 210.255 21.1025 209.375 21.2185 208.486C21.3345 207.597 21.5182 206.741 21.7695 205.919C22.0208 205.098 22.3398 204.329 22.7265 203.614C23.1228 202.889 23.5917 202.261 24.133 201.729C24.684 201.197 25.3123 200.777 26.018 200.467C26.7333 200.158 27.5405 200.003 28.4395 200.003C29.2612 200.003 30.0152 200.163 30.7015 200.482C31.3878 200.791 32.0017 201.217 32.543 201.758C33.094 202.299 33.5725 202.932 33.9785 203.657C34.3942 204.382 34.7373 205.161 35.008 205.992C35.2883 206.814 35.4962 207.664 35.6315 208.544C35.7668 209.424 35.8345 210.284 35.8345 211.125C35.8345 211.995 35.7765 212.875 35.6605 213.764C35.5445 214.653 35.3608 215.509 35.1095 216.33C34.8582 217.152 34.5343 217.925 34.138 218.65C33.7513 219.366 33.2825 219.989 32.7315 220.521C32.1902 221.053 31.5618 221.473 30.8465 221.782C30.1312 222.092 29.3288 222.247 28.4395 222.247ZM24.046 210.501C24.046 211.062 24.0653 211.681 24.104 212.357C24.1427 213.024 24.22 213.701 24.336 214.387C24.452 215.064 24.6115 215.721 24.8145 216.359C25.0272 216.997 25.2978 217.568 25.6265 218.07C25.9648 218.563 26.3708 218.96 26.8445 219.259C27.3278 219.559 27.8982 219.709 28.5555 219.709C29.1452 219.709 29.6575 219.598 30.0925 219.375C30.5372 219.143 30.919 218.834 31.238 218.447C31.557 218.051 31.818 217.597 32.021 217.084C32.224 216.562 32.3835 216.007 32.4995 215.417C32.6252 214.827 32.7122 214.218 32.7605 213.59C32.8088 212.962 32.833 212.348 32.833 211.748C32.833 211.188 32.8137 210.574 32.775 209.907C32.7363 209.23 32.659 208.554 32.543 207.877C32.427 207.2 32.2627 206.543 32.05 205.905C31.847 205.257 31.5763 204.687 31.238 204.194C30.9093 203.701 30.5033 203.305 30.02 203.005C29.5463 202.705 28.9808 202.555 28.3235 202.555C27.7338 202.555 27.2167 202.671 26.772 202.903C26.337 203.126 25.96 203.43 25.641 203.817C25.322 204.204 25.061 204.658 24.858 205.18C24.655 205.702 24.4907 206.258 24.365 206.847C24.249 207.437 24.1668 208.046 24.1185 208.674C24.0702 209.293 24.046 209.902 24.046 210.501Z" fill="white"/>
<path d="M14.0442 227.512C13.9765 227.493 13.875 227.483 13.7397 227.483C13.614 227.473 13.498 227.468 13.3917 227.468C12.6957 227.468 12.019 227.58 11.3617 227.802C10.7043 228.015 10.0857 228.319 9.50567 228.715C8.92567 229.112 8.38917 229.585 7.89617 230.136C7.41284 230.687 6.98267 231.296 6.60567 231.963C6.23834 232.621 5.93384 233.326 5.69217 234.08C5.45051 234.834 5.29101 235.613 5.21367 236.415L6.41717 234.718C6.65884 234.564 6.93917 234.419 7.25817 234.283C7.58684 234.138 7.93001 234.013 8.28767 233.906C8.64534 233.8 9.00784 233.718 9.37517 233.66C9.74251 233.592 10.0905 233.558 10.4192 233.558C11.2602 233.558 12.0673 233.674 12.8407 233.906C13.6237 234.138 14.3148 234.496 14.9142 234.979C15.5232 235.463 16.0065 236.086 16.3642 236.85C16.7315 237.604 16.9152 238.508 16.9152 239.561C16.9152 240.605 16.7363 241.596 16.3787 242.534C16.0307 243.462 15.5377 244.279 14.8997 244.984C14.2617 245.68 13.498 246.231 12.6087 246.637C11.7193 247.044 10.7333 247.247 9.65067 247.247C8.70334 247.247 7.86234 247.097 7.12767 246.797C6.40267 246.488 5.76951 246.082 5.22817 245.579C4.68684 245.076 4.23251 244.501 3.86517 243.853C3.50751 243.206 3.21267 242.544 2.98067 241.867C2.75834 241.181 2.59884 240.504 2.50217 239.837C2.40551 239.17 2.35717 238.561 2.35717 238.01C2.35717 236.86 2.47317 235.738 2.70517 234.646C2.94684 233.554 3.29001 232.529 3.73467 231.572C4.18901 230.605 4.74001 229.721 5.38767 228.918C6.03534 228.106 6.77001 227.415 7.59167 226.845C8.42301 226.265 9.33167 225.815 10.3177 225.496C11.3133 225.168 12.3815 225.003 13.5222 225.003C13.6672 225.003 13.8267 225.008 14.0007 225.018C14.1747 225.018 14.31 225.028 14.4067 225.047L14.0442 227.512ZM5.34417 238.343C5.34417 238.614 5.34417 238.861 5.34417 239.083C5.35384 239.305 5.36834 239.523 5.38767 239.735C5.40701 239.948 5.43601 240.166 5.47467 240.388C5.51334 240.601 5.56651 240.837 5.63417 241.098C5.76951 241.649 5.95317 242.152 6.18517 242.606C6.42684 243.051 6.71201 243.438 7.04067 243.766C7.37901 244.085 7.76567 244.337 8.20067 244.52C8.64534 244.694 9.14317 244.781 9.69417 244.781C10.4578 244.781 11.1055 244.636 11.6372 244.346C12.1785 244.056 12.6183 243.675 12.9567 243.201C13.295 242.718 13.5415 242.171 13.6962 241.562C13.8605 240.953 13.9427 240.335 13.9427 239.706C13.9427 239.097 13.8508 238.561 13.6672 238.097C13.4932 237.633 13.2418 237.251 12.9132 236.951C12.5845 236.642 12.1882 236.41 11.7242 236.255C11.2698 236.101 10.7623 236.023 10.2017 236.023C9.67967 236.023 9.17217 236.086 8.67917 236.212C8.18617 236.338 7.72217 236.507 7.28717 236.719C6.86184 236.932 6.48001 237.179 6.14167 237.459C5.81301 237.739 5.54717 238.034 5.34417 238.343ZM28.4395 247.247C27.6178 247.247 26.8638 247.092 26.1775 246.782C25.4912 246.463 24.8725 246.033 24.3215 245.492C23.7802 244.951 23.3017 244.317 22.886 243.592C22.48 242.867 22.1368 242.094 21.8565 241.272C21.5858 240.441 21.3828 239.586 21.2475 238.706C21.1122 237.826 21.0445 236.966 21.0445 236.125C21.0445 235.255 21.1025 234.375 21.2185 233.486C21.3345 232.597 21.5182 231.741 21.7695 230.919C22.0208 230.098 22.3398 229.329 22.7265 228.614C23.1228 227.889 23.5917 227.261 24.133 226.729C24.684 226.197 25.3123 225.777 26.018 225.467C26.7333 225.158 27.5405 225.003 28.4395 225.003C29.2612 225.003 30.0152 225.163 30.7015 225.482C31.3878 225.791 32.0017 226.217 32.543 226.758C33.094 227.299 33.5725 227.932 33.9785 228.657C34.3942 229.382 34.7373 230.161 35.008 230.992C35.2883 231.814 35.4962 232.664 35.6315 233.544C35.7668 234.424 35.8345 235.284 35.8345 236.125C35.8345 236.995 35.7765 237.875 35.6605 238.764C35.5445 239.653 35.3608 240.509 35.1095 241.33C34.8582 242.152 34.5343 242.925 34.138 243.65C33.7513 244.366 33.2825 244.989 32.7315 245.521C32.1902 246.053 31.5618 246.473 30.8465 246.782C30.1312 247.092 29.3288 247.247 28.4395 247.247ZM24.046 235.501C24.046 236.062 24.0653 236.681 24.104 237.357C24.1427 238.024 24.22 238.701 24.336 239.387C24.452 240.064 24.6115 240.721 24.8145 241.359C25.0272 241.997 25.2978 242.568 25.6265 243.07C25.9648 243.563 26.3708 243.96 26.8445 244.259C27.3278 244.559 27.8982 244.709 28.5555 244.709C29.1452 244.709 29.6575 244.598 30.0925 244.375C30.5372 244.143 30.919 243.834 31.238 243.447C31.557 243.051 31.818 242.597 32.021 242.084C32.224 241.562 32.3835 241.007 32.4995 240.417C32.6252 239.827 32.7122 239.218 32.7605 238.59C32.8088 237.962 32.833 237.348 32.833 236.748C32.833 236.188 32.8137 235.574 32.775 234.907C32.7363 234.23 32.659 233.554 32.543 232.877C32.427 232.2 32.2627 231.543 32.05 230.905C31.847 230.257 31.5763 229.687 31.238 229.194C30.9093 228.701 30.5033 228.305 30.02 228.005C29.5463 227.705 28.9808 227.555 28.3235 227.555C27.7338 227.555 27.2167 227.671 26.772 227.903C26.337 228.126 25.96 228.43 25.641 228.817C25.322 229.204 25.061 229.658 24.858 230.18C24.655 230.702 24.4907 231.258 24.365 231.847C24.249 232.437 24.1668 233.046 24.1185 233.674C24.0702 234.293 24.046 234.902 24.046 235.501Z" fill="white"/>
<path d="M2.70517 250.25H16.3787V252.135C16.3787 252.551 16.2192 253.087 15.9002 253.744C15.5908 254.392 15.1945 255.122 14.7112 255.934C14.2278 256.746 13.6962 257.621 13.1162 258.558C12.5458 259.486 11.9997 260.443 11.4777 261.429C10.9653 262.406 10.5158 263.387 10.1292 264.373C9.74251 265.359 9.49601 266.311 9.38967 267.229C9.34134 267.626 9.30267 268.037 9.27367 268.462C9.25434 268.878 9.23501 269.293 9.21567 269.709C9.20601 270.125 9.20117 270.531 9.20117 270.927V272H6.22867C6.22867 271.71 6.22867 271.323 6.22867 270.84C6.23834 270.347 6.25284 269.83 6.27217 269.288C6.29151 268.747 6.32534 268.211 6.37367 267.679C6.42201 267.147 6.48484 266.693 6.56217 266.316C6.78451 265.282 7.09867 264.267 7.50467 263.271C7.92034 262.266 8.36984 261.304 8.85317 260.385C9.34617 259.457 9.84884 258.583 10.3612 257.761C10.8735 256.939 11.3375 256.195 11.7532 255.528C12.1688 254.851 12.5072 254.262 12.7682 253.759C13.0388 253.256 13.1742 252.86 13.1742 252.57H2.70517V250.25ZM28.4395 272.247C27.6178 272.247 26.8638 272.092 26.1775 271.782C25.4912 271.463 24.8725 271.033 24.3215 270.492C23.7802 269.951 23.3017 269.317 22.886 268.592C22.48 267.867 22.1368 267.094 21.8565 266.272C21.5858 265.441 21.3828 264.586 21.2475 263.706C21.1122 262.826 21.0445 261.966 21.0445 261.125C21.0445 260.255 21.1025 259.375 21.2185 258.486C21.3345 257.597 21.5182 256.741 21.7695 255.919C22.0208 255.098 22.3398 254.329 22.7265 253.614C23.1228 252.889 23.5917 252.261 24.133 251.729C24.684 251.197 25.3123 250.777 26.018 250.467C26.7333 250.158 27.5405 250.003 28.4395 250.003C29.2612 250.003 30.0152 250.163 30.7015 250.482C31.3878 250.791 32.0017 251.217 32.543 251.758C33.094 252.299 33.5725 252.932 33.9785 253.657C34.3942 254.382 34.7373 255.161 35.008 255.992C35.2883 256.814 35.4962 257.664 35.6315 258.544C35.7668 259.424 35.8345 260.284 35.8345 261.125C35.8345 261.995 35.7765 262.875 35.6605 263.764C35.5445 264.653 35.3608 265.509 35.1095 266.33C34.8582 267.152 34.5343 267.925 34.138 268.65C33.7513 269.366 33.2825 269.989 32.7315 270.521C32.1902 271.053 31.5618 271.473 30.8465 271.782C30.1312 272.092 29.3288 272.247 28.4395 272.247ZM24.046 260.501C24.046 261.062 24.0653 261.681 24.104 262.357C24.1427 263.024 24.22 263.701 24.336 264.387C24.452 265.064 24.6115 265.721 24.8145 266.359C25.0272 266.997 25.2978 267.568 25.6265 268.07C25.9648 268.563 26.3708 268.96 26.8445 269.259C27.3278 269.559 27.8982 269.709 28.5555 269.709C29.1452 269.709 29.6575 269.598 30.0925 269.375C30.5372 269.143 30.919 268.834 31.238 268.447C31.557 268.051 31.818 267.597 32.021 267.084C32.224 266.562 32.3835 266.007 32.4995 265.417C32.6252 264.827 32.7122 264.218 32.7605 263.59C32.8088 262.962 32.833 262.348 32.833 261.748C32.833 261.188 32.8137 260.574 32.775 259.907C32.7363 259.23 32.659 258.554 32.543 257.877C32.427 257.2 32.2627 256.543 32.05 255.905C31.847 255.257 31.5763 254.687 31.238 254.194C30.9093 253.701 30.5033 253.305 30.02 253.005C29.5463 252.705 28.9808 252.555 28.3235 252.555C27.7338 252.555 27.2167 252.671 26.772 252.903C26.337 253.126 25.96 253.43 25.641 253.817C25.322 254.204 25.061 254.658 24.858 255.18C24.655 255.702 24.4907 256.258 24.365 256.847C24.249 257.437 24.1668 258.046 24.1185 258.674C24.0702 259.293 24.046 259.902 24.046 260.501Z" fill="white"/>
<path d="M9.28817 275.003C10.1678 275.003 10.9847 275.124 11.7387 275.366C12.4927 275.608 13.1403 275.956 13.6817 276.41C14.2327 276.864 14.6628 277.415 14.9722 278.063C15.2815 278.711 15.4362 279.44 15.4362 280.252C15.4362 280.823 15.3492 281.33 15.1752 281.775C15.0108 282.22 14.7837 282.621 14.4937 282.978C14.2037 283.326 13.8653 283.645 13.4787 283.935C13.1017 284.216 12.7005 284.482 12.2752 284.733C12.9905 285.052 13.6285 285.419 14.1892 285.835C14.7595 286.241 15.238 286.705 15.6247 287.227C16.021 287.739 16.3207 288.314 16.5237 288.952C16.7363 289.59 16.8427 290.291 16.8427 291.055C16.8427 292.128 16.63 293.056 16.2047 293.839C15.7793 294.612 15.2138 295.255 14.5082 295.767C13.8122 296.27 13.0147 296.642 12.1157 296.884C11.2263 297.126 10.3128 297.247 9.37517 297.247C8.45684 297.247 7.57234 297.111 6.72167 296.84C5.87101 296.56 5.11701 296.154 4.45967 295.622C3.81201 295.081 3.29001 294.414 2.89367 293.621C2.49734 292.819 2.29917 291.896 2.29917 290.852C2.29917 290.079 2.41034 289.378 2.63267 288.749C2.85501 288.121 3.15951 287.556 3.54617 287.053C3.93284 286.55 4.39201 286.106 4.92367 285.719C5.45534 285.323 6.03051 284.975 6.64917 284.675C6.19484 284.395 5.76951 284.105 5.37317 283.805C4.98651 283.505 4.64334 283.186 4.34367 282.848C4.05367 282.5 3.82167 282.128 3.64767 281.731C3.48334 281.335 3.40117 280.895 3.40117 280.412C3.40117 279.474 3.58484 278.667 3.95217 277.99C4.32917 277.304 4.80767 276.743 5.38767 276.308C5.96767 275.864 6.60084 275.535 7.28717 275.322C7.98317 275.11 8.65017 275.003 9.28817 275.003ZM9.12867 285.98C8.51967 286.241 7.96867 286.531 7.47567 286.85C6.99234 287.159 6.57667 287.517 6.22867 287.923C5.89034 288.319 5.62451 288.774 5.43117 289.286C5.24751 289.789 5.15567 290.359 5.15567 290.997C5.15567 291.577 5.27167 292.104 5.50367 292.577C5.74534 293.051 6.05951 293.462 6.44617 293.81C6.84251 294.148 7.29684 294.409 7.80917 294.593C8.32151 294.777 8.84834 294.869 9.38967 294.869C10.0083 294.869 10.5932 294.786 11.1442 294.622C11.7048 294.448 12.193 294.197 12.6087 293.868C13.034 293.539 13.3675 293.133 13.6092 292.65C13.8508 292.167 13.9717 291.611 13.9717 290.982C13.9717 290.335 13.8267 289.76 13.5367 289.257C13.2563 288.745 12.8842 288.29 12.4202 287.894C11.9658 287.488 11.4487 287.13 10.8687 286.821C10.2983 286.512 9.71834 286.231 9.12867 285.98ZM9.72317 283.616C10.6125 283.22 11.3182 282.742 11.8402 282.181C12.3718 281.62 12.6377 280.939 12.6377 280.136C12.6377 279.653 12.5362 279.237 12.3332 278.889C12.1398 278.541 11.8933 278.256 11.5937 278.034C11.294 277.812 10.9605 277.652 10.5932 277.555C10.2355 277.449 9.89234 277.396 9.56367 277.396C9.12867 277.396 8.70817 277.464 8.30217 277.599C7.89617 277.725 7.53851 277.908 7.22917 278.15C6.91984 278.392 6.66851 278.677 6.47517 279.005C6.29151 279.334 6.19967 279.692 6.19967 280.078C6.19967 280.523 6.29151 280.919 6.47517 281.267C6.66851 281.606 6.92467 281.915 7.24367 282.195C7.57234 282.466 7.94934 282.717 8.37467 282.949C8.80001 283.181 9.24951 283.404 9.72317 283.616ZM28.4395 297.247C27.6178 297.247 26.8638 297.092 26.1775 296.782C25.4912 296.463 24.8725 296.033 24.3215 295.492C23.7802 294.951 23.3017 294.317 22.886 293.592C22.48 292.867 22.1368 292.094 21.8565 291.272C21.5858 290.441 21.3828 289.586 21.2475 288.706C21.1122 287.826 21.0445 286.966 21.0445 286.125C21.0445 285.255 21.1025 284.375 21.2185 283.486C21.3345 282.597 21.5182 281.741 21.7695 280.919C22.0208 280.098 22.3398 279.329 22.7265 278.614C23.1228 277.889 23.5917 277.261 24.133 276.729C24.684 276.197 25.3123 275.777 26.018 275.467C26.7333 275.158 27.5405 275.003 28.4395 275.003C29.2612 275.003 30.0152 275.163 30.7015 275.482C31.3878 275.791 32.0017 276.217 32.543 276.758C33.094 277.299 33.5725 277.932 33.9785 278.657C34.3942 279.382 34.7373 280.161 35.008 280.992C35.2883 281.814 35.4962 282.664 35.6315 283.544C35.7668 284.424 35.8345 285.284 35.8345 286.125C35.8345 286.995 35.7765 287.875 35.6605 288.764C35.5445 289.653 35.3608 290.509 35.1095 291.33C34.8582 292.152 34.5343 292.925 34.138 293.65C33.7513 294.366 33.2825 294.989 32.7315 295.521C32.1902 296.053 31.5618 296.473 30.8465 296.782C30.1312 297.092 29.3288 297.247 28.4395 297.247ZM24.046 285.501C24.046 286.062 24.0653 286.681 24.104 287.357C24.1427 288.024 24.22 288.701 24.336 289.387C24.452 290.064 24.6115 290.721 24.8145 291.359C25.0272 291.997 25.2978 292.568 25.6265 293.07C25.9648 293.563 26.3708 293.96 26.8445 294.259C27.3278 294.559 27.8982 294.709 28.5555 294.709C29.1452 294.709 29.6575 294.598 30.0925 294.375C30.5372 294.143 30.919 293.834 31.238 293.447C31.557 293.051 31.818 292.597 32.021 292.084C32.224 291.562 32.3835 291.007 32.4995 290.417C32.6252 289.827 32.7122 289.218 32.7605 288.59C32.8088 287.962 32.833 287.348 32.833 286.748C32.833 286.188 32.8137 285.574 32.775 284.907C32.7363 284.23 32.659 283.554 32.543 282.877C32.427 282.2 32.2627 281.543 32.05 280.905C31.847 280.257 31.5763 279.687 31.238 279.194C30.9093 278.701 30.5033 278.305 30.02 278.005C29.5463 277.705 28.9808 277.555 28.3235 277.555C27.7338 277.555 27.2167 277.671 26.772 277.903C26.337 278.126 25.96 278.43 25.641 278.817C25.322 279.204 25.061 279.658 24.858 280.18C24.655 280.702 24.4907 281.258 24.365 281.847C24.249 282.437 24.1668 283.046 24.1185 283.674C24.0702 284.293 24.046 284.902 24.046 285.501Z" fill="white"/>
<path d="M12.7392 312.386C12.1688 312.831 11.5937 313.16 11.0137 313.372C10.4433 313.585 9.79567 313.691 9.07067 313.691C8.12334 313.691 7.23884 313.537 6.41717 313.227C5.59551 312.908 4.88017 312.459 4.27117 311.879C3.66217 311.299 3.18367 310.603 2.83567 309.791C2.48767 308.969 2.31367 308.056 2.31367 307.05C2.31367 306.006 2.47801 305.054 2.80667 304.194C3.14501 303.334 3.61867 302.594 4.22767 301.975C4.84634 301.347 5.59067 300.864 6.46067 300.525C7.34034 300.177 8.32151 300.003 9.40417 300.003C10.3708 300.003 11.2215 300.153 11.9562 300.453C12.7005 300.753 13.3433 301.149 13.8847 301.642C14.426 302.135 14.8755 302.7 15.2332 303.338C15.6005 303.976 15.8905 304.639 16.1032 305.325C16.3255 306.011 16.4802 306.693 16.5672 307.369C16.6638 308.046 16.7122 308.67 16.7122 309.24C16.7122 310.361 16.5962 311.458 16.3642 312.531C16.1418 313.595 15.8083 314.6 15.3637 315.547C14.9287 316.495 14.3922 317.37 13.7542 318.172C13.1162 318.965 12.3863 319.656 11.5647 320.245C10.7527 320.835 9.85367 321.304 8.86767 321.652C7.88167 322 6.81834 322.198 5.67767 322.247L5.22817 319.825C6.38817 319.767 7.47567 319.491 8.49067 318.998C9.51534 318.505 10.4143 317.853 11.1877 317.041C11.9707 316.219 12.599 315.267 13.0727 314.184C13.556 313.092 13.8315 311.927 13.8992 310.69L12.7392 312.386ZM13.7252 308.181C13.6962 307.456 13.5898 306.756 13.4062 306.079C13.2322 305.393 12.9712 304.784 12.6232 304.252C12.2752 303.711 11.845 303.28 11.3327 302.961C10.8203 302.633 10.2162 302.468 9.52017 302.468C8.86284 302.468 8.27317 302.575 7.75117 302.787C7.22917 303 6.78451 303.295 6.41717 303.672C6.04984 304.049 5.76467 304.503 5.56167 305.035C5.36834 305.567 5.27167 306.151 5.27167 306.789C5.27167 307.418 5.34901 308.003 5.50367 308.544C5.66801 309.085 5.90967 309.554 6.22867 309.95C6.55734 310.347 6.96817 310.661 7.46117 310.893C7.96384 311.115 8.54867 311.226 9.21567 311.226C9.72801 311.226 10.2162 311.144 10.6802 310.98C11.1538 310.816 11.584 310.598 11.9707 310.327C12.367 310.047 12.715 309.723 13.0147 309.356C13.3143 308.989 13.5512 308.597 13.7252 308.181ZM28.4395 322.247C27.6178 322.247 26.8638 322.092 26.1775 321.782C25.4912 321.463 24.8725 321.033 24.3215 320.492C23.7802 319.951 23.3017 319.317 22.886 318.592C22.48 317.867 22.1368 317.094 21.8565 316.272C21.5858 315.441 21.3828 314.586 21.2475 313.706C21.1122 312.826 21.0445 311.966 21.0445 311.125C21.0445 310.255 21.1025 309.375 21.2185 308.486C21.3345 307.597 21.5182 306.741 21.7695 305.919C22.0208 305.098 22.3398 304.329 22.7265 303.614C23.1228 302.889 23.5917 302.261 24.133 301.729C24.684 301.197 25.3123 300.777 26.018 300.467C26.7333 300.158 27.5405 300.003 28.4395 300.003C29.2612 300.003 30.0152 300.163 30.7015 300.482C31.3878 300.791 32.0017 301.217 32.543 301.758C33.094 302.299 33.5725 302.932 33.9785 303.657C34.3942 304.382 34.7373 305.161 35.008 305.992C35.2883 306.814 35.4962 307.664 35.6315 308.544C35.7668 309.424 35.8345 310.284 35.8345 311.125C35.8345 311.995 35.7765 312.875 35.6605 313.764C35.5445 314.653 35.3608 315.509 35.1095 316.33C34.8582 317.152 34.5343 317.925 34.138 318.65C33.7513 319.366 33.2825 319.989 32.7315 320.521C32.1902 321.053 31.5618 321.473 30.8465 321.782C30.1312 322.092 29.3288 322.247 28.4395 322.247ZM24.046 310.501C24.046 311.062 24.0653 311.681 24.104 312.357C24.1427 313.024 24.22 313.701 24.336 314.387C24.452 315.064 24.6115 315.721 24.8145 316.359C25.0272 316.997 25.2978 317.568 25.6265 318.07C25.9648 318.563 26.3708 318.96 26.8445 319.259C27.3278 319.559 27.8982 319.709 28.5555 319.709C29.1452 319.709 29.6575 319.598 30.0925 319.375C30.5372 319.143 30.919 318.834 31.238 318.447C31.557 318.051 31.818 317.597 32.021 317.084C32.224 316.562 32.3835 316.007 32.4995 315.417C32.6252 314.827 32.7122 314.218 32.7605 313.59C32.8088 312.962 32.833 312.348 32.833 311.748C32.833 311.188 32.8137 310.574 32.775 309.907C32.7363 309.23 32.659 308.554 32.543 307.877C32.427 307.2 32.2627 306.543 32.05 305.905C31.847 305.257 31.5763 304.687 31.238 304.194C30.9093 303.701 30.5033 303.305 30.02 303.005C29.5463 302.705 28.9808 302.555 28.3235 302.555C27.7338 302.555 27.2167 302.671 26.772 302.903C26.337 303.126 25.96 303.43 25.641 303.817C25.322 304.204 25.061 304.658 24.858 305.18C24.655 305.702 24.4907 306.258 24.365 306.847C24.249 307.437 24.1668 308.046 24.1185 308.674C24.0702 309.293 24.046 309.902 24.046 310.501Z" fill="white"/>
<path d="M9.57817 347.247C8.75651 347.247 8.00251 347.092 7.31617 346.782C6.62984 346.463 6.01117 346.033 5.46017 345.492C4.91884 344.951 4.44034 344.317 4.02467 343.592C3.61867 342.867 3.27551 342.094 2.99517 341.272C2.72451 340.441 2.52151 339.586 2.38617 338.706C2.25084 337.826 2.18317 336.966 2.18317 336.125C2.18317 335.255 2.24117 334.375 2.35717 333.486C2.47317 332.597 2.65684 331.741 2.90817 330.919C3.15951 330.098 3.47851 329.329 3.86517 328.614C4.26151 327.889 4.73034 327.261 5.27167 326.729C5.82267 326.197 6.45101 325.777 7.15667 325.467C7.87201 325.158 8.67917 325.003 9.57817 325.003C10.3998 325.003 11.1538 325.163 11.8402 325.482C12.5265 325.791 13.1403 326.217 13.6817 326.758C14.2327 327.299 14.7112 327.932 15.1172 328.657C15.5328 329.382 15.876 330.161 16.1467 330.992C16.427 331.814 16.6348 332.664 16.7702 333.544C16.9055 334.424 16.9732 335.284 16.9732 336.125C16.9732 336.995 16.9152 337.875 16.7992 338.764C16.6832 339.653 16.4995 340.509 16.2482 341.33C15.9968 342.152 15.673 342.925 15.2767 343.65C14.89 344.366 14.4212 344.989 13.8702 345.521C13.3288 346.053 12.7005 346.473 11.9852 346.782C11.2698 347.092 10.4675 347.247 9.57817 347.247ZM5.18467 335.501C5.18467 336.062 5.20401 336.681 5.24267 337.357C5.28134 338.024 5.35867 338.701 5.47467 339.387C5.59067 340.064 5.75017 340.721 5.95317 341.359C6.16584 341.997 6.43651 342.568 6.76517 343.07C7.10351 343.563 7.50951 343.96 7.98317 344.259C8.46651 344.559 9.03684 344.709 9.69417 344.709C10.2838 344.709 10.7962 344.598 11.2312 344.375C11.6758 344.143 12.0577 343.834 12.3767 343.447C12.6957 343.051 12.9567 342.597 13.1597 342.084C13.3627 341.562 13.5222 341.007 13.6382 340.417C13.7638 339.827 13.8508 339.218 13.8992 338.59C13.9475 337.962 13.9717 337.348 13.9717 336.748C13.9717 336.188 13.9523 335.574 13.9137 334.907C13.875 334.23 13.7977 333.554 13.6817 332.877C13.5657 332.2 13.4013 331.543 13.1887 330.905C12.9857 330.257 12.715 329.687 12.3767 329.194C12.048 328.701 11.642 328.305 11.1587 328.005C10.685 327.705 10.1195 327.555 9.46217 327.555C8.87251 327.555 8.35534 327.671 7.91067 327.903C7.47567 328.126 7.09867 328.43 6.77967 328.817C6.46067 329.204 6.19967 329.658 5.99667 330.18C5.79367 330.702 5.62934 331.258 5.50367 331.847C5.38767 332.437 5.30551 333.046 5.25717 333.674C5.20884 334.293 5.18467 334.902 5.18467 335.501ZM28.4395 347.247C27.6178 347.247 26.8638 347.092 26.1775 346.782C25.4912 346.463 24.8725 346.033 24.3215 345.492C23.7802 344.951 23.3017 344.317 22.886 343.592C22.48 342.867 22.1368 342.094 21.8565 341.272C21.5858 340.441 21.3828 339.586 21.2475 338.706C21.1122 337.826 21.0445 336.966 21.0445 336.125C21.0445 335.255 21.1025 334.375 21.2185 333.486C21.3345 332.597 21.5182 331.741 21.7695 330.919C22.0208 330.098 22.3398 329.329 22.7265 328.614C23.1228 327.889 23.5917 327.261 24.133 326.729C24.684 326.197 25.3123 325.777 26.018 325.467C26.7333 325.158 27.5405 325.003 28.4395 325.003C29.2612 325.003 30.0152 325.163 30.7015 325.482C31.3878 325.791 32.0017 326.217 32.543 326.758C33.094 327.299 33.5725 327.932 33.9785 328.657C34.3942 329.382 34.7373 330.161 35.008 330.992C35.2883 331.814 35.4962 332.664 35.6315 333.544C35.7668 334.424 35.8345 335.284 35.8345 336.125C35.8345 336.995 35.7765 337.875 35.6605 338.764C35.5445 339.653 35.3608 340.509 35.1095 341.33C34.8582 342.152 34.5343 342.925 34.138 343.65C33.7513 344.366 33.2825 344.989 32.7315 345.521C32.1902 346.053 31.5618 346.473 30.8465 346.782C30.1312 347.092 29.3288 347.247 28.4395 347.247ZM24.046 335.501C24.046 336.062 24.0653 336.681 24.104 337.357C24.1427 338.024 24.22 338.701 24.336 339.387C24.452 340.064 24.6115 340.721 24.8145 341.359C25.0272 341.997 25.2978 342.568 25.6265 343.07C25.9648 343.563 26.3708 343.96 26.8445 344.259C27.3278 344.559 27.8982 344.709 28.5555 344.709C29.1452 344.709 29.6575 344.598 30.0925 344.375C30.5372 344.143 30.919 343.834 31.238 343.447C31.557 343.051 31.818 342.597 32.021 342.084C32.224 341.562 32.3835 341.007 32.4995 340.417C32.6252 339.827 32.7122 339.218 32.7605 338.59C32.8088 337.962 32.833 337.348 32.833 336.748C32.833 336.188 32.8137 335.574 32.775 334.907C32.7363 334.23 32.659 333.554 32.543 332.877C32.427 332.2 32.2627 331.543 32.05 330.905C31.847 330.257 31.5763 329.687 31.238 329.194C30.9093 328.701 30.5033 328.305 30.02 328.005C29.5463 327.705 28.9808 327.555 28.3235 327.555C27.7338 327.555 27.2167 327.671 26.772 327.903C26.337 328.126 25.96 328.43 25.641 328.817C25.322 329.204 25.061 329.658 24.858 330.18C24.655 330.702 24.4907 331.258 24.365 331.847C24.249 332.437 24.1668 333.046 24.1185 333.674C24.0702 334.293 24.046 334.902 24.046 335.501Z" fill="white"/>
<path d="M2.79217 47V44.564C3.23684 43.8583 3.72017 43.1623 4.24217 42.476C4.76417 41.7897 5.29101 41.1275 5.82267 40.4895C6.36401 39.8418 6.89084 39.228 7.40317 38.648C7.91551 38.0583 8.38917 37.517 8.82417 37.024C9.32684 36.444 9.81017 35.9123 10.2742 35.429C10.7478 34.936 11.1635 34.4527 11.5212 33.979C11.8788 33.5053 12.164 33.0172 12.3767 32.5145C12.5893 32.0022 12.6957 31.4415 12.6957 30.8325C12.6957 30.3685 12.6087 29.9335 12.4347 29.5275C12.2607 29.1118 12.0142 28.7542 11.6952 28.4545C11.3858 28.1452 11.0137 27.9035 10.5787 27.7295C10.1437 27.5458 9.66517 27.454 9.14317 27.454C8.55351 27.454 8.04117 27.5362 7.60617 27.7005C7.18084 27.8552 6.80384 28.063 6.47517 28.324C6.15617 28.585 5.87584 28.8798 5.63417 29.2085C5.40217 29.5275 5.18467 29.8513 4.98167 30.18L2.93717 29.31C3.18851 28.6817 3.50751 28.1065 3.89417 27.5845C4.29051 27.0528 4.75451 26.5985 5.28617 26.2215C5.81784 25.8348 6.42201 25.5352 7.09867 25.3225C7.77534 25.1098 8.52934 25.0035 9.36067 25.0035C10.337 25.0035 11.207 25.1775 11.9707 25.5255C12.7343 25.8735 13.3772 26.3327 13.8992 26.903C14.4308 27.4637 14.832 28.1017 15.1027 28.817C15.383 29.5323 15.5232 30.2573 15.5232 30.992C15.5232 31.7363 15.383 32.4468 15.1027 33.1235C14.832 33.7905 14.4888 34.4285 14.0732 35.0375C13.6672 35.6368 13.2273 36.2023 12.7537 36.734C12.28 37.2657 11.845 37.7635 11.4487 38.2275C10.946 38.8172 10.4433 39.3972 9.94067 39.9675C9.43801 40.5378 8.95467 41.0985 8.49067 41.6495C8.03634 42.1908 7.61101 42.7177 7.21467 43.23C6.81834 43.7327 6.47517 44.216 6.18517 44.68H16.3352V47H2.79217ZM28.4395 47.2465C27.6178 47.2465 26.8638 47.0918 26.1775 46.7825C25.4912 46.4635 24.8725 46.0333 24.3215 45.492C23.7802 44.9507 23.3017 44.3175 22.886 43.5925C22.48 42.8675 22.1368 42.0942 21.8565 41.2725C21.5858 40.4412 21.3828 39.5857 21.2475 38.706C21.1122 37.8263 21.0445 36.966 21.0445 36.125C21.0445 35.255 21.1025 34.3753 21.2185 33.486C21.3345 32.5967 21.5182 31.7412 21.7695 30.9195C22.0208 30.0978 22.3398 29.3293 22.7265 28.614C23.1228 27.889 23.5917 27.2607 24.133 26.729C24.684 26.1973 25.3123 25.7768 26.018 25.4675C26.7333 25.1582 27.5405 25.0035 28.4395 25.0035C29.2612 25.0035 30.0152 25.163 30.7015 25.482C31.3878 25.7913 32.0017 26.2167 32.543 26.758C33.094 27.2993 33.5725 27.9325 33.9785 28.6575C34.3942 29.3825 34.7373 30.1607 35.008 30.992C35.2883 31.8137 35.4962 32.6643 35.6315 33.544C35.7668 34.4237 35.8345 35.284 35.8345 36.125C35.8345 36.995 35.7765 37.8747 35.6605 38.764C35.5445 39.6533 35.3608 40.5088 35.1095 41.3305C34.8582 42.1522 34.5343 42.9255 34.138 43.6505C33.7513 44.3658 33.2825 44.9893 32.7315 45.521C32.1902 46.0527 31.5618 46.4732 30.8465 46.7825C30.1312 47.0918 29.3288 47.2465 28.4395 47.2465ZM24.046 35.5015C24.046 36.0622 24.0653 36.6808 24.104 37.3575C24.1427 38.0245 24.22 38.7012 24.336 39.3875C24.452 40.0642 24.6115 40.7215 24.8145 41.3595C25.0272 41.9975 25.2978 42.5678 25.6265 43.0705C25.9648 43.5635 26.3708 43.9598 26.8445 44.2595C27.3278 44.5592 27.8982 44.709 28.5555 44.709C29.1452 44.709 29.6575 44.5978 30.0925 44.3755C30.5372 44.1435 30.919 43.8342 31.238 43.4475C31.557 43.0512 31.818 42.5968 32.021 42.0845C32.224 41.5625 32.3835 41.0067 32.4995 40.417C32.6252 39.8273 32.7122 39.2183 32.7605 38.59C32.8088 37.9617 32.833 37.3478 32.833 36.7485C32.833 36.1878 32.8137 35.574 32.775 34.907C32.7363 34.2303 32.659 33.5537 32.543 32.877C32.427 32.2003 32.2627 31.543 32.05 30.905C31.847 30.2573 31.5763 29.687 31.238 29.194C30.9093 28.701 30.5033 28.3047 30.02 28.005C29.5463 27.7053 28.9808 27.5555 28.3235 27.5555C27.7338 27.5555 27.2167 27.6715 26.772 27.9035C26.337 28.1258 25.96 28.4303 25.641 28.817C25.322 29.2037 25.061 29.658 24.858 30.18C24.655 30.702 24.4907 31.2578 24.365 31.8475C24.249 32.4372 24.1668 33.0462 24.1185 33.6745C24.0702 34.2932 24.046 34.9022 24.046 35.5015Z" fill="white"/>
</svg>
