<svg width="38" height="354" viewBox="0 0 38 354" fill="none" xmlns="http://www.w3.org/2000/svg">
<path d="M9.57817 72.2465C8.75651 72.2465 8.00251 72.0918 7.31617 71.7825C6.62984 71.4635 6.01117 71.0333 5.46017 70.492C4.91884 69.9507 4.44034 69.3175 4.02467 68.5925C3.61867 67.8675 3.27551 67.0942 2.99517 66.2725C2.72451 65.4412 2.52151 64.5857 2.38617 63.706C2.25084 62.8263 2.18317 61.966 2.18317 61.125C2.18317 60.255 2.24117 59.3753 2.35717 58.486C2.47317 57.5967 2.65684 56.7412 2.90817 55.9195C3.15951 55.0978 3.47851 54.3293 3.86517 53.614C4.26151 52.889 4.73034 52.2607 5.27167 51.729C5.82267 51.1973 6.45101 50.7768 7.15667 50.4675C7.87201 50.1582 8.67917 50.0035 9.57817 50.0035C10.3998 50.0035 11.1538 50.163 11.8402 50.482C12.5265 50.7913 13.1403 51.2167 13.6817 51.758C14.2327 52.2993 14.7112 52.9325 15.1172 53.6575C15.5328 54.3825 15.876 55.1607 16.1467 55.992C16.427 56.8137 16.6348 57.6643 16.7702 58.544C16.9055 59.4237 16.9732 60.284 16.9732 61.125C16.9732 61.995 16.9152 62.8747 16.7992 63.764C16.6832 64.6533 16.4995 65.5088 16.2482 66.3305C15.9968 67.1522 15.673 67.9255 15.2767 68.6505C14.89 69.3658 14.4212 69.9893 13.8702 70.521C13.3288 71.0527 12.7005 71.4732 11.9852 71.7825C11.2698 72.0918 10.4675 72.2465 9.57817 72.2465ZM5.18467 60.5015C5.18467 61.0622 5.20401 61.6808 5.24267 62.3575C5.28134 63.0245 5.35867 63.7012 5.47467 64.3875C5.59067 65.0642 5.75017 65.7215 5.95317 66.3595C6.16584 66.9975 6.43651 67.5678 6.76517 68.0705C7.10351 68.5635 7.50951 68.9598 7.98317 69.2595C8.46651 69.5592 9.03684 69.709 9.69417 69.709C10.2838 69.709 10.7962 69.5978 11.2312 69.3755C11.6758 69.1435 12.0577 68.8342 12.3767 68.4475C12.6957 68.0512 12.9567 67.5968 13.1597 67.0845C13.3627 66.5625 13.5222 66.0067 13.6382 65.417C13.7638 64.8273 13.8508 64.2183 13.8992 63.59C13.9475 62.9617 13.9717 62.3478 13.9717 61.7485C13.9717 61.1878 13.9523 60.574 13.9137 59.907C13.875 59.2303 13.7977 58.5537 13.6817 57.877C13.5657 57.2003 13.4013 56.543 13.1887 55.905C12.9857 55.2573 12.715 54.687 12.3767 54.194C12.048 53.701 11.642 53.3047 11.1587 53.005C10.685 52.7053 10.1195 52.5555 9.46217 52.5555C8.87251 52.5555 8.35534 52.6715 7.91067 52.9035C7.47567 53.1258 7.09867 53.4303 6.77967 53.817C6.46067 54.2037 6.19967 54.658 5.99667 55.18C5.79367 55.702 5.62934 56.2578 5.50367 56.8475C5.38767 57.4372 5.30551 58.0462 5.25717 58.6745C5.20884 59.2932 5.18467 59.9022 5.18467 60.5015ZM28.4395 72.2465C27.6178 72.2465 26.8638 72.0918 26.1775 71.7825C25.4912 71.4635 24.8725 71.0333 24.3215 70.492C23.7802 69.9507 23.3017 69.3175 22.886 68.5925C22.48 67.8675 22.1368 67.0942 21.8565 66.2725C21.5858 65.4412 21.3828 64.5857 21.2475 63.706C21.1122 62.8263 21.0445 61.966 21.0445 61.125C21.0445 60.255 21.1025 59.3753 21.2185 58.486C21.3345 57.5967 21.5182 56.7412 21.7695 55.9195C22.0208 55.0978 22.3398 54.3293 22.7265 53.614C23.1228 52.889 23.5917 52.2607 24.133 51.729C24.684 51.1973 25.3123 50.7768 26.018 50.4675C26.7333 50.1582 27.5405 50.0035 28.4395 50.0035C29.2612 50.0035 30.0152 50.163 30.7015 50.482C31.3878 50.7913 32.0017 51.2167 32.543 51.758C33.094 52.2993 33.5725 52.9325 33.9785 53.6575C34.3942 54.3825 34.7373 55.1607 35.008 55.992C35.2883 56.8137 35.4962 57.6643 35.6315 58.544C35.7668 59.4237 35.8345 60.284 35.8345 61.125C35.8345 61.995 35.7765 62.8747 35.6605 63.764C35.5445 64.6533 35.3608 65.5088 35.1095 66.3305C34.8582 67.1522 34.5343 67.9255 34.138 68.6505C33.7513 69.3658 33.2825 69.9893 32.7315 70.521C32.1902 71.0527 31.5618 71.4732 30.8465 71.7825C30.1312 72.0918 29.3288 72.2465 28.4395 72.2465ZM24.046 60.5015C24.046 61.0622 24.0653 61.6808 24.104 62.3575C24.1427 63.0245 24.22 63.7012 24.336 64.3875C24.452 65.0642 24.6115 65.7215 24.8145 66.3595C25.0272 66.9975 25.2978 67.5678 25.6265 68.0705C25.9648 68.5635 26.3708 68.9598 26.8445 69.2595C27.3278 69.5592 27.8982 69.709 28.5555 69.709C29.1452 69.709 29.6575 69.5978 30.0925 69.3755C30.5372 69.1435 30.919 68.8342 31.238 68.4475C31.557 68.0512 31.818 67.5968 32.021 67.0845C32.224 66.5625 32.3835 66.0067 32.4995 65.417C32.6252 64.8273 32.7122 64.2183 32.7605 63.59C32.8088 62.9617 32.833 62.3478 32.833 61.7485C32.833 61.1878 32.8137 60.574 32.775 59.907C32.7363 59.2303 32.659 58.5537 32.543 57.877C32.427 57.2003 32.2627 56.543 32.05 55.905C31.847 55.2573 31.5763 54.687 31.238 54.194C30.9093 53.701 30.5033 53.3047 30.02 53.005C29.5463 52.7053 28.9808 52.5555 28.3235 52.5555C27.7338 52.5555 27.2167 52.6715 26.772 52.9035C26.337 53.1258 25.96 53.4303 25.641 53.817C25.322 54.2037 25.061 54.658 24.858 55.18C24.655 55.702 24.4907 56.2578 24.365 56.8475C24.249 57.4372 24.1668 58.0462 24.1185 58.6745C24.0702 59.2932 24.046 59.9022 24.046 60.5015Z" fill="white"/>
<path d="M12.7392 87.3865C12.1688 87.8312 11.5937 88.1598 11.0137 88.3725C10.4433 88.5852 9.79567 88.6915 9.07067 88.6915C8.12334 88.6915 7.23884 88.5368 6.41717 88.2275C5.59551 87.9085 4.88017 87.459 4.27117 86.879C3.66217 86.299 3.18367 85.603 2.83567 84.791C2.48767 83.9693 2.31367 83.0558 2.31367 82.0505C2.31367 81.0065 2.47801 80.0543 2.80667 79.194C3.14501 78.3337 3.61867 77.5942 4.22767 76.9755C4.84634 76.3472 5.59067 75.8638 6.46067 75.5255C7.34034 75.1775 8.32151 75.0035 9.40417 75.0035C10.3708 75.0035 11.2215 75.1533 11.9562 75.453C12.7005 75.7527 13.3433 76.149 13.8847 76.642C14.426 77.135 14.8755 77.7005 15.2332 78.3385C15.6005 78.9765 15.8905 79.6387 16.1032 80.325C16.3255 81.0113 16.4802 81.6928 16.5672 82.3695C16.6638 83.0462 16.7122 83.6697 16.7122 84.24C16.7122 85.3613 16.5962 86.4585 16.3642 87.5315C16.1418 88.5948 15.8083 89.6002 15.3637 90.5475C14.9287 91.4948 14.3922 92.3697 13.7542 93.172C13.1162 93.9647 12.3863 94.6558 11.5647 95.2455C10.7527 95.8352 9.85367 96.304 8.86767 96.652C7.88167 97 6.81834 97.1982 5.67767 97.2465L5.22817 94.825C6.38817 94.767 7.47567 94.4915 8.49067 93.9985C9.51534 93.5055 10.4143 92.853 11.1877 92.041C11.9707 91.2193 12.599 90.2672 13.0727 89.1845C13.556 88.0922 13.8315 86.9273 13.8992 85.69L12.7392 87.3865ZM13.7252 83.1815C13.6962 82.4565 13.5898 81.7557 13.4062 81.079C13.2322 80.3927 12.9712 79.7837 12.6232 79.252C12.2752 78.7107 11.845 78.2805 11.3327 77.9615C10.8203 77.6328 10.2162 77.4685 9.52017 77.4685C8.86284 77.4685 8.27317 77.5748 7.75117 77.7875C7.22917 78.0002 6.78451 78.295 6.41717 78.672C6.04984 79.049 5.76467 79.5033 5.56167 80.035C5.36834 80.5667 5.27167 81.1515 5.27167 81.7895C5.27167 82.4178 5.34901 83.0027 5.50367 83.544C5.66801 84.0853 5.90967 84.5542 6.22867 84.9505C6.55734 85.3468 6.96817 85.661 7.46117 85.893C7.96384 86.1153 8.54867 86.2265 9.21567 86.2265C9.72801 86.2265 10.2162 86.1443 10.6802 85.98C11.1538 85.8157 11.584 85.5982 11.9707 85.3275C12.367 85.0472 12.715 84.7233 13.0147 84.356C13.3143 83.9887 13.5512 83.5972 13.7252 83.1815ZM28.4395 97.2465C27.6178 97.2465 26.8638 97.0918 26.1775 96.7825C25.4912 96.4635 24.8725 96.0333 24.3215 95.492C23.7802 94.9507 23.3017 94.3175 22.886 93.5925C22.48 92.8675 22.1368 92.0942 21.8565 91.2725C21.5858 90.4412 21.3828 89.5857 21.2475 88.706C21.1122 87.8263 21.0445 86.966 21.0445 86.125C21.0445 85.255 21.1025 84.3753 21.2185 83.486C21.3345 82.5967 21.5182 81.7412 21.7695 80.9195C22.0208 80.0978 22.3398 79.3293 22.7265 78.614C23.1228 77.889 23.5917 77.2607 24.133 76.729C24.684 76.1973 25.3123 75.7768 26.018 75.4675C26.7333 75.1582 27.5405 75.0035 28.4395 75.0035C29.2612 75.0035 30.0152 75.163 30.7015 75.482C31.3878 75.7913 32.0017 76.2167 32.543 76.758C33.094 77.2993 33.5725 77.9325 33.9785 78.6575C34.3942 79.3825 34.7373 80.1607 35.008 80.992C35.2883 81.8137 35.4962 82.6643 35.6315 83.544C35.7668 84.4237 35.8345 85.284 35.8345 86.125C35.8345 86.995 35.7765 87.8747 35.6605 88.764C35.5445 89.6533 35.3608 90.5088 35.1095 91.3305C34.8582 92.1522 34.5343 92.9255 34.138 93.6505C33.7513 94.3658 33.2825 94.9893 32.7315 95.521C32.1902 96.0527 31.5618 96.4732 30.8465 96.7825C30.1312 97.0918 29.3288 97.2465 28.4395 97.2465ZM24.046 85.5015C24.046 86.0622 24.0653 86.6808 24.104 87.3575C24.1427 88.0245 24.22 88.7012 24.336 89.3875C24.452 90.0642 24.6115 90.7215 24.8145 91.3595C25.0272 91.9975 25.2978 92.5678 25.6265 93.0705C25.9648 93.5635 26.3708 93.9598 26.8445 94.2595C27.3278 94.5592 27.8982 94.709 28.5555 94.709C29.1452 94.709 29.6575 94.5978 30.0925 94.3755C30.5372 94.1435 30.919 93.8342 31.238 93.4475C31.557 93.0512 31.818 92.5968 32.021 92.0845C32.224 91.5625 32.3835 91.0067 32.4995 90.417C32.6252 89.8273 32.7122 89.2183 32.7605 88.59C32.8088 87.9617 32.833 87.3478 32.833 86.7485C32.833 86.1878 32.8137 85.574 32.775 84.907C32.7363 84.2303 32.659 83.5537 32.543 82.877C32.427 82.2003 32.2627 81.543 32.05 80.905C31.847 80.2573 31.5763 79.687 31.238 79.194C30.9093 78.701 30.5033 78.3047 30.02 78.005C29.5463 77.7053 28.9808 77.5555 28.3235 77.5555C27.7338 77.5555 27.2167 77.6715 26.772 77.9035C26.337 78.1258 25.96 78.4303 25.641 78.817C25.322 79.2037 25.061 79.658 24.858 80.18C24.655 80.702 24.4907 81.2578 24.365 81.8475C24.249 82.4372 24.1668 83.0462 24.1185 83.6745C24.0702 84.2932 24.046 84.9022 24.046 85.5015Z" fill="white"/>
<path d="M9.28817 100.003C10.1678 100.003 10.9847 100.124 11.7387 100.366C12.4927 100.608 13.1403 100.956 13.6817 101.41C14.2327 101.864 14.6628 102.415 14.9722 103.063C15.2815 103.711 15.4362 104.44 15.4362 105.252C15.4362 105.823 15.3492 106.33 15.1752 106.775C15.0108 107.22 14.7837 107.621 14.4937 107.978C14.2037 108.326 13.8653 108.645 13.4787 108.935C13.1017 109.216 12.7005 109.482 12.2752 109.733C12.9905 110.052 13.6285 110.419 14.1892 110.835C14.7595 111.241 15.238 111.705 15.6247 112.227C16.021 112.739 16.3207 113.314 16.5237 113.952C16.7363 114.59 16.8427 115.291 16.8427 116.055C16.8427 117.128 16.63 118.056 16.2047 118.839C15.7793 119.612 15.2138 120.255 14.5082 120.767C13.8122 121.27 13.0147 121.642 12.1157 121.884C11.2263 122.126 10.3128 122.247 9.37517 122.247C8.45684 122.247 7.57234 122.111 6.72167 121.84C5.87101 121.56 5.11701 121.154 4.45967 120.622C3.81201 120.081 3.29001 119.414 2.89367 118.621C2.49734 117.819 2.29917 116.896 2.29917 115.852C2.29917 115.079 2.41034 114.378 2.63267 113.749C2.85501 113.121 3.15951 112.556 3.54617 112.053C3.93284 111.55 4.39201 111.106 4.92367 110.719C5.45534 110.323 6.03051 109.975 6.64917 109.675C6.19484 109.395 5.76951 109.105 5.37317 108.805C4.98651 108.505 4.64334 108.186 4.34367 107.848C4.05367 107.5 3.82167 107.128 3.64767 106.731C3.48334 106.335 3.40117 105.895 3.40117 105.412C3.40117 104.474 3.58484 103.667 3.95217 102.99C4.32917 102.304 4.80767 101.743 5.38767 101.308C5.96767 100.864 6.60084 100.535 7.28717 100.322C7.98317 100.11 8.65017 100.003 9.28817 100.003ZM9.12867 110.98C8.51967 111.241 7.96867 111.531 7.47567 111.85C6.99234 112.159 6.57667 112.517 6.22867 112.923C5.89034 113.319 5.62451 113.774 5.43117 114.286C5.24751 114.789 5.15567 115.359 5.15567 115.997C5.15567 116.577 5.27167 117.104 5.50367 117.577C5.74534 118.051 6.05951 118.462 6.44617 118.81C6.84251 119.148 7.29684 119.409 7.80917 119.593C8.32151 119.777 8.84834 119.869 9.38967 119.869C10.0083 119.869 10.5932 119.786 11.1442 119.622C11.7048 119.448 12.193 119.197 12.6087 118.868C13.034 118.539 13.3675 118.133 13.6092 117.65C13.8508 117.167 13.9717 116.611 13.9717 115.982C13.9717 115.335 13.8267 114.76 13.5367 114.257C13.2563 113.745 12.8842 113.29 12.4202 112.894C11.9658 112.488 11.4487 112.13 10.8687 111.821C10.2983 111.512 9.71834 111.231 9.12867 110.98ZM9.72317 108.616C10.6125 108.22 11.3182 107.742 11.8402 107.181C12.3718 106.62 12.6377 105.939 12.6377 105.136C12.6377 104.653 12.5362 104.237 12.3332 103.889C12.1398 103.541 11.8933 103.256 11.5937 103.034C11.294 102.812 10.9605 102.652 10.5932 102.555C10.2355 102.449 9.89234 102.396 9.56367 102.396C9.12867 102.396 8.70817 102.464 8.30217 102.599C7.89617 102.725 7.53851 102.908 7.22917 103.15C6.91984 103.392 6.66851 103.677 6.47517 104.005C6.29151 104.334 6.19967 104.692 6.19967 105.078C6.19967 105.523 6.29151 105.919 6.47517 106.267C6.66851 106.606 6.92467 106.915 7.24367 107.195C7.57234 107.466 7.94934 107.717 8.37467 107.949C8.80001 108.181 9.24951 108.404 9.72317 108.616ZM28.4395 122.247C27.6178 122.247 26.8638 122.092 26.1775 121.782C25.4912 121.463 24.8725 121.033 24.3215 120.492C23.7802 119.951 23.3017 119.317 22.886 118.592C22.48 117.867 22.1368 117.094 21.8565 116.272C21.5858 115.441 21.3828 114.586 21.2475 113.706C21.1122 112.826 21.0445 111.966 21.0445 111.125C21.0445 110.255 21.1025 109.375 21.2185 108.486C21.3345 107.597 21.5182 106.741 21.7695 105.919C22.0208 105.098 22.3398 104.329 22.7265 103.614C23.1228 102.889 23.5917 102.261 24.133 101.729C24.684 101.197 25.3123 100.777 26.018 100.467C26.7333 100.158 27.5405 100.003 28.4395 100.003C29.2612 100.003 30.0152 100.163 30.7015 100.482C31.3878 100.791 32.0017 101.217 32.543 101.758C33.094 102.299 33.5725 102.932 33.9785 103.657C34.3942 104.382 34.7373 105.161 35.008 105.992C35.2883 106.814 35.4962 107.664 35.6315 108.544C35.7668 109.424 35.8345 110.284 35.8345 111.125C35.8345 111.995 35.7765 112.875 35.6605 113.764C35.5445 114.653 35.3608 115.509 35.1095 116.33C34.8582 117.152 34.5343 117.925 34.138 118.65C33.7513 119.366 33.2825 119.989 32.7315 120.521C32.1902 121.053 31.5618 121.473 30.8465 121.782C30.1312 122.092 29.3288 122.247 28.4395 122.247ZM24.046 110.501C24.046 111.062 24.0653 111.681 24.104 112.357C24.1427 113.024 24.22 113.701 24.336 114.387C24.452 115.064 24.6115 115.721 24.8145 116.359C25.0272 116.997 25.2978 117.568 25.6265 118.07C25.9648 118.563 26.3708 118.96 26.8445 119.259C27.3278 119.559 27.8982 119.709 28.5555 119.709C29.1452 119.709 29.6575 119.598 30.0925 119.375C30.5372 119.143 30.919 118.834 31.238 118.447C31.557 118.051 31.818 117.597 32.021 117.084C32.224 116.562 32.3835 116.007 32.4995 115.417C32.6252 114.827 32.7122 114.218 32.7605 113.59C32.8088 112.962 32.833 112.348 32.833 111.748C32.833 111.188 32.8137 110.574 32.775 109.907C32.7363 109.23 32.659 108.554 32.543 107.877C32.427 107.2 32.2627 106.543 32.05 105.905C31.847 105.257 31.5763 104.687 31.238 104.194C30.9093 103.701 30.5033 103.305 30.02 103.005C29.5463 102.705 28.9808 102.555 28.3235 102.555C27.7338 102.555 27.2167 102.671 26.772 102.903C26.337 103.126 25.96 103.43 25.641 103.817C25.322 104.204 25.061 104.658 24.858 105.18C24.655 105.702 24.4907 106.258 24.365 106.847C24.249 107.437 24.1668 108.046 24.1185 108.674C24.0702 109.293 24.046 109.902 24.046 110.501Z" fill="white"/>
<path d="M2.70517 125.25H16.3787V127.135C16.3787 127.551 16.2192 128.087 15.9002 128.744C15.5908 129.392 15.1945 130.122 14.7112 130.934C14.2278 131.746 13.6962 132.621 13.1162 133.558C12.5458 134.486 11.9997 135.443 11.4777 136.429C10.9653 137.406 10.5158 138.387 10.1292 139.373C9.74251 140.359 9.49601 141.311 9.38967 142.229C9.34134 142.626 9.30267 143.037 9.27367 143.462C9.25434 143.878 9.23501 144.293 9.21567 144.709C9.20601 145.125 9.20117 145.531 9.20117 145.927V147H6.22867C6.22867 146.71 6.22867 146.323 6.22867 145.84C6.23834 145.347 6.25284 144.83 6.27217 144.288C6.29151 143.747 6.32534 143.211 6.37367 142.679C6.42201 142.147 6.48484 141.693 6.56217 141.316C6.78451 140.282 7.09867 139.267 7.50467 138.271C7.92034 137.266 8.36984 136.304 8.85317 135.385C9.34617 134.457 9.84884 133.583 10.3612 132.761C10.8735 131.939 11.3375 131.195 11.7532 130.528C12.1688 129.851 12.5072 129.262 12.7682 128.759C13.0388 128.256 13.1742 127.86 13.1742 127.57H2.70517V125.25ZM28.4395 147.247C27.6178 147.247 26.8638 147.092 26.1775 146.782C25.4912 146.463 24.8725 146.033 24.3215 145.492C23.7802 144.951 23.3017 144.317 22.886 143.592C22.48 142.867 22.1368 142.094 21.8565 141.272C21.5858 140.441 21.3828 139.586 21.2475 138.706C21.1122 137.826 21.0445 136.966 21.0445 136.125C21.0445 135.255 21.1025 134.375 21.2185 133.486C21.3345 132.597 21.5182 131.741 21.7695 130.919C22.0208 130.098 22.3398 129.329 22.7265 128.614C23.1228 127.889 23.5917 127.261 24.133 126.729C24.684 126.197 25.3123 125.777 26.018 125.467C26.7333 125.158 27.5405 125.003 28.4395 125.003C29.2612 125.003 30.0152 125.163 30.7015 125.482C31.3878 125.791 32.0017 126.217 32.543 126.758C33.094 127.299 33.5725 127.932 33.9785 128.657C34.3942 129.382 34.7373 130.161 35.008 130.992C35.2883 131.814 35.4962 132.664 35.6315 133.544C35.7668 134.424 35.8345 135.284 35.8345 136.125C35.8345 136.995 35.7765 137.875 35.6605 138.764C35.5445 139.653 35.3608 140.509 35.1095 141.33C34.8582 142.152 34.5343 142.925 34.138 143.65C33.7513 144.366 33.2825 144.989 32.7315 145.521C32.1902 146.053 31.5618 146.473 30.8465 146.782C30.1312 147.092 29.3288 147.247 28.4395 147.247ZM24.046 135.501C24.046 136.062 24.0653 136.681 24.104 137.357C24.1427 138.024 24.22 138.701 24.336 139.387C24.452 140.064 24.6115 140.721 24.8145 141.359C25.0272 141.997 25.2978 142.568 25.6265 143.07C25.9648 143.563 26.3708 143.96 26.8445 144.259C27.3278 144.559 27.8982 144.709 28.5555 144.709C29.1452 144.709 29.6575 144.598 30.0925 144.375C30.5372 144.143 30.919 143.834 31.238 143.447C31.557 143.051 31.818 142.597 32.021 142.084C32.224 141.562 32.3835 141.007 32.4995 140.417C32.6252 139.827 32.7122 139.218 32.7605 138.59C32.8088 137.962 32.833 137.348 32.833 136.748C32.833 136.188 32.8137 135.574 32.775 134.907C32.7363 134.23 32.659 133.554 32.543 132.877C32.427 132.2 32.2627 131.543 32.05 130.905C31.847 130.257 31.5763 129.687 31.238 129.194C30.9093 128.701 30.5033 128.305 30.02 128.005C29.5463 127.705 28.9808 127.555 28.3235 127.555C27.7338 127.555 27.2167 127.671 26.772 127.903C26.337 128.126 25.96 128.43 25.641 128.817C25.322 129.204 25.061 129.658 24.858 130.18C24.655 130.702 24.4907 131.258 24.365 131.847C24.249 132.437 24.1668 133.046 24.1185 133.674C24.0702 134.293 24.046 134.902 24.046 135.501Z" fill="white"/>
<path d="M14.0442 152.512C13.9765 152.493 13.875 152.483 13.7397 152.483C13.614 152.473 13.498 152.468 13.3917 152.468C12.6957 152.468 12.019 152.58 11.3617 152.802C10.7043 153.015 10.0857 153.319 9.50567 153.715C8.92567 154.112 8.38917 154.585 7.89617 155.136C7.41284 155.687 6.98267 156.296 6.60567 156.963C6.23834 157.621 5.93384 158.326 5.69217 159.08C5.45051 159.834 5.29101 160.613 5.21367 161.415L6.41717 159.718C6.65884 159.564 6.93917 159.419 7.25817 159.283C7.58684 159.138 7.93001 159.013 8.28767 158.906C8.64534 158.8 9.00784 158.718 9.37517 158.66C9.74251 158.592 10.0905 158.558 10.4192 158.558C11.2602 158.558 12.0673 158.674 12.8407 158.906C13.6237 159.138 14.3148 159.496 14.9142 159.979C15.5232 160.463 16.0065 161.086 16.3642 161.85C16.7315 162.604 16.9152 163.508 16.9152 164.561C16.9152 165.605 16.7363 166.596 16.3787 167.534C16.0307 168.462 15.5377 169.279 14.8997 169.984C14.2617 170.68 13.498 171.231 12.6087 171.637C11.7193 172.044 10.7333 172.247 9.65067 172.247C8.70334 172.247 7.86234 172.097 7.12767 171.797C6.40267 171.488 5.76951 171.082 5.22817 170.579C4.68684 170.076 4.23251 169.501 3.86517 168.853C3.50751 168.206 3.21267 167.544 2.98067 166.867C2.75834 166.181 2.59884 165.504 2.50217 164.837C2.40551 164.17 2.35717 163.561 2.35717 163.01C2.35717 161.86 2.47317 160.738 2.70517 159.646C2.94684 158.554 3.29001 157.529 3.73467 156.572C4.18901 155.605 4.74001 154.721 5.38767 153.918C6.03534 153.106 6.77001 152.415 7.59167 151.845C8.42301 151.265 9.33167 150.815 10.3177 150.496C11.3133 150.168 12.3815 150.003 13.5222 150.003C13.6672 150.003 13.8267 150.008 14.0007 150.018C14.1747 150.018 14.31 150.028 14.4067 150.047L14.0442 152.512ZM5.34417 163.343C5.34417 163.614 5.34417 163.861 5.34417 164.083C5.35384 164.305 5.36834 164.523 5.38767 164.735C5.40701 164.948 5.43601 165.166 5.47467 165.388C5.51334 165.601 5.56651 165.837 5.63417 166.098C5.76951 166.649 5.95317 167.152 6.18517 167.606C6.42684 168.051 6.71201 168.438 7.04067 168.766C7.37901 169.085 7.76567 169.337 8.20067 169.52C8.64534 169.694 9.14317 169.781 9.69417 169.781C10.4578 169.781 11.1055 169.636 11.6372 169.346C12.1785 169.056 12.6183 168.675 12.9567 168.201C13.295 167.718 13.5415 167.171 13.6962 166.562C13.8605 165.953 13.9427 165.335 13.9427 164.706C13.9427 164.097 13.8508 163.561 13.6672 163.097C13.4932 162.633 13.2418 162.251 12.9132 161.951C12.5845 161.642 12.1882 161.41 11.7242 161.255C11.2698 161.101 10.7623 161.023 10.2017 161.023C9.67967 161.023 9.17217 161.086 8.67917 161.212C8.18617 161.338 7.72217 161.507 7.28717 161.719C6.86184 161.932 6.48001 162.179 6.14167 162.459C5.81301 162.739 5.54717 163.034 5.34417 163.343ZM28.4395 172.247C27.6178 172.247 26.8638 172.092 26.1775 171.782C25.4912 171.463 24.8725 171.033 24.3215 170.492C23.7802 169.951 23.3017 169.317 22.886 168.592C22.48 167.867 22.1368 167.094 21.8565 166.272C21.5858 165.441 21.3828 164.586 21.2475 163.706C21.1122 162.826 21.0445 161.966 21.0445 161.125C21.0445 160.255 21.1025 159.375 21.2185 158.486C21.3345 157.597 21.5182 156.741 21.7695 155.919C22.0208 155.098 22.3398 154.329 22.7265 153.614C23.1228 152.889 23.5917 152.261 24.133 151.729C24.684 151.197 25.3123 150.777 26.018 150.467C26.7333 150.158 27.5405 150.003 28.4395 150.003C29.2612 150.003 30.0152 150.163 30.7015 150.482C31.3878 150.791 32.0017 151.217 32.543 151.758C33.094 152.299 33.5725 152.932 33.9785 153.657C34.3942 154.382 34.7373 155.161 35.008 155.992C35.2883 156.814 35.4962 157.664 35.6315 158.544C35.7668 159.424 35.8345 160.284 35.8345 161.125C35.8345 161.995 35.7765 162.875 35.6605 163.764C35.5445 164.653 35.3608 165.509 35.1095 166.33C34.8582 167.152 34.5343 167.925 34.138 168.65C33.7513 169.366 33.2825 169.989 32.7315 170.521C32.1902 171.053 31.5618 171.473 30.8465 171.782C30.1312 172.092 29.3288 172.247 28.4395 172.247ZM24.046 160.501C24.046 161.062 24.0653 161.681 24.104 162.357C24.1427 163.024 24.22 163.701 24.336 164.387C24.452 165.064 24.6115 165.721 24.8145 166.359C25.0272 166.997 25.2978 167.568 25.6265 168.07C25.9648 168.563 26.3708 168.96 26.8445 169.259C27.3278 169.559 27.8982 169.709 28.5555 169.709C29.1452 169.709 29.6575 169.598 30.0925 169.375C30.5372 169.143 30.919 168.834 31.238 168.447C31.557 168.051 31.818 167.597 32.021 167.084C32.224 166.562 32.3835 166.007 32.4995 165.417C32.6252 164.827 32.7122 164.218 32.7605 163.59C32.8088 162.962 32.833 162.348 32.833 161.748C32.833 161.188 32.8137 160.574 32.775 159.907C32.7363 159.23 32.659 158.554 32.543 157.877C32.427 157.2 32.2627 156.543 32.05 155.905C31.847 155.257 31.5763 154.687 31.238 154.194C30.9093 153.701 30.5033 153.305 30.02 153.005C29.5463 152.705 28.9808 152.555 28.3235 152.555C27.7338 152.555 27.2167 152.671 26.772 152.903C26.337 153.126 25.96 153.43 25.641 153.817C25.322 154.204 25.061 154.658 24.858 155.18C24.655 155.702 24.4907 156.258 24.365 156.847C24.249 157.437 24.1668 158.046 24.1185 158.674C24.0702 159.293 24.046 159.902 24.046 160.501Z" fill="white"/>
<path d="M6.75067 182.761C6.81834 182.722 6.93434 182.659 7.09867 182.572C7.27267 182.485 7.48534 182.398 7.73667 182.311C7.98801 182.224 8.27317 182.152 8.59217 182.094C8.92084 182.026 9.28334 181.992 9.67967 181.992C10.685 181.992 11.5792 182.152 12.3622 182.471C13.1548 182.78 13.8218 183.21 14.3632 183.761C14.9142 184.303 15.3298 184.941 15.6102 185.675C15.9002 186.41 16.0452 187.193 16.0452 188.024C16.0452 189.001 15.8712 189.905 15.5232 190.736C15.1752 191.558 14.6967 192.302 14.0877 192.969C13.4883 193.626 12.7827 194.206 11.9707 194.709C11.1683 195.212 10.308 195.637 9.38967 195.985C8.48101 196.323 7.54334 196.579 6.57667 196.753C5.61001 196.918 4.66267 197 3.73467 197V194.68C4.45967 194.661 5.19434 194.574 5.93867 194.419C6.68301 194.264 7.39834 194.052 8.08467 193.781C8.78067 193.51 9.42834 193.186 10.0277 192.809C10.6367 192.432 11.1635 192.012 11.6082 191.548C12.0625 191.084 12.4202 190.581 12.6812 190.04C12.9422 189.499 13.0727 188.928 13.0727 188.329C13.0727 187.836 12.9905 187.357 12.8262 186.893C12.6715 186.429 12.4347 186.019 12.1157 185.661C11.8063 185.294 11.4148 184.999 10.9412 184.776C10.4675 184.554 9.91651 184.443 9.28817 184.443C8.79517 184.443 8.35051 184.477 7.95417 184.544C7.55784 184.602 7.20501 184.68 6.89567 184.776C6.58634 184.873 6.31567 184.979 6.08367 185.095C5.86134 185.202 5.67767 185.303 5.53267 185.4H3.73467V175.25H14.6532V177.57H6.75067V182.761ZM28.4395 197.247C27.6178 197.247 26.8638 197.092 26.1775 196.782C25.4912 196.463 24.8725 196.033 24.3215 195.492C23.7802 194.951 23.3017 194.317 22.886 193.592C22.48 192.867 22.1368 192.094 21.8565 191.272C21.5858 190.441 21.3828 189.586 21.2475 188.706C21.1122 187.826 21.0445 186.966 21.0445 186.125C21.0445 185.255 21.1025 184.375 21.2185 183.486C21.3345 182.597 21.5182 181.741 21.7695 180.919C22.0208 180.098 22.3398 179.329 22.7265 178.614C23.1228 177.889 23.5917 177.261 24.133 176.729C24.684 176.197 25.3123 175.777 26.018 175.467C26.7333 175.158 27.5405 175.003 28.4395 175.003C29.2612 175.003 30.0152 175.163 30.7015 175.482C31.3878 175.791 32.0017 176.217 32.543 176.758C33.094 177.299 33.5725 177.932 33.9785 178.657C34.3942 179.382 34.7373 180.161 35.008 180.992C35.2883 181.814 35.4962 182.664 35.6315 183.544C35.7668 184.424 35.8345 185.284 35.8345 186.125C35.8345 186.995 35.7765 187.875 35.6605 188.764C35.5445 189.653 35.3608 190.509 35.1095 191.33C34.8582 192.152 34.5343 192.925 34.138 193.65C33.7513 194.366 33.2825 194.989 32.7315 195.521C32.1902 196.053 31.5618 196.473 30.8465 196.782C30.1312 197.092 29.3288 197.247 28.4395 197.247ZM24.046 185.501C24.046 186.062 24.0653 186.681 24.104 187.357C24.1427 188.024 24.22 188.701 24.336 189.387C24.452 190.064 24.6115 190.721 24.8145 191.359C25.0272 191.997 25.2978 192.568 25.6265 193.07C25.9648 193.563 26.3708 193.96 26.8445 194.259C27.3278 194.559 27.8982 194.709 28.5555 194.709C29.1452 194.709 29.6575 194.598 30.0925 194.375C30.5372 194.143 30.919 193.834 31.238 193.447C31.557 193.051 31.818 192.597 32.021 192.084C32.224 191.562 32.3835 191.007 32.4995 190.417C32.6252 189.827 32.7122 189.218 32.7605 188.59C32.8088 187.962 32.833 187.348 32.833 186.748C32.833 186.188 32.8137 185.574 32.775 184.907C32.7363 184.23 32.659 183.554 32.543 182.877C32.427 182.2 32.2627 181.543 32.05 180.905C31.847 180.257 31.5763 179.687 31.238 179.194C30.9093 178.701 30.5033 178.305 30.02 178.005C29.5463 177.705 28.9808 177.555 28.3235 177.555C27.7338 177.555 27.2167 177.671 26.772 177.903C26.337 178.126 25.96 178.43 25.641 178.817C25.322 179.204 25.061 179.658 24.858 180.18C24.655 180.702 24.4907 181.258 24.365 181.847C24.249 182.437 24.1668 183.046 24.1185 183.674C24.0702 184.293 24.046 184.902 24.046 185.501Z" fill="white"/>
<path d="M16.6107 217.65H14.0007V222H10.9557V217.65H2.32817V215.17L9.34617 199.96L12.0867 200.25L6.06917 213.3L4.72067 215.33H10.9557V209.428L14.0007 209.675V215.33H16.8282L16.6107 217.65ZM28.4395 222.247C27.6178 222.247 26.8638 222.092 26.1775 221.782C25.4912 221.463 24.8725 221.033 24.3215 220.492C23.7802 219.951 23.3017 219.317 22.886 218.592C22.48 217.867 22.1368 217.094 21.8565 216.272C21.5858 215.441 21.3828 214.586 21.2475 213.706C21.1122 212.826 21.0445 211.966 21.0445 211.125C21.0445 210.255 21.1025 209.375 21.2185 208.486C21.3345 207.597 21.5182 206.741 21.7695 205.919C22.0208 205.098 22.3398 204.329 22.7265 203.614C23.1228 202.889 23.5917 202.261 24.133 201.729C24.684 201.197 25.3123 200.777 26.018 200.467C26.7333 200.158 27.5405 200.003 28.4395 200.003C29.2612 200.003 30.0152 200.163 30.7015 200.482C31.3878 200.791 32.0017 201.217 32.543 201.758C33.094 202.299 33.5725 202.932 33.9785 203.657C34.3942 204.382 34.7373 205.161 35.008 205.992C35.2883 206.814 35.4962 207.664 35.6315 208.544C35.7668 209.424 35.8345 210.284 35.8345 211.125C35.8345 211.995 35.7765 212.875 35.6605 213.764C35.5445 214.653 35.3608 215.509 35.1095 216.33C34.8582 217.152 34.5343 217.925 34.138 218.65C33.7513 219.366 33.2825 219.989 32.7315 220.521C32.1902 221.053 31.5618 221.473 30.8465 221.782C30.1312 222.092 29.3288 222.247 28.4395 222.247ZM24.046 210.501C24.046 211.062 24.0653 211.681 24.104 212.357C24.1427 213.024 24.22 213.701 24.336 214.387C24.452 215.064 24.6115 215.721 24.8145 216.359C25.0272 216.997 25.2978 217.568 25.6265 218.07C25.9648 218.563 26.3708 218.96 26.8445 219.259C27.3278 219.559 27.8982 219.709 28.5555 219.709C29.1452 219.709 29.6575 219.598 30.0925 219.375C30.5372 219.143 30.919 218.834 31.238 218.447C31.557 218.051 31.818 217.597 32.021 217.084C32.224 216.562 32.3835 216.007 32.4995 215.417C32.6252 214.827 32.7122 214.218 32.7605 213.59C32.8088 212.962 32.833 212.348 32.833 211.748C32.833 211.188 32.8137 210.574 32.775 209.907C32.7363 209.23 32.659 208.554 32.543 207.877C32.427 207.2 32.2627 206.543 32.05 205.905C31.847 205.257 31.5763 204.687 31.238 204.194C30.9093 203.701 30.5033 203.305 30.02 203.005C29.5463 202.705 28.9808 202.555 28.3235 202.555C27.7338 202.555 27.2167 202.671 26.772 202.903C26.337 203.126 25.96 203.43 25.641 203.817C25.322 204.204 25.061 204.658 24.858 205.18C24.655 205.702 24.4907 206.258 24.365 206.847C24.249 207.437 24.1668 208.046 24.1185 208.674C24.0702 209.293 24.046 209.902 24.046 210.501Z" fill="white"/>
<path d="M3.43017 227.57L3.64767 225.25H14.9577V227.28C14.8417 227.667 14.6435 228.073 14.3632 228.498C14.0925 228.914 13.7687 229.339 13.3917 229.774C13.0243 230.199 12.6183 230.62 12.1737 231.035C11.7387 231.451 11.2988 231.847 10.8542 232.224L8.94017 233.297C9.03684 233.278 9.15767 233.268 9.30267 233.268C9.45734 233.259 9.60234 233.254 9.73767 233.254C10.6753 233.254 11.5453 233.37 12.3477 233.602C13.1597 233.834 13.8605 234.187 14.4502 234.66C15.0495 235.124 15.5183 235.719 15.8567 236.444C16.2047 237.159 16.3787 238.005 16.3787 238.981C16.3787 239.919 16.2047 240.77 15.8567 241.533C15.5087 242.297 15.0302 242.979 14.4212 243.578C13.8218 244.168 13.1162 244.68 12.3042 245.115C11.4922 245.54 10.6222 245.893 9.69417 246.173C8.77584 246.454 7.82367 246.662 6.83767 246.797C5.85167 246.932 4.88501 247 3.93767 247V244.68C4.74001 244.651 5.52784 244.578 6.30117 244.462C7.07451 244.346 7.80917 244.187 8.50517 243.984C9.20117 243.771 9.84401 243.515 10.4337 243.215C11.0233 242.916 11.5308 242.568 11.9562 242.171C12.3912 241.765 12.7295 241.311 12.9712 240.808C13.2128 240.296 13.3337 239.735 13.3337 239.126C13.3337 238.43 13.1838 237.85 12.8842 237.386C12.5942 236.922 12.193 236.555 11.6807 236.284C11.1683 236.014 10.5642 235.825 9.86817 235.719C9.18184 235.603 8.44234 235.545 7.64967 235.545C7.34034 235.545 7.00201 235.555 6.63467 235.574C6.27701 235.584 5.95317 235.598 5.66317 235.617V233.37C6.05951 233.08 6.48967 232.751 6.95367 232.384C7.41767 232.017 7.88651 231.635 8.36017 231.238C8.83384 230.832 9.29301 230.426 9.73767 230.02C10.192 229.605 10.6028 229.213 10.9702 228.846C11.3375 228.469 11.6468 228.121 11.8982 227.802C12.1495 227.473 12.3138 227.203 12.3912 226.99L10.1872 227.57H3.43017ZM28.4395 247.247C27.6178 247.247 26.8638 247.092 26.1775 246.782C25.4912 246.463 24.8725 246.033 24.3215 245.492C23.7802 244.951 23.3017 244.317 22.886 243.592C22.48 242.867 22.1368 242.094 21.8565 241.272C21.5858 240.441 21.3828 239.586 21.2475 238.706C21.1122 237.826 21.0445 236.966 21.0445 236.125C21.0445 235.255 21.1025 234.375 21.2185 233.486C21.3345 232.597 21.5182 231.741 21.7695 230.919C22.0208 230.098 22.3398 229.329 22.7265 228.614C23.1228 227.889 23.5917 227.261 24.133 226.729C24.684 226.197 25.3123 225.777 26.018 225.467C26.7333 225.158 27.5405 225.003 28.4395 225.003C29.2612 225.003 30.0152 225.163 30.7015 225.482C31.3878 225.791 32.0017 226.217 32.543 226.758C33.094 227.299 33.5725 227.932 33.9785 228.657C34.3942 229.382 34.7373 230.161 35.008 230.992C35.2883 231.814 35.4962 232.664 35.6315 233.544C35.7668 234.424 35.8345 235.284 35.8345 236.125C35.8345 236.995 35.7765 237.875 35.6605 238.764C35.5445 239.653 35.3608 240.509 35.1095 241.33C34.8582 242.152 34.5343 242.925 34.138 243.65C33.7513 244.366 33.2825 244.989 32.7315 245.521C32.1902 246.053 31.5618 246.473 30.8465 246.782C30.1312 247.092 29.3288 247.247 28.4395 247.247ZM24.046 235.501C24.046 236.062 24.0653 236.681 24.104 237.357C24.1427 238.024 24.22 238.701 24.336 239.387C24.452 240.064 24.6115 240.721 24.8145 241.359C25.0272 241.997 25.2978 242.568 25.6265 243.07C25.9648 243.563 26.3708 243.96 26.8445 244.259C27.3278 244.559 27.8982 244.709 28.5555 244.709C29.1452 244.709 29.6575 244.598 30.0925 244.375C30.5372 244.143 30.919 243.834 31.238 243.447C31.557 243.051 31.818 242.597 32.021 242.084C32.224 241.562 32.3835 241.007 32.4995 240.417C32.6252 239.827 32.7122 239.218 32.7605 238.59C32.8088 237.962 32.833 237.348 32.833 236.748C32.833 236.188 32.8137 235.574 32.775 234.907C32.7363 234.23 32.659 233.554 32.543 232.877C32.427 232.2 32.2627 231.543 32.05 230.905C31.847 230.257 31.5763 229.687 31.238 229.194C30.9093 228.701 30.5033 228.305 30.02 228.005C29.5463 227.705 28.9808 227.555 28.3235 227.555C27.7338 227.555 27.2167 227.671 26.772 227.903C26.337 228.126 25.96 228.43 25.641 228.817C25.322 229.204 25.061 229.658 24.858 230.18C24.655 230.702 24.4907 231.258 24.365 231.847C24.249 232.437 24.1668 233.046 24.1185 233.674C24.0702 234.293 24.046 234.902 24.046 235.501Z" fill="white"/>
<path d="M2.79217 272V269.564C3.23684 268.858 3.72017 268.162 4.24217 267.476C4.76417 266.79 5.29101 266.127 5.82267 265.489C6.36401 264.842 6.89084 264.228 7.40317 263.648C7.91551 263.058 8.38917 262.517 8.82417 262.024C9.32684 261.444 9.81017 260.912 10.2742 260.429C10.7478 259.936 11.1635 259.453 11.5212 258.979C11.8788 258.505 12.164 258.017 12.3767 257.514C12.5893 257.002 12.6957 256.441 12.6957 255.832C12.6957 255.368 12.6087 254.933 12.4347 254.527C12.2607 254.112 12.0142 253.754 11.6952 253.454C11.3858 253.145 11.0137 252.903 10.5787 252.729C10.1437 252.546 9.66517 252.454 9.14317 252.454C8.55351 252.454 8.04117 252.536 7.60617 252.7C7.18084 252.855 6.80384 253.063 6.47517 253.324C6.15617 253.585 5.87584 253.88 5.63417 254.208C5.40217 254.527 5.18467 254.851 4.98167 255.18L2.93717 254.31C3.18851 253.682 3.50751 253.106 3.89417 252.584C4.29051 252.053 4.75451 251.598 5.28617 251.221C5.81784 250.835 6.42201 250.535 7.09867 250.322C7.77534 250.11 8.52934 250.003 9.36067 250.003C10.337 250.003 11.207 250.177 11.9707 250.525C12.7343 250.873 13.3772 251.333 13.8992 251.903C14.4308 252.464 14.832 253.102 15.1027 253.817C15.383 254.532 15.5232 255.257 15.5232 255.992C15.5232 256.736 15.383 257.447 15.1027 258.123C14.832 258.79 14.4888 259.428 14.0732 260.037C13.6672 260.637 13.2273 261.202 12.7537 261.734C12.28 262.266 11.845 262.763 11.4487 263.227C10.946 263.817 10.4433 264.397 9.94067 264.967C9.43801 265.538 8.95467 266.098 8.49067 266.649C8.03634 267.191 7.61101 267.718 7.21467 268.23C6.81834 268.733 6.47517 269.216 6.18517 269.68H16.3352V272H2.79217ZM28.4395 272.247C27.6178 272.247 26.8638 272.092 26.1775 271.782C25.4912 271.463 24.8725 271.033 24.3215 270.492C23.7802 269.951 23.3017 269.317 22.886 268.592C22.48 267.867 22.1368 267.094 21.8565 266.272C21.5858 265.441 21.3828 264.586 21.2475 263.706C21.1122 262.826 21.0445 261.966 21.0445 261.125C21.0445 260.255 21.1025 259.375 21.2185 258.486C21.3345 257.597 21.5182 256.741 21.7695 255.919C22.0208 255.098 22.3398 254.329 22.7265 253.614C23.1228 252.889 23.5917 252.261 24.133 251.729C24.684 251.197 25.3123 250.777 26.018 250.467C26.7333 250.158 27.5405 250.003 28.4395 250.003C29.2612 250.003 30.0152 250.163 30.7015 250.482C31.3878 250.791 32.0017 251.217 32.543 251.758C33.094 252.299 33.5725 252.932 33.9785 253.657C34.3942 254.382 34.7373 255.161 35.008 255.992C35.2883 256.814 35.4962 257.664 35.6315 258.544C35.7668 259.424 35.8345 260.284 35.8345 261.125C35.8345 261.995 35.7765 262.875 35.6605 263.764C35.5445 264.653 35.3608 265.509 35.1095 266.33C34.8582 267.152 34.5343 267.925 34.138 268.65C33.7513 269.366 33.2825 269.989 32.7315 270.521C32.1902 271.053 31.5618 271.473 30.8465 271.782C30.1312 272.092 29.3288 272.247 28.4395 272.247ZM24.046 260.501C24.046 261.062 24.0653 261.681 24.104 262.357C24.1427 263.024 24.22 263.701 24.336 264.387C24.452 265.064 24.6115 265.721 24.8145 266.359C25.0272 266.997 25.2978 267.568 25.6265 268.07C25.9648 268.563 26.3708 268.96 26.8445 269.259C27.3278 269.559 27.8982 269.709 28.5555 269.709C29.1452 269.709 29.6575 269.598 30.0925 269.375C30.5372 269.143 30.919 268.834 31.238 268.447C31.557 268.051 31.818 267.597 32.021 267.084C32.224 266.562 32.3835 266.007 32.4995 265.417C32.6252 264.827 32.7122 264.218 32.7605 263.59C32.8088 262.962 32.833 262.348 32.833 261.748C32.833 261.188 32.8137 260.574 32.775 259.907C32.7363 259.23 32.659 258.554 32.543 257.877C32.427 257.2 32.2627 256.543 32.05 255.905C31.847 255.257 31.5763 254.687 31.238 254.194C30.9093 253.701 30.5033 253.305 30.02 253.005C29.5463 252.705 28.9808 252.555 28.3235 252.555C27.7338 252.555 27.2167 252.671 26.772 252.903C26.337 253.126 25.96 253.43 25.641 253.817C25.322 254.204 25.061 254.658 24.858 255.18C24.655 255.702 24.4907 256.258 24.365 256.847C24.249 257.437 24.1668 258.046 24.1185 258.674C24.0702 259.293 24.046 259.902 24.046 260.501Z" fill="white"/>
<path d="M3.58967 297V294.68H8.59217V280.673L9.43317 277.381L7.46117 280.078L4.38717 282.804L2.82117 281.05L9.46217 274.96L11.6372 275.25V294.68H16.6397V297H3.58967ZM28.4395 297.247C27.6178 297.247 26.8638 297.092 26.1775 296.782C25.4912 296.463 24.8725 296.033 24.3215 295.492C23.7802 294.951 23.3017 294.317 22.886 293.592C22.48 292.867 22.1368 292.094 21.8565 291.272C21.5858 290.441 21.3828 289.586 21.2475 288.706C21.1122 287.826 21.0445 286.966 21.0445 286.125C21.0445 285.255 21.1025 284.375 21.2185 283.486C21.3345 282.597 21.5182 281.741 21.7695 280.919C22.0208 280.098 22.3398 279.329 22.7265 278.614C23.1228 277.889 23.5917 277.261 24.133 276.729C24.684 276.197 25.3123 275.777 26.018 275.467C26.7333 275.158 27.5405 275.003 28.4395 275.003C29.2612 275.003 30.0152 275.163 30.7015 275.482C31.3878 275.791 32.0017 276.217 32.543 276.758C33.094 277.299 33.5725 277.932 33.9785 278.657C34.3942 279.382 34.7373 280.161 35.008 280.992C35.2883 281.814 35.4962 282.664 35.6315 283.544C35.7668 284.424 35.8345 285.284 35.8345 286.125C35.8345 286.995 35.7765 287.875 35.6605 288.764C35.5445 289.653 35.3608 290.509 35.1095 291.33C34.8582 292.152 34.5343 292.925 34.138 293.65C33.7513 294.366 33.2825 294.989 32.7315 295.521C32.1902 296.053 31.5618 296.473 30.8465 296.782C30.1312 297.092 29.3288 297.247 28.4395 297.247ZM24.046 285.501C24.046 286.062 24.0653 286.681 24.104 287.357C24.1427 288.024 24.22 288.701 24.336 289.387C24.452 290.064 24.6115 290.721 24.8145 291.359C25.0272 291.997 25.2978 292.568 25.6265 293.07C25.9648 293.563 26.3708 293.96 26.8445 294.259C27.3278 294.559 27.8982 294.709 28.5555 294.709C29.1452 294.709 29.6575 294.598 30.0925 294.375C30.5372 294.143 30.919 293.834 31.238 293.447C31.557 293.051 31.818 292.597 32.021 292.084C32.224 291.562 32.3835 291.007 32.4995 290.417C32.6252 289.827 32.7122 289.218 32.7605 288.59C32.8088 287.962 32.833 287.348 32.833 286.748C32.833 286.188 32.8137 285.574 32.775 284.907C32.7363 284.23 32.659 283.554 32.543 282.877C32.427 282.2 32.2627 281.543 32.05 280.905C31.847 280.257 31.5763 279.687 31.238 279.194C30.9093 278.701 30.5033 278.305 30.02 278.005C29.5463 277.705 28.9808 277.555 28.3235 277.555C27.7338 277.555 27.2167 277.671 26.772 277.903C26.337 278.126 25.96 278.43 25.641 278.817C25.322 279.204 25.061 279.658 24.858 280.18C24.655 280.702 24.4907 281.258 24.365 281.847C24.249 282.437 24.1668 283.046 24.1185 283.674C24.0702 284.293 24.046 284.902 24.046 285.501Z" fill="white"/>
<path d="M9.57817 322.247C8.75651 322.247 8.00251 322.092 7.31617 321.782C6.62984 321.463 6.01117 321.033 5.46017 320.492C4.91884 319.951 4.44034 319.317 4.02467 318.592C3.61867 317.867 3.27551 317.094 2.99517 316.272C2.72451 315.441 2.52151 314.586 2.38617 313.706C2.25084 312.826 2.18317 311.966 2.18317 311.125C2.18317 310.255 2.24117 309.375 2.35717 308.486C2.47317 307.597 2.65684 306.741 2.90817 305.919C3.15951 305.098 3.47851 304.329 3.86517 303.614C4.26151 302.889 4.73034 302.261 5.27167 301.729C5.82267 301.197 6.45101 300.777 7.15667 300.467C7.87201 300.158 8.67917 300.003 9.57817 300.003C10.3998 300.003 11.1538 300.163 11.8402 300.482C12.5265 300.791 13.1403 301.217 13.6817 301.758C14.2327 302.299 14.7112 302.932 15.1172 303.657C15.5328 304.382 15.876 305.161 16.1467 305.992C16.427 306.814 16.6348 307.664 16.7702 308.544C16.9055 309.424 16.9732 310.284 16.9732 311.125C16.9732 311.995 16.9152 312.875 16.7992 313.764C16.6832 314.653 16.4995 315.509 16.2482 316.33C15.9968 317.152 15.673 317.925 15.2767 318.65C14.89 319.366 14.4212 319.989 13.8702 320.521C13.3288 321.053 12.7005 321.473 11.9852 321.782C11.2698 322.092 10.4675 322.247 9.57817 322.247ZM5.18467 310.501C5.18467 311.062 5.20401 311.681 5.24267 312.357C5.28134 313.024 5.35867 313.701 5.47467 314.387C5.59067 315.064 5.75017 315.721 5.95317 316.359C6.16584 316.997 6.43651 317.568 6.76517 318.07C7.10351 318.563 7.50951 318.96 7.98317 319.259C8.46651 319.559 9.03684 319.709 9.69417 319.709C10.2838 319.709 10.7962 319.598 11.2312 319.375C11.6758 319.143 12.0577 318.834 12.3767 318.447C12.6957 318.051 12.9567 317.597 13.1597 317.084C13.3627 316.562 13.5222 316.007 13.6382 315.417C13.7638 314.827 13.8508 314.218 13.8992 313.59C13.9475 312.962 13.9717 312.348 13.9717 311.748C13.9717 311.188 13.9523 310.574 13.9137 309.907C13.875 309.23 13.7977 308.554 13.6817 307.877C13.5657 307.2 13.4013 306.543 13.1887 305.905C12.9857 305.257 12.715 304.687 12.3767 304.194C12.048 303.701 11.642 303.305 11.1587 303.005C10.685 302.705 10.1195 302.555 9.46217 302.555C8.87251 302.555 8.35534 302.671 7.91067 302.903C7.47567 303.126 7.09867 303.43 6.77967 303.817C6.46067 304.204 6.19967 304.658 5.99667 305.18C5.79367 305.702 5.62934 306.258 5.50367 306.847C5.38767 307.437 5.30551 308.046 5.25717 308.674C5.20884 309.293 5.18467 309.902 5.18467 310.501ZM28.4395 322.247C27.6178 322.247 26.8638 322.092 26.1775 321.782C25.4912 321.463 24.8725 321.033 24.3215 320.492C23.7802 319.951 23.3017 319.317 22.886 318.592C22.48 317.867 22.1368 317.094 21.8565 316.272C21.5858 315.441 21.3828 314.586 21.2475 313.706C21.1122 312.826 21.0445 311.966 21.0445 311.125C21.0445 310.255 21.1025 309.375 21.2185 308.486C21.3345 307.597 21.5182 306.741 21.7695 305.919C22.0208 305.098 22.3398 304.329 22.7265 303.614C23.1228 302.889 23.5917 302.261 24.133 301.729C24.684 301.197 25.3123 300.777 26.018 300.467C26.7333 300.158 27.5405 300.003 28.4395 300.003C29.2612 300.003 30.0152 300.163 30.7015 300.482C31.3878 300.791 32.0017 301.217 32.543 301.758C33.094 302.299 33.5725 302.932 33.9785 303.657C34.3942 304.382 34.7373 305.161 35.008 305.992C35.2883 306.814 35.4962 307.664 35.6315 308.544C35.7668 309.424 35.8345 310.284 35.8345 311.125C35.8345 311.995 35.7765 312.875 35.6605 313.764C35.5445 314.653 35.3608 315.509 35.1095 316.33C34.8582 317.152 34.5343 317.925 34.138 318.65C33.7513 319.366 33.2825 319.989 32.7315 320.521C32.1902 321.053 31.5618 321.473 30.8465 321.782C30.1312 322.092 29.3288 322.247 28.4395 322.247ZM24.046 310.501C24.046 311.062 24.0653 311.681 24.104 312.357C24.1427 313.024 24.22 313.701 24.336 314.387C24.452 315.064 24.6115 315.721 24.8145 316.359C25.0272 316.997 25.2978 317.568 25.6265 318.07C25.9648 318.563 26.3708 318.96 26.8445 319.259C27.3278 319.559 27.8982 319.709 28.5555 319.709C29.1452 319.709 29.6575 319.598 30.0925 319.375C30.5372 319.143 30.919 318.834 31.238 318.447C31.557 318.051 31.818 317.597 32.021 317.084C32.224 316.562 32.3835 316.007 32.4995 315.417C32.6252 314.827 32.7122 314.218 32.7605 313.59C32.8088 312.962 32.833 312.348 32.833 311.748C32.833 311.188 32.8137 310.574 32.775 309.907C32.7363 309.23 32.659 308.554 32.543 307.877C32.427 307.2 32.2627 306.543 32.05 305.905C31.847 305.257 31.5763 304.687 31.238 304.194C30.9093 303.701 30.5033 303.305 30.02 303.005C29.5463 302.705 28.9808 302.555 28.3235 302.555C27.7338 302.555 27.2167 302.671 26.772 302.903C26.337 303.126 25.96 303.43 25.641 303.817C25.322 304.204 25.061 304.658 24.858 305.18C24.655 305.702 24.4907 306.258 24.365 306.847C24.249 307.437 24.1668 308.046 24.1185 308.674C24.0702 309.293 24.046 309.902 24.046 310.501Z" fill="white"/>
<path d="M12.7392 337.386C12.1688 337.831 11.5937 338.16 11.0137 338.372C10.4433 338.585 9.79567 338.691 9.07067 338.691C8.12334 338.691 7.23884 338.537 6.41717 338.227C5.59551 337.908 4.88017 337.459 4.27117 336.879C3.66217 336.299 3.18367 335.603 2.83567 334.791C2.48767 333.969 2.31367 333.056 2.31367 332.05C2.31367 331.006 2.47801 330.054 2.80667 329.194C3.14501 328.334 3.61867 327.594 4.22767 326.975C4.84634 326.347 5.59067 325.864 6.46067 325.525C7.34034 325.177 8.32151 325.003 9.40417 325.003C10.3708 325.003 11.2215 325.153 11.9562 325.453C12.7005 325.753 13.3433 326.149 13.8847 326.642C14.426 327.135 14.8755 327.7 15.2332 328.338C15.6005 328.976 15.8905 329.639 16.1032 330.325C16.3255 331.011 16.4802 331.693 16.5672 332.369C16.6638 333.046 16.7122 333.67 16.7122 334.24C16.7122 335.361 16.5962 336.458 16.3642 337.531C16.1418 338.595 15.8083 339.6 15.3637 340.547C14.9287 341.495 14.3922 342.37 13.7542 343.172C13.1162 343.965 12.3863 344.656 11.5647 345.245C10.7527 345.835 9.85367 346.304 8.86767 346.652C7.88167 347 6.81834 347.198 5.67767 347.247L5.22817 344.825C6.38817 344.767 7.47567 344.491 8.49067 343.998C9.51534 343.505 10.4143 342.853 11.1877 342.041C11.9707 341.219 12.599 340.267 13.0727 339.184C13.556 338.092 13.8315 336.927 13.8992 335.69L12.7392 337.386ZM13.7252 333.181C13.6962 332.456 13.5898 331.756 13.4062 331.079C13.2322 330.393 12.9712 329.784 12.6232 329.252C12.2752 328.711 11.845 328.28 11.3327 327.961C10.8203 327.633 10.2162 327.468 9.52017 327.468C8.86284 327.468 8.27317 327.575 7.75117 327.787C7.22917 328 6.78451 328.295 6.41717 328.672C6.04984 329.049 5.76467 329.503 5.56167 330.035C5.36834 330.567 5.27167 331.151 5.27167 331.789C5.27167 332.418 5.34901 333.003 5.50367 333.544C5.66801 334.085 5.90967 334.554 6.22867 334.95C6.55734 335.347 6.96817 335.661 7.46117 335.893C7.96384 336.115 8.54867 336.226 9.21567 336.226C9.72801 336.226 10.2162 336.144 10.6802 335.98C11.1538 335.816 11.584 335.598 11.9707 335.327C12.367 335.047 12.715 334.723 13.0147 334.356C13.3143 333.989 13.5512 333.597 13.7252 333.181ZM28.4395 347.247C27.6178 347.247 26.8638 347.092 26.1775 346.782C25.4912 346.463 24.8725 346.033 24.3215 345.492C23.7802 344.951 23.3017 344.317 22.886 343.592C22.48 342.867 22.1368 342.094 21.8565 341.272C21.5858 340.441 21.3828 339.586 21.2475 338.706C21.1122 337.826 21.0445 336.966 21.0445 336.125C21.0445 335.255 21.1025 334.375 21.2185 333.486C21.3345 332.597 21.5182 331.741 21.7695 330.919C22.0208 330.098 22.3398 329.329 22.7265 328.614C23.1228 327.889 23.5917 327.261 24.133 326.729C24.684 326.197 25.3123 325.777 26.018 325.467C26.7333 325.158 27.5405 325.003 28.4395 325.003C29.2612 325.003 30.0152 325.163 30.7015 325.482C31.3878 325.791 32.0017 326.217 32.543 326.758C33.094 327.299 33.5725 327.932 33.9785 328.657C34.3942 329.382 34.7373 330.161 35.008 330.992C35.2883 331.814 35.4962 332.664 35.6315 333.544C35.7668 334.424 35.8345 335.284 35.8345 336.125C35.8345 336.995 35.7765 337.875 35.6605 338.764C35.5445 339.653 35.3608 340.509 35.1095 341.33C34.8582 342.152 34.5343 342.925 34.138 343.65C33.7513 344.366 33.2825 344.989 32.7315 345.521C32.1902 346.053 31.5618 346.473 30.8465 346.782C30.1312 347.092 29.3288 347.247 28.4395 347.247ZM24.046 335.501C24.046 336.062 24.0653 336.681 24.104 337.357C24.1427 338.024 24.22 338.701 24.336 339.387C24.452 340.064 24.6115 340.721 24.8145 341.359C25.0272 341.997 25.2978 342.568 25.6265 343.07C25.9648 343.563 26.3708 343.96 26.8445 344.259C27.3278 344.559 27.8982 344.709 28.5555 344.709C29.1452 344.709 29.6575 344.598 30.0925 344.375C30.5372 344.143 30.919 343.834 31.238 343.447C31.557 343.051 31.818 342.597 32.021 342.084C32.224 341.562 32.3835 341.007 32.4995 340.417C32.6252 339.827 32.7122 339.218 32.7605 338.59C32.8088 337.962 32.833 337.348 32.833 336.748C32.833 336.188 32.8137 335.574 32.775 334.907C32.7363 334.23 32.659 333.554 32.543 332.877C32.427 332.2 32.2627 331.543 32.05 330.905C31.847 330.257 31.5763 329.687 31.238 329.194C30.9093 328.701 30.5033 328.305 30.02 328.005C29.5463 327.705 28.9808 327.555 28.3235 327.555C27.7338 327.555 27.2167 327.671 26.772 327.903C26.337 328.126 25.96 328.43 25.641 328.817C25.322 329.204 25.061 329.658 24.858 330.18C24.655 330.702 24.4907 331.258 24.365 331.847C24.249 332.437 24.1668 333.046 24.1185 333.674C24.0702 334.293 24.046 334.902 24.046 335.501Z" fill="white"/>
<path d="M3.58967 47V44.68H8.59217V30.673L9.43317 27.3815L7.46117 30.0785L4.38717 32.8045L2.82117 31.05L9.46217 24.96L11.6372 25.25V44.68H16.6397V47H3.58967ZM28.4395 47.2465C27.6178 47.2465 26.8638 47.0918 26.1775 46.7825C25.4912 46.4635 24.8725 46.0333 24.3215 45.492C23.7802 44.9507 23.3017 44.3175 22.886 43.5925C22.48 42.8675 22.1368 42.0942 21.8565 41.2725C21.5858 40.4412 21.3828 39.5857 21.2475 38.706C21.1122 37.8263 21.0445 36.966 21.0445 36.125C21.0445 35.255 21.1025 34.3753 21.2185 33.486C21.3345 32.5967 21.5182 31.7412 21.7695 30.9195C22.0208 30.0978 22.3398 29.3293 22.7265 28.614C23.1228 27.889 23.5917 27.2607 24.133 26.729C24.684 26.1973 25.3123 25.7768 26.018 25.4675C26.7333 25.1582 27.5405 25.0035 28.4395 25.0035C29.2612 25.0035 30.0152 25.163 30.7015 25.482C31.3878 25.7913 32.0017 26.2167 32.543 26.758C33.094 27.2993 33.5725 27.9325 33.9785 28.6575C34.3942 29.3825 34.7373 30.1607 35.008 30.992C35.2883 31.8137 35.4962 32.6643 35.6315 33.544C35.7668 34.4237 35.8345 35.284 35.8345 36.125C35.8345 36.995 35.7765 37.8747 35.6605 38.764C35.5445 39.6533 35.3608 40.5088 35.1095 41.3305C34.8582 42.1522 34.5343 42.9255 34.138 43.6505C33.7513 44.3658 33.2825 44.9893 32.7315 45.521C32.1902 46.0527 31.5618 46.4732 30.8465 46.7825C30.1312 47.0918 29.3288 47.2465 28.4395 47.2465ZM24.046 35.5015C24.046 36.0622 24.0653 36.6808 24.104 37.3575C24.1427 38.0245 24.22 38.7012 24.336 39.3875C24.452 40.0642 24.6115 40.7215 24.8145 41.3595C25.0272 41.9975 25.2978 42.5678 25.6265 43.0705C25.9648 43.5635 26.3708 43.9598 26.8445 44.2595C27.3278 44.5592 27.8982 44.709 28.5555 44.709C29.1452 44.709 29.6575 44.5978 30.0925 44.3755C30.5372 44.1435 30.919 43.8342 31.238 43.4475C31.557 43.0512 31.818 42.5968 32.021 42.0845C32.224 41.5625 32.3835 41.0067 32.4995 40.417C32.6252 39.8273 32.7122 39.2183 32.7605 38.59C32.8088 37.9617 32.833 37.3478 32.833 36.7485C32.833 36.1878 32.8137 35.574 32.775 34.907C32.7363 34.2303 32.659 33.5537 32.543 32.877C32.427 32.2003 32.2627 31.543 32.05 30.905C31.847 30.2573 31.5763 29.687 31.238 29.194C30.9093 28.701 30.5033 28.3047 30.02 28.005C29.5463 27.7053 28.9808 27.5555 28.3235 27.5555C27.7338 27.5555 27.2167 27.6715 26.772 27.9035C26.337 28.1258 25.96 28.4303 25.641 28.817C25.322 29.2037 25.061 29.658 24.858 30.18C24.655 30.702 24.4907 31.2578 24.365 31.8475C24.249 32.4372 24.1668 33.0462 24.1185 33.6745C24.0702 34.2932 24.046 34.9022 24.046 35.5015Z" fill="white"/>
</svg>
