<svg width="28" height="782" viewBox="0 0 28 782" fill="none" xmlns="http://www.w3.org/2000/svg">
<path d="M4.3166 755.95H23.6666V759.282H4.3166V755.95Z" fill="white"/>
<path d="M21.5 681L24 684.333V687.667L19 681H21.5Z" fill="#00FF00"/>
<path d="M16.5 681L24 691V694.333L14 681H16.5Z" fill="#00FF00"/>
<path d="M11.5 681L24 697.667V701L9 681H11.5Z" fill="#00FF00"/>
<path d="M6.5 681L24 704.333V707.667L4 681H6.5Z" fill="#00FF00"/>
<path d="M4 684.333L24 711H21.5L4 687.667V684.333Z" fill="#00FF00"/>
<path d="M4 691L19 711H16.5L4 694.333V691Z" fill="#00FF00"/>
<path d="M4 697.667L14 711H11.5L4 701V697.667Z" fill="#00FF00"/>
<path d="M4 704.333L9 711H6.5L4 707.667V704.333Z" fill="#00FF00"/>
<path d="M5.1336 651V647.56H12.5511V626.791L13.7981 621.91L10.8741 625.909L6.3161 629.951L3.9941 627.35L13.8411 618.32L17.0661 618.75V647.56H24.4836V651H5.1336Z" fill="white"/>
<path d="M3.9511 591V587.388C4.61044 586.342 5.3271 585.31 6.1011 584.292C6.8751 583.274 7.65627 582.292 8.4446 581.346C9.24727 580.386 10.0284 579.476 10.7881 578.616C11.5478 577.742 12.2501 576.939 12.8951 576.208C13.6404 575.348 14.3571 574.56 15.0451 573.843C15.7474 573.112 16.3638 572.395 16.8941 571.693C17.4244 570.991 17.8473 570.267 18.1626 569.521C18.4779 568.762 18.6356 567.93 18.6356 567.027C18.6356 566.339 18.5066 565.694 18.2486 565.092C17.9906 564.476 17.6251 563.946 17.1521 563.501C16.6934 563.043 16.1416 562.684 15.4966 562.426C14.8516 562.154 14.1421 562.018 13.3681 562.018C12.4938 562.018 11.7341 562.14 11.0891 562.383C10.4584 562.613 9.89944 562.921 9.4121 563.308C8.9391 563.695 8.52344 564.132 8.1651 564.619C7.8211 565.092 7.4986 565.573 7.1976 566.06L4.1661 564.77C4.53877 563.838 5.01177 562.985 5.5851 562.211C6.17277 561.423 6.86077 560.749 7.6491 560.19C8.43744 559.617 9.33327 559.173 10.3366 558.857C11.3399 558.542 12.4579 558.384 13.6906 558.384C15.1383 558.384 16.4283 558.642 17.5606 559.158C18.6929 559.674 19.6461 560.355 20.4201 561.201C21.2084 562.032 21.8033 562.978 22.2046 564.039C22.6203 565.1 22.8281 566.175 22.8281 567.264C22.8281 568.368 22.6203 569.421 22.2046 570.424C21.8033 571.413 21.2944 572.359 20.6781 573.262C20.0761 574.151 19.4239 574.99 18.7216 575.778C18.0193 576.566 17.3743 577.304 16.7866 577.992C16.0413 578.867 15.2959 579.727 14.5506 580.572C13.8053 581.418 13.0886 582.249 12.4006 583.066C11.7269 583.869 11.0963 584.65 10.5086 585.41C9.92094 586.155 9.4121 586.872 8.9821 587.56H24.0321V591H3.9511Z" fill="white"/>
<path d="M4.8971 502.19L5.2196 498.75H21.9896V501.76C21.8176 502.333 21.5238 502.935 21.1081 503.566C20.7068 504.182 20.2266 504.813 19.6676 505.458C19.1229 506.089 18.5209 506.712 17.8616 507.328C17.2166 507.945 16.5644 508.532 15.9051 509.091L13.0671 510.682C13.2104 510.654 13.3896 510.639 13.6046 510.639C13.8339 510.625 14.0489 510.618 14.2496 510.618C15.6399 510.618 16.9299 510.79 18.1196 511.134C19.3236 511.478 20.3628 512.001 21.2371 512.703C22.1258 513.391 22.8209 514.273 23.3226 515.348C23.8386 516.409 24.0966 517.663 24.0966 519.11C24.0966 520.501 23.8386 521.762 23.3226 522.894C22.8066 524.027 22.0971 525.037 21.1941 525.926C20.3054 526.8 19.2591 527.56 18.0551 528.205C16.8511 528.836 15.5611 529.359 14.1851 529.774C12.8234 530.19 11.4116 530.498 9.9496 530.699C8.4876 530.9 7.05427 531 5.6496 531V527.56C6.83927 527.517 8.00744 527.409 9.1541 527.237C10.3008 527.065 11.3901 526.829 12.4221 526.528C13.4541 526.213 14.4073 525.833 15.2816 525.388C16.1559 524.944 16.9084 524.428 17.5391 523.84C18.1841 523.238 18.6858 522.565 19.0441 521.819C19.4024 521.06 19.5816 520.228 19.5816 519.325C19.5816 518.293 19.3594 517.433 18.9151 516.745C18.4851 516.057 17.8903 515.513 17.1306 515.111C16.3709 514.71 15.4751 514.431 14.4431 514.273C13.4254 514.101 12.3289 514.015 11.1536 514.015C10.6949 514.015 10.1933 514.029 9.6486 514.058C9.11827 514.072 8.6381 514.094 8.2081 514.122V510.79C8.79577 510.36 9.4336 509.873 10.1216 509.328C10.8096 508.783 11.5048 508.217 12.2071 507.629C12.9094 507.027 13.5903 506.425 14.2496 505.823C14.9233 505.207 15.5324 504.627 16.0771 504.082C16.6218 503.523 17.0804 503.007 17.4531 502.534C17.8258 502.047 18.0694 501.645 18.1841 501.33L14.9161 502.19H4.8971Z" fill="white"/>
<path d="M24.4406 464.55H20.5706V471H16.0556V464.55H3.2631V460.873L13.6691 438.32L17.7326 438.75L8.8101 458.1L6.8106 461.11H16.0556V452.359L20.5706 452.725V461.11H24.7631L24.4406 464.55Z" fill="white"/>
<path d="M9.8206 389.887C9.92094 389.83 10.0929 389.736 10.3366 389.607C10.5946 389.478 10.9099 389.349 11.2826 389.22C11.6553 389.091 12.0781 388.984 12.5511 388.898C13.0384 388.798 13.5759 388.747 14.1636 388.747C15.6543 388.747 16.9801 388.984 18.1411 389.457C19.3164 389.916 20.3054 390.553 21.1081 391.37C21.9251 392.173 22.5414 393.119 22.9571 394.208C23.3871 395.298 23.6021 396.459 23.6021 397.691C23.6021 399.139 23.3441 400.479 22.8281 401.712C22.3121 402.93 21.6026 404.034 20.6996 405.023C19.8109 405.998 18.7646 406.858 17.5606 407.603C16.3709 408.348 15.0953 408.979 13.7336 409.495C12.3863 409.997 10.9959 410.376 9.5626 410.634C8.12927 410.878 6.7246 411 5.3486 411V407.56C6.4236 407.531 7.51294 407.402 8.6166 407.173C9.72027 406.944 10.7809 406.628 11.7986 406.227C12.8306 405.826 13.7909 405.345 14.6796 404.786C15.5826 404.227 16.3638 403.604 17.0231 402.916C17.6968 402.228 18.2271 401.483 18.6141 400.68C19.0011 399.877 19.1946 399.032 19.1946 398.143C19.1946 397.412 19.0728 396.702 18.8291 396.014C18.5998 395.326 18.2486 394.717 17.7756 394.187C17.3169 393.642 16.7364 393.205 16.0341 392.875C15.3318 392.546 14.5148 392.381 13.5831 392.381C12.8521 392.381 12.1928 392.431 11.6051 392.531C11.0174 392.617 10.4943 392.732 10.0356 392.875C9.57694 393.019 9.1756 393.176 8.8316 393.348C8.50194 393.506 8.2296 393.657 8.0146 393.8H5.3486V378.75H21.5381V382.19H9.8206V389.887Z" fill="white"/>
<path d="M20.6351 322.104C20.5348 322.075 20.3843 322.061 20.1836 322.061C19.9973 322.047 19.8253 322.039 19.6676 322.039C18.6356 322.039 17.6323 322.204 16.6576 322.534C15.6829 322.849 14.7656 323.301 13.9056 323.888C13.0456 324.476 12.2501 325.178 11.5191 325.995C10.8024 326.812 10.1646 327.715 9.6056 328.704C9.06094 329.679 8.60944 330.725 8.2511 331.843C7.89277 332.961 7.65627 334.115 7.5416 335.305L9.3261 332.789C9.68444 332.56 10.1001 332.345 10.5731 332.144C11.0604 331.929 11.5693 331.743 12.0996 331.585C12.6299 331.428 13.1674 331.306 13.7121 331.22C14.2568 331.12 14.7728 331.069 15.2601 331.069C16.5071 331.069 17.7039 331.241 18.8506 331.585C20.0116 331.929 21.0364 332.46 21.9251 333.176C22.8281 333.893 23.5448 334.818 24.0751 335.95C24.6198 337.068 24.8921 338.408 24.8921 339.97C24.8921 341.518 24.6269 342.988 24.0966 344.378C23.5806 345.754 22.8496 346.965 21.9036 348.011C20.9576 349.043 19.8253 349.86 18.5066 350.462C17.1879 351.065 15.7259 351.366 14.1206 351.366C12.7159 351.366 11.4689 351.143 10.3796 350.699C9.3046 350.24 8.36577 349.638 7.5631 348.893C6.76044 348.148 6.08677 347.295 5.5421 346.334C5.01177 345.374 4.5746 344.392 4.2306 343.389C3.90094 342.371 3.66444 341.368 3.5211 340.379C3.37777 339.39 3.3061 338.487 3.3061 337.67C3.3061 335.964 3.4781 334.302 3.8221 332.682C4.18044 331.062 4.68927 329.543 5.3486 328.124C6.02227 326.691 6.83927 325.379 7.7996 324.189C8.75994 322.985 9.84927 321.961 11.0676 321.115C12.3003 320.255 13.6476 319.588 15.1096 319.115C16.5859 318.628 18.1698 318.384 19.8611 318.384C20.0761 318.384 20.3126 318.392 20.5706 318.406C20.8286 318.406 21.0293 318.42 21.1726 318.449L20.6351 322.104ZM7.7351 338.164C7.7351 338.566 7.7351 338.931 7.7351 339.261C7.74944 339.591 7.77094 339.913 7.7996 340.228C7.82827 340.544 7.87127 340.866 7.9286 341.196C7.98594 341.511 8.06477 341.862 8.1651 342.249C8.36577 343.066 8.6381 343.812 8.9821 344.485C9.34044 345.145 9.76327 345.718 10.2506 346.205C10.7523 346.678 11.3256 347.051 11.9706 347.323C12.6299 347.581 13.3681 347.71 14.1851 347.71C15.3174 347.71 16.2778 347.495 17.0661 347.065C17.8688 346.635 18.5209 346.069 19.0226 345.367C19.5243 344.65 19.8898 343.84 20.1191 342.937C20.3628 342.034 20.4846 341.117 20.4846 340.185C20.4846 339.282 20.3484 338.487 20.0761 337.799C19.8181 337.111 19.4454 336.545 18.9581 336.1C18.4708 335.642 17.8831 335.298 17.1951 335.068C16.5214 334.839 15.7689 334.724 14.9376 334.724C14.1636 334.724 13.4111 334.818 12.6801 335.004C11.9491 335.19 11.2611 335.441 10.6161 335.756C9.98544 336.072 9.41927 336.437 8.9176 336.853C8.43027 337.269 8.0361 337.706 7.7351 338.164Z" fill="white"/>
<path d="M3.8221 258.75H24.0966V261.545C24.0966 262.161 23.8601 262.957 23.3871 263.931C22.9284 264.892 22.3408 265.974 21.6241 267.178C20.9074 268.382 20.1191 269.679 19.2591 271.069C18.4134 272.445 17.6036 273.864 16.8296 275.326C16.0699 276.774 15.4034 278.229 14.8301 279.691C14.2568 281.153 13.8913 282.565 13.7336 283.926C13.6619 284.514 13.6046 285.123 13.5616 285.754C13.5329 286.37 13.5043 286.987 13.4756 287.603C13.4613 288.219 13.4541 288.821 13.4541 289.409V291H9.0466C9.0466 290.57 9.0466 289.997 9.0466 289.28C9.06094 288.549 9.08244 287.782 9.1111 286.979C9.13977 286.177 9.18994 285.381 9.2616 284.593C9.33327 283.805 9.42644 283.131 9.5411 282.572C9.87077 281.038 10.3366 279.533 10.9386 278.057C11.5549 276.566 12.2214 275.14 12.9381 273.778C13.6691 272.402 14.4144 271.105 15.1741 269.887C15.9338 268.669 16.6218 267.565 17.2381 266.576C17.8544 265.573 18.3561 264.698 18.7431 263.953C19.1444 263.208 19.3451 262.62 19.3451 262.19H3.8221V258.75Z" fill="white"/>
<path d="M13.5831 198.384C14.8874 198.384 16.0986 198.564 17.2166 198.922C18.3346 199.28 19.2949 199.796 20.0976 200.47C20.9146 201.144 21.5524 201.961 22.0111 202.921C22.4698 203.881 22.6991 204.963 22.6991 206.167C22.6991 207.013 22.5701 207.766 22.3121 208.425C22.0684 209.084 21.7316 209.679 21.3016 210.209C20.8716 210.725 20.3699 211.198 19.7966 211.628C19.2376 212.044 18.6428 212.438 18.0121 212.811C19.0728 213.284 20.0188 213.829 20.8501 214.445C21.6958 215.047 22.4053 215.735 22.9786 216.509C23.5663 217.269 24.0106 218.121 24.3116 219.067C24.6269 220.013 24.7846 221.053 24.7846 222.185C24.7846 223.776 24.4693 225.152 23.8386 226.313C23.2079 227.46 22.3694 228.413 21.3231 229.172C20.2911 229.918 19.1086 230.47 17.7756 230.828C16.4569 231.186 15.1024 231.366 13.7121 231.366C12.3504 231.366 11.0389 231.165 9.7776 230.763C8.51627 230.348 7.39827 229.746 6.4236 228.957C5.46327 228.155 4.68927 227.166 4.1016 225.99C3.51394 224.801 3.2201 223.432 3.2201 221.884C3.2201 220.737 3.38493 219.698 3.7146 218.766C4.04427 217.835 4.49577 216.996 5.0691 216.251C5.64244 215.506 6.32327 214.846 7.1116 214.273C7.89994 213.685 8.75277 213.169 9.6701 212.725C8.99644 212.309 8.36577 211.879 7.7781 211.435C7.20477 210.991 6.69594 210.518 6.2516 210.016C5.8216 209.5 5.4776 208.948 5.2196 208.36C4.97594 207.773 4.8541 207.121 4.8541 206.404C4.8541 205.014 5.12644 203.817 5.6711 202.813C6.2301 201.796 6.9396 200.964 7.7996 200.319C8.6596 199.66 9.59844 199.173 10.6161 198.857C11.6481 198.542 12.6371 198.384 13.5831 198.384ZM13.3466 214.66C12.4436 215.047 11.6266 215.477 10.8956 215.95C10.1789 216.409 9.5626 216.939 9.0466 217.541C8.54494 218.129 8.15077 218.802 7.8641 219.562C7.59177 220.307 7.4556 221.153 7.4556 222.099C7.4556 222.959 7.6276 223.74 7.9716 224.442C8.32994 225.145 8.79577 225.754 9.3691 226.27C9.95677 226.772 10.6304 227.159 11.3901 227.431C12.1498 227.703 12.9309 227.84 13.7336 227.84C14.6509 227.84 15.5181 227.718 16.3351 227.474C17.1664 227.216 17.8903 226.843 18.5066 226.356C19.1373 225.869 19.6318 225.267 19.9901 224.55C20.3484 223.833 20.5276 223.009 20.5276 222.077C20.5276 221.117 20.3126 220.264 19.8826 219.519C19.4669 218.759 18.9151 218.086 18.2271 217.498C17.5534 216.896 16.7866 216.366 15.9266 215.907C15.0809 215.448 14.2209 215.033 13.3466 214.66ZM14.2281 211.155C15.5468 210.568 16.5931 209.858 17.3671 209.027C18.1554 208.196 18.5496 207.185 18.5496 205.995C18.5496 205.279 18.3991 204.662 18.0981 204.146C17.8114 203.63 17.4459 203.208 17.0016 202.878C16.5573 202.548 16.0628 202.312 15.5181 202.168C14.9878 202.011 14.4789 201.932 13.9916 201.932C13.3466 201.932 12.7231 202.032 12.1211 202.233C11.5191 202.419 10.9888 202.692 10.5301 203.05C10.0714 203.408 9.69877 203.831 9.4121 204.318C9.13977 204.806 9.0036 205.336 9.0036 205.909C9.0036 206.569 9.13977 207.156 9.4121 207.672C9.69877 208.174 10.0786 208.633 10.5516 209.048C11.0389 209.45 11.5979 209.822 12.2286 210.166C12.8593 210.51 13.5258 210.84 14.2281 211.155Z" fill="white"/>
<path d="M18.7001 156.745C17.8544 157.405 17.0016 157.892 16.1416 158.207C15.2959 158.523 14.3356 158.68 13.2606 158.68C11.8559 158.68 10.5444 158.451 9.3261 157.992C8.10777 157.519 7.0471 156.853 6.1441 155.993C5.2411 155.133 4.5316 154.101 4.0156 152.897C3.4996 151.679 3.2416 150.324 3.2416 148.833C3.2416 147.285 3.48527 145.874 3.9726 144.598C4.47427 143.322 5.1766 142.226 6.0796 141.308C6.99694 140.377 8.1006 139.66 9.3906 139.158C10.6949 138.642 12.1498 138.384 13.7551 138.384C15.1884 138.384 16.4498 138.607 17.5391 139.051C18.6428 139.495 19.5959 140.083 20.3986 140.814C21.2013 141.545 21.8678 142.383 22.3981 143.329C22.9428 144.275 23.3728 145.257 23.6881 146.275C24.0178 147.293 24.2471 148.303 24.3761 149.306C24.5194 150.31 24.5911 151.234 24.5911 152.08C24.5911 153.743 24.4191 155.369 24.0751 156.96C23.7454 158.537 23.2509 160.028 22.5916 161.432C21.9466 162.837 21.1511 164.134 20.2051 165.324C19.2591 166.499 18.1769 167.524 16.9586 168.398C15.7546 169.273 14.4216 169.968 12.9596 170.484C11.4976 171 9.92094 171.294 8.2296 171.366L7.5631 167.775C9.2831 167.689 10.8956 167.28 12.4006 166.549C13.9199 165.818 15.2529 164.851 16.3996 163.647C17.5606 162.429 18.4923 161.017 19.1946 159.411C19.9113 157.792 20.3198 156.065 20.4201 154.23L18.7001 156.745ZM20.1621 150.51C20.1191 149.435 19.9614 148.396 19.6891 147.393C19.4311 146.375 19.0441 145.472 18.5281 144.684C18.0121 143.881 17.3743 143.243 16.6146 142.77C15.8549 142.283 14.9591 142.039 13.9271 142.039C12.9524 142.039 12.0781 142.197 11.3041 142.512C10.5301 142.828 9.87077 143.265 9.3261 143.824C8.78144 144.383 8.3586 145.057 8.0576 145.845C7.77094 146.633 7.6276 147.5 7.6276 148.446C7.6276 149.378 7.74227 150.245 7.9716 151.048C8.21527 151.851 8.5736 152.546 9.0466 153.133C9.53394 153.721 10.1431 154.187 10.8741 154.531C11.6194 154.861 12.4866 155.025 13.4756 155.025C14.2353 155.025 14.9591 154.904 15.6471 154.66C16.3494 154.416 16.9873 154.094 17.5606 153.692C18.1483 153.277 18.6643 152.797 19.1086 152.252C19.5529 151.707 19.9041 151.127 20.1621 150.51Z" fill="white"/>
<path d="M14.0131 111.366C12.7948 111.366 11.6768 111.136 10.6591 110.677C9.64144 110.204 8.7241 109.567 7.9071 108.764C7.10444 107.961 6.39494 107.022 5.7786 105.947C5.1766 104.872 4.66777 103.726 4.2521 102.507C3.85077 101.275 3.54977 100.006 3.3491 98.702C3.14843 97.3977 3.0481 96.122 3.0481 94.875C3.0481 93.585 3.1341 92.2807 3.3061 90.962C3.4781 89.6433 3.75044 88.3748 4.1231 87.1565C4.49577 85.9382 4.96877 84.7987 5.5421 83.738C6.12977 82.663 6.82494 81.7313 7.6276 80.943C8.4446 80.1547 9.37627 79.5312 10.4226 79.0725C11.4833 78.6138 12.6801 78.3845 14.0131 78.3845C15.2314 78.3845 16.3494 78.621 17.3671 79.094C18.3848 79.5527 19.2949 80.1833 20.0976 80.986C20.9146 81.7887 21.6241 82.7275 22.2261 83.8025C22.8424 84.8775 23.3513 86.0313 23.7526 87.264C24.1683 88.4823 24.4764 89.7437 24.6771 91.048C24.8778 92.3523 24.9781 93.628 24.9781 94.875C24.9781 96.165 24.8921 97.4693 24.7201 98.788C24.5481 100.107 24.2758 101.375 23.9031 102.593C23.5304 103.812 23.0503 104.958 22.4626 106.033C21.8893 107.094 21.1941 108.019 20.3771 108.807C19.5744 109.595 18.6428 110.219 17.5821 110.677C16.5214 111.136 15.3318 111.366 14.0131 111.366ZM7.4986 93.9505C7.4986 94.7818 7.52727 95.6992 7.5846 96.7025C7.64194 97.6915 7.7566 98.6948 7.9286 99.7125C8.1006 100.716 8.3371 101.69 8.6381 102.636C8.95344 103.582 9.35477 104.428 9.8421 105.173C10.3438 105.904 10.9458 106.492 11.6481 106.936C12.3648 107.381 13.2104 107.603 14.1851 107.603C15.0594 107.603 15.8191 107.438 16.4641 107.108C17.1234 106.764 17.6896 106.306 18.1626 105.732C18.6356 105.145 19.0226 104.471 19.3236 103.711C19.6246 102.937 19.8611 102.113 20.0331 101.239C20.2194 100.365 20.3484 99.4617 20.4201 98.53C20.4918 97.5983 20.5276 96.6882 20.5276 95.7995C20.5276 94.9682 20.4989 94.058 20.4416 93.069C20.3843 92.0657 20.2696 91.0623 20.0976 90.059C19.9256 89.0557 19.6819 88.081 19.3666 87.135C19.0656 86.1747 18.6643 85.329 18.1626 84.598C17.6753 83.867 17.0733 83.2793 16.3566 82.835C15.6543 82.3907 14.8158 82.1685 13.8411 82.1685C12.9668 82.1685 12.1999 82.3405 11.5406 82.6845C10.8956 83.0142 10.3366 83.4657 9.8636 84.039C9.3906 84.6123 9.0036 85.286 8.7026 86.06C8.4016 86.834 8.15794 87.6582 7.9716 88.5325C7.7996 89.4068 7.67777 90.3098 7.6061 91.2415C7.53444 92.1588 7.4986 93.0618 7.4986 93.9505Z" fill="white"/>
<path d="M5.1336 51V47.56H12.5511V26.791L13.7981 21.9105L10.8741 25.9095L6.3161 29.9515L3.9941 27.35L13.8411 18.32L17.0661 18.75V47.56H24.4836V51H5.1336Z" fill="white"/>
</svg>
